<?xml version="1.0" encoding="UTF-8" standalone="no"?>
<svg
   xmlns:dc="http://purl.org/dc/elements/1.1/"
   xmlns:cc="http://creativecommons.org/ns#"
   xmlns:rdf="http://www.w3.org/1999/02/22-rdf-syntax-ns#"
   xmlns:svg="http://www.w3.org/2000/svg"
   xmlns="http://www.w3.org/2000/svg"
   xmlns:sodipodi="http://sodipodi.sourceforge.net/DTD/sodipodi-0.dtd"
   xmlns:inkscape="http://www.inkscape.org/namespaces/inkscape"
   viewBox="0 0 63.998732 63.998732"
   height="64"
   width="64"
   id="svg2"
   version="1.1"
   inkscape:version="0.91 r"
   sodipodi:docname="inst.svg">
  <metadata
     id="metadata14">
    <rdf:RDF>
      <cc:Work
         rdf:about="">
        <dc:format>image/svg+xml</dc:format>
        <dc:type
           rdf:resource="http://purl.org/dc/dcmitype/StillImage" />
        <dc:title></dc:title>
      </cc:Work>
    </rdf:RDF>
  </metadata>
  <defs
     id="defs12" />
  <sodipodi:namedview
     pagecolor="#ffffff"
     bordercolor="#666666"
     borderopacity="1"
     objecttolerance="10"
     gridtolerance="10"
     guidetolerance="10"
     inkscape:pageopacity="0"
     inkscape:pageshadow="2"
     inkscape:window-width="1366"
     inkscape:window-height="744"
     id="namedview10"
     showgrid="false"
     inkscape:zoom="5.6207205"
     inkscape:cx="35.732556"
     inkscape:cy="27.40513"
     inkscape:window-x="0"
     inkscape:window-y="24"
     inkscape:window-maximized="1"
     inkscape:current-layer="svg2" />
  <g
     id="g4"
     style="fill:#100f0d"
     transform="matrix(0.08502871,0,0,0.08502871,3.2023731,3.5094659)">
    <path
       d="M 336,0 C 244.6,0 233,0.4 197.3,2 161.6,3.7 137.1,9.3 115.8,17.6 93.6,26.2 74.8,37.6 56.2,56.4 37.7,75 26.2,93.8 17.6,116 9.3,137 3.6,161.6 2,197.3 0.4,233.2 0,244.7 0,336 c 0,91 0.4,102.6 2,138.4 1.7,35.6 7.3,60.2 15.6,81.6 8.6,22 20,40.7 38.8,59.4 18.6,18.6 37.4,30.2 59.6,38.8 21.2,8.3 45.7,14 81.4,15.6 35.8,1.6 47.3,2 138.5,2 91,0 102.6,-0.4 138.4,-2 35.7,-1.7 60.2,-7.3 81.5,-15.6 22,-8.6 40.7,-20 59.4,-38.8 18.7,-18.7 30.2,-37.4 38.8,-59.5 8.3,-21.4 14,-46 15.6,-81.6 1.6,-35.8 2,-47.3 2,-138.5 0,-91.3 -0.4,-102.8 -2,-138.6 C 667.9,161.5 662.3,137 654,115.7 645.4,93.5 634,74.7 615.2,56.1 596.7,37.7 578,26.2 556,17.6 534.6,9.3 510,3.6 474.4,2 438.6,0.4 427,0 336,0 Z m 0,60.5 c 89.6,0 100.2,0.4 135.6,2 32.8,1.5 50.6,7 62.4,11.5 15.7,6 27,13.4 38.6,25.2 11.8,11.7 19,23 25,38.6 4.7,11.8 10.2,29.6 11.7,62.4 1.6,35.4 2,46 2,135.7 0,89.6 -0.4,100.2 -2,135.6 -1.5,32.8 -7,50.6 -11.6,62.4 -6,15.7 -13.3,27 -25,38.6 -11.8,11.8 -23,19 -38.7,25 -11.8,4.7 -29.6,10.2 -62.4,11.7 -35.4,1.6 -46,2 -135.7,2 -89.8,0 -100.4,-0.4 -135.8,-2 -32.8,-1.5 -50.6,-7 -62.4,-11.6 -15.7,-6 -27,-13.3 -38.6,-25 -11.8,-11.8 -19,-23 -25.2,-38.7 -4.6,-11.8 -10,-29.6 -11.5,-62.4 -1.6,-35.4 -2,-46 -2,-135.7 0,-89.8 0.4,-100.4 2,-135.8 1.5,-32.8 7,-50.6 11.5,-62.4 6,-15.7 13.4,-27 25.2,-38.6 11.7,-11.8 23,-19 38.6,-25.2 11.8,-4.6 29.6,-10 62.4,-11.5 35.4,-1.6 46,-2 135.7,-2"
       id="path6"
       inkscape:connector-curvature="0" />
    <path
       d="m 336,448 c -62,0 -112,-50.3 -112,-112 0,-62 50,-112 112,-112 61.7,0 112,50 112,112 0,61.7 -50.3,112 -112,112 z m 0,-284.6 c -95.4,0 -172.6,77.2 -172.6,172.5 0,95.2 77.2,172.4 172.5,172.4 95.2,0 172.4,-77.2 172.4,-172.5 0,-95.4 -77.2,-172.6 -172.5,-172.6 m 219.7,-6.6 c 0,22.3 -18,40.3 -40.3,40.3 -22.3,0 -40.3,-18 -40.3,-40.4 0,-22.3 18,-40.3 40.2,-40.3 22.3,0 40.3,18 40.3,40.3"
       id="path8"
       inkscape:connector-curvature="0" />
  </g>
</svg>
