<?xml version="1.0" standalone="no"?>
<!DOCTYPE svg PUBLIC "-//W3C//DTD SVG 20010904//EN"
 "http://www.w3.org/TR/2001/REC-SVG-20010904/DTD/svg10.dtd">
<svg version="1.0" xmlns="http://www.w3.org/2000/svg"
 width="1142.000000pt" height="1142.000000pt" viewBox="0 0 1142.000000 1142.000000"
 preserveAspectRatio="xMidYMid meet">
<metadata>
Created by potrace 1.14, written by Peter Selinger 2001-2017
</metadata>
<g transform="translate(0.000000,1142.000000) scale(0.100000,-0.100000)"
fill="#000000" stroke="none">
<path d="M7260 11005 c-8 -2 -49 -9 -90 -15 -102 -17 -126 -33 -35 -25 39 4
141 9 228 11 l157 4 0 -24 c0 -16 7 -26 23 -30 34 -9 165 -7 171 3 9 13 68 20
94 10 34 -13 27 8 -10 27 -18 9 -75 20 -128 25 -103 9 -386 19 -410 14z"/>
<path d="M6945 10941 c-22 -4 -50 -12 -62 -19 -27 -15 -156 -15 -242 -2 -68
12 -90 7 -47 -10 20 -7 26 -15 22 -28 -10 -29 44 -73 97 -79 42 -5 46 -3 73
32 34 43 72 65 112 65 48 0 86 10 112 31 l25 19 -25 -1 c-14 -1 -43 -5 -65 -8z"/>
<path d="M6968 10857 c-31 -18 -68 -41 -83 -51 -33 -24 -188 -40 -252 -26 -62
14 -117 44 -141 77 -18 25 -23 26 -41 16 -12 -7 -29 -13 -39 -13 -20 0 -36
-26 -47 -75 -9 -40 -25 -140 -29 -190 -2 -22 -15 -65 -30 -95 -16 -35 -26 -73
-26 -105 -2 -114 -48 -255 -83 -255 -6 0 -18 -6 -26 -14 -9 -8 -32 -18 -51
-23 -28 -7 -36 -15 -38 -36 -2 -15 1 -27 6 -27 5 0 12 -19 16 -41 6 -40 37
-78 63 -79 6 0 20 -10 30 -23 10 -13 26 -26 35 -30 10 -3 20 -18 24 -33 13
-51 -5 -73 -105 -125 -52 -27 -129 -71 -170 -98 -96 -63 -147 -86 -154 -68 -3
9 -24 12 -68 11 -114 -4 -149 -16 -149 -50 0 -38 53 -134 103 -186 25 -25 48
-56 52 -67 7 -22 131 -111 189 -135 25 -10 36 -21 36 -35 0 -25 35 -36 90 -28
26 3 50 -1 72 -12 31 -17 191 -42 233 -38 16 2 29 -15 60 -78 35 -69 40 -76
43 -52 2 15 -6 47 -18 70 -12 24 -20 55 -18 70 l3 27 52 -28 c29 -15 74 -40
100 -56 42 -26 56 -30 116 -28 51 2 69 -1 73 -12 7 -19 -13 -56 -30 -56 -8 0
-17 -8 -20 -17 -7 -17 8 -32 34 -34 94 -8 159 -20 165 -29 3 -5 25 9 47 31 49
47 110 81 132 73 9 -4 36 11 68 38 77 63 78 64 78 93 0 23 2 24 20 15 11 -6
20 -20 20 -30 0 -15 7 -20 25 -20 18 0 23 -4 19 -15 -4 -8 -1 -15 5 -15 6 0
11 8 11 18 1 15 3 15 18 -4 l18 -21 17 23 c9 13 17 27 17 32 0 5 8 16 18 25
21 20 73 23 70 5 -3 -12 2 -14 55 -16 17 -1 27 -8 27 -17 0 -8 9 -24 20 -35
11 -11 20 -31 20 -44 0 -13 7 -29 15 -36 8 -7 13 -16 10 -20 -10 -16 41 4 68
27 38 31 56 29 68 -7 14 -38 31 -38 100 -1 53 28 53 28 51 72 -2 24 -10 73
-18 109 -8 36 -17 97 -20 136 l-4 71 137 62 c76 35 145 72 152 83 20 27 79 64
116 72 17 4 62 29 100 56 39 28 84 56 100 64 48 23 183 159 204 207 21 46 20
62 -4 52 -8 -3 -15 -18 -15 -33 0 -22 -15 -41 -77 -94 -43 -36 -87 -73 -98
-83 -26 -23 -110 -52 -157 -52 -20 -1 -40 -6 -44 -12 -4 -8 -9 -7 -15 2 -8 14
-97 22 -130 13 -9 -3 -22 -17 -29 -32 -15 -34 -96 -97 -180 -139 -62 -31 -134
-49 -230 -58 -53 -5 -110 12 -103 31 4 11 -11 13 -73 9 -44 -2 -88 -5 -99 -7
-12 -2 -21 4 -23 16 -7 33 112 125 288 225 116 65 188 118 196 143 3 13 20 40
36 60 l29 38 -28 25 c-17 15 -41 24 -60 25 -33 0 -53 21 -53 57 0 41 -14 47
-63 28 -26 -10 -54 -14 -64 -10 -14 5 -9 10 23 21 30 10 75 46 158 129 l116
114 0 119 c0 94 -3 122 -15 132 -8 7 -15 27 -15 44 0 17 -4 38 -10 46 -9 15
-11 14 -22 -29 -4 -14 -98 164 -98 185 0 13 -39 50 -60 56 -8 3 -25 2 -36 -3
-14 -5 -29 -3 -42 6 -11 8 -46 17 -78 21 -33 3 -74 10 -92 16 -32 10 -91 10
-372 3 -68 -2 -134 1 -145 5 -16 6 -36 0 -77 -23z"/>
<path d="M1803 10592 c-29 -19 -67 -150 -58 -199 8 -43 -45 -123 -81 -123 -15
0 -24 -6 -24 -15 0 -9 9 -15 25 -15 l26 0 -23 -30 c-12 -17 -31 -30 -44 -30
-28 0 -41 -17 -59 -77 -17 -57 -37 -79 -80 -85 -16 -3 -50 -10 -75 -16 -153
-38 -197 -45 -310 -49 -120 -5 -126 -7 -158 -34 -36 -32 -58 -35 -85 -14 -13
9 -17 20 -12 34 9 29 -4 26 -42 -9 -54 -49 -42 -119 23 -146 31 -13 46 -13
132 3 53 10 115 17 137 16 88 -3 171 -16 186 -29 21 -18 29 -8 23 26 -5 24 -2
29 27 39 17 6 46 11 63 11 18 0 37 5 43 11 16 16 33 2 33 -27 0 -15 -14 -39
-34 -60 -31 -32 -33 -38 -28 -82 7 -61 23 -85 69 -101 21 -8 50 -27 66 -42 16
-16 35 -29 43 -29 23 0 17 8 -26 35 -22 14 -40 32 -40 41 0 11 10 7 37 -15 21
-17 49 -31 63 -31 41 0 57 -16 43 -39 -11 -18 -10 -23 11 -36 13 -9 30 -13 38
-10 8 3 23 -3 33 -15 17 -18 30 -20 170 -20 135 0 161 -3 233 -26 75 -23 82
-28 94 -60 15 -43 91 -104 129 -104 23 0 35 -12 75 -72 26 -40 67 -95 91 -123
24 -27 43 -59 43 -71 0 -12 6 -27 14 -33 8 -7 18 -26 21 -42 7 -29 28 -57 125
-159 62 -65 108 -119 144 -169 29 -39 60 -63 70 -53 4 3 4 -1 1 -10 -5 -12 3
-27 22 -45 17 -15 40 -45 52 -65 13 -21 27 -38 31 -38 5 0 42 -31 82 -70 54
-51 80 -70 101 -70 22 0 52 -24 140 -111 61 -61 124 -117 138 -124 15 -8 29
-21 32 -30 4 -8 12 -15 19 -15 19 -1 58 -36 58 -53 0 -8 -7 -21 -16 -28 -31
-26 -8 -150 45 -239 5 -8 16 -32 24 -52 10 -23 34 -49 65 -70 75 -51 118 -92
137 -132 9 -19 35 -52 57 -72 36 -32 44 -35 77 -29 70 13 98 30 105 65 10 51
7 70 -9 70 -27 0 -16 24 33 70 26 25 60 65 76 89 23 34 33 42 55 39 18 -2 27
-10 29 -26 2 -12 12 -27 23 -33 16 -8 18 -17 13 -45 -4 -22 -2 -34 5 -34 21 0
11 -38 -15 -55 -21 -14 -25 -22 -20 -46 3 -15 1 -31 -4 -34 -6 -3 -10 -12 -10
-20 0 -26 67 -36 254 -36 115 0 186 -4 186 -10 0 -5 27 -21 60 -35 33 -15 62
-34 65 -43 3 -9 -1 -41 -9 -71 -12 -43 -12 -63 -4 -93 9 -31 8 -48 -6 -93 -23
-72 -91 -220 -106 -229 -25 -16 -24 -7 20 118 21 60 26 97 13 97 -21 -2 -94
-82 -106 -116 -7 -23 -52 -85 -101 -142 -73 -85 -93 -102 -117 -102 -15 0 -31
-4 -34 -10 -3 -5 -19 -10 -36 -10 -24 0 -29 -4 -29 -25 0 -50 -46 -55 -201
-24 -206 40 -246 60 -337 162 -48 55 -101 79 -146 66 -19 -5 -44 -21 -53 -35
-35 -49 -98 -129 -114 -144 -8 -8 -34 -40 -57 -70 -22 -30 -154 -165 -292
-300 -139 -134 -342 -333 -452 -442 l-200 -197 -9 -93 c-13 -131 -15 -138 -44
-138 -15 0 -29 -8 -36 -22 -16 -32 -50 -58 -76 -58 -22 0 -23 -4 -23 -74 l0
-74 -50 -42 c-28 -24 -64 -62 -81 -86 -16 -24 -36 -44 -43 -44 -8 0 -30 18
-49 39 -43 48 -56 39 -62 -41 -5 -60 -21 -78 -72 -78 -32 0 -43 -12 -23 -25 6
-3 10 -15 10 -26 0 -14 -7 -19 -30 -19 -16 0 -30 -4 -30 -8 0 -5 -20 -17 -45
-28 -40 -16 -45 -21 -45 -51 0 -41 30 -61 67 -44 28 13 73 15 73 2 0 -4 -24
-38 -52 -75 -101 -129 -120 -156 -116 -167 3 -10 184 106 328 210 30 22 61 40
68 41 6 0 21 9 31 19 45 45 130 106 177 127 34 15 59 34 73 58 12 19 35 43 50
53 16 10 62 44 103 76 55 42 83 57 107 57 17 0 39 4 49 9 88 45 88 45 123 29
19 -8 50 -21 69 -28 19 -7 40 -17 46 -22 25 -18 -8 -172 -57 -270 -30 -58 -26
-72 17 -64 25 5 43 2 60 -9 31 -20 30 -24 -6 -70 -17 -21 -33 -50 -37 -64 -3
-14 -14 -37 -23 -51 -9 -14 -28 -42 -41 -62 -13 -21 -29 -38 -36 -38 -16 0
-29 -26 -36 -74 -4 -23 -39 -92 -90 -175 -82 -133 -85 -139 -117 -276 -18 -77
-39 -155 -47 -174 -7 -19 -16 -67 -20 -107 l-6 -72 68 -7 c37 -4 113 -5 169
-1 96 7 103 9 160 48 88 60 155 98 172 98 9 0 18 -9 21 -20 7 -27 17 -25 52 9
27 27 36 29 136 36 92 6 110 5 123 -9 15 -15 15 -18 -1 -45 -9 -16 -17 -36
-17 -44 0 -8 -11 -25 -25 -38 -36 -35 -32 -49 15 -49 22 0 40 -5 40 -11 0 -6
-14 -31 -31 -55 -35 -51 -33 -63 8 -41 15 8 80 41 143 74 63 33 131 71 150 84
20 13 74 43 120 66 47 23 141 70 210 104 69 34 136 73 150 88 14 15 54 37 90
50 36 12 73 27 82 32 235 124 339 172 453 208 72 22 213 67 315 100 102 32
205 62 230 65 60 9 257 44 345 62 122 25 141 20 151 -42 6 -42 8 -44 46 -51
23 -3 55 -18 73 -34 18 -16 38 -29 44 -29 21 0 125 -84 203 -164 33 -33 54
-29 64 11 4 15 15 44 26 63 10 19 18 40 18 46 0 6 9 19 20 29 19 17 21 17 38
2 20 -18 102 -24 102 -8 0 5 -5 11 -12 13 -8 3 5 30 34 74 106 159 110 175
159 612 l23 202 42 43 c40 40 42 45 49 123 l7 80 -46 88 c-78 148 -93 208
-100 386 -4 130 -9 167 -30 227 -14 39 -28 89 -31 110 -4 21 -11 54 -17 73 -6
19 -12 53 -14 75 -7 105 -14 156 -23 174 -6 10 -10 49 -9 85 2 54 5 66 19 66
21 0 32 51 19 86 -16 41 -12 71 10 77 16 4 19 11 14 39 -3 18 -12 49 -19 70
-12 31 -12 38 0 48 10 8 18 8 34 -2 26 -16 39 -3 22 25 -8 11 -16 37 -18 55
-5 33 -4 34 21 30 22 -4 26 -2 26 17 0 12 7 28 15 35 8 7 15 20 15 30 0 10 7
23 15 30 8 7 15 19 15 26 0 17 22 18 37 3 6 -6 16 -8 22 -5 7 5 2 20 -14 44
-14 20 -25 41 -25 46 0 16 63 -4 77 -24 8 -11 20 -20 28 -20 7 0 16 -6 19 -12
4 -7 4 -3 2 10 -3 18 0 22 20 22 19 0 24 5 24 24 0 13 -7 26 -15 30 -8 3 -15
14 -15 25 0 11 -4 22 -9 26 -9 5 -41 62 -41 72 0 1 6 3 13 3 7 0 18 9 25 21 9
14 20 19 33 16 15 -4 19 -2 15 9 -3 8 -9 21 -12 29 -8 19 13 19 50 0 37 -19
42 -19 24 3 -23 27 -15 67 19 96 37 31 38 31 70 6 28 -22 55 -28 35 -8 -7 7
-12 21 -12 32 0 11 -6 27 -14 35 -8 9 -21 36 -29 61 -15 43 -14 45 5 48 22 4
38 -12 118 -123 145 -202 232 -305 257 -305 18 0 16 20 -5 51 -34 53 -57 84
-62 89 -22 19 -69 101 -64 113 6 16 -18 70 -46 102 -29 34 -43 81 -31 103 18
33 13 51 -19 67 -16 9 -30 22 -30 30 0 8 -4 15 -9 15 -5 0 -11 13 -13 29 -3
20 -1 28 6 23 16 -11 95 -82 135 -123 20 -19 54 -46 76 -59 22 -13 86 -69 143
-124 l102 -99 -36 79 c-45 97 -83 164 -94 164 -5 0 -53 44 -107 98 -55 53
-122 118 -151 144 -38 35 -52 55 -52 75 -1 16 -9 46 -20 68 -22 46 -25 65 -9
65 8 0 7 5 -1 16 -10 11 -23 14 -52 9 -41 -7 -47 -1 -23 25 14 16 11 21 -30
59 -52 48 -93 53 -110 14 -8 -19 -15 -22 -53 -18 -25 3 -65 16 -89 30 -49 27
-86 31 -130 14 -24 -9 -30 -7 -44 10 -10 12 -27 21 -38 21 -13 0 -26 10 -33
24 -11 26 -101 72 -118 61 -5 -3 -18 -25 -29 -49 -10 -24 -23 -46 -29 -50 -11
-6 -81 36 -94 57 -4 7 -17 40 -29 74 -23 71 -103 199 -140 226 l-24 18 25 -6
c67 -17 73 -18 66 -6 -4 6 -17 11 -29 11 -13 0 -32 7 -44 15 -12 8 -48 18 -80
21 -54 5 -59 3 -76 -21 -18 -24 -18 -28 -1 -78 12 -39 31 -65 71 -104 34 -31
53 -58 50 -66 -3 -8 -27 -17 -57 -21 -29 -4 -63 -14 -76 -22 -32 -22 -46 -9
-42 40 3 39 2 41 -23 38 -17 -1 -50 11 -86 33 -38 23 -86 40 -131 49 -83 16
-105 30 -99 63 6 31 -2 34 -47 22 -24 -7 -36 -15 -33 -23 3 -7 -8 -27 -24 -44
-28 -30 -31 -31 -62 -18 -26 11 -31 18 -29 40 3 25 1 26 -18 14 -29 -18 -25
-39 15 -71 26 -20 35 -36 35 -57 0 -39 -10 -43 -65 -24 -53 18 -75 13 -75 -15
0 -30 -16 -34 -71 -21 -41 10 -55 19 -77 52 -25 39 -27 40 -71 34 -54 -7 -60
-12 -35 -30 63 -46 62 -44 34 -66 -20 -17 -34 -20 -74 -16 -46 5 -51 3 -81
-29 -36 -40 -41 -41 -75 -15 -18 13 -28 16 -37 8 -7 -5 -32 -11 -57 -13 -55
-3 -62 -8 -69 -45 -10 -47 -45 -40 -105 22 l-49 51 -28 -54 c-33 -66 -29 -63
-52 -50 -10 5 -42 17 -70 26 -62 19 -67 26 -64 80 1 29 -7 58 -29 100 -16 33
-30 66 -30 73 0 30 70 4 114 -43 35 -37 49 -38 91 -7 15 10 15 13 3 9 -18 -6
-94 19 -118 39 -8 7 -27 17 -43 23 -15 6 -32 22 -37 36 -11 28 -47 34 -56 10
-9 -23 -48 -18 -74 10 -23 24 -70 35 -70 15 0 -5 -21 -19 -47 -30 l-48 -22 24
-16 c34 -24 191 -174 201 -192 4 -8 11 -40 14 -71 6 -51 5 -59 -19 -87 -24
-29 -29 -31 -50 -19 -25 13 -245 242 -271 283 -22 32 -40 30 -59 -6 -17 -34
-33 -37 -75 -15 -35 18 -39 45 -10 63 31 19 24 42 -28 91 -26 25 -60 65 -75
87 -15 23 -39 52 -53 65 -24 23 -26 23 -38 7 -16 -22 -34 -23 -58 -1 -10 9
-35 19 -55 22 -33 5 -39 12 -53 48 -30 81 -78 109 -166 95 -52 -9 -104 6 -104
28 0 16 -72 56 -113 64 -21 4 -48 18 -59 32 -12 13 -26 24 -32 24 -6 1 -22 10
-36 21 l-24 21 22 16 c19 14 21 22 13 48 -5 17 -25 53 -45 81 -41 58 -43 71
-16 106 11 14 20 32 20 41 0 9 -31 36 -69 61 -38 25 -76 57 -85 70 -9 14 -33
36 -54 50 -20 13 -56 39 -79 56 -35 27 -45 30 -58 19 -11 -9 -22 -10 -42 -2
-16 6 -41 13 -57 17 -16 3 -46 22 -65 41 -20 19 -39 34 -42 34 -6 0 -32 -61
-45 -107 -6 -22 -40 -14 -71 15 -22 20 -33 43 -42 89 -14 75 -5 98 41 108 18
4 40 12 49 18 16 10 16 13 -7 40 -30 36 -30 39 6 65 21 16 43 22 78 22 54 0
102 28 102 59 0 23 -67 101 -87 101 -16 0 -103 85 -103 101 0 5 6 9 13 9 6 0
21 3 33 6 14 4 31 -4 53 -22 17 -14 35 -24 38 -20 8 8 -144 156 -161 156 -7 0
-23 12 -37 26 -27 29 -99 69 -99 55 0 -16 79 -81 99 -81 17 0 49 -27 40 -34
-35 -27 -107 -56 -129 -51 -18 4 -35 -2 -60 -20 -34 -25 -84 -33 -95 -15 -3 6
-17 10 -31 10 -33 0 -30 16 10 56 24 24 44 34 67 35 90 3 110 31 59 84 -20 20
-29 38 -25 46 6 9 -1 10 -27 5 -20 -3 -47 -2 -60 3 -14 5 -29 6 -35 3z"/>
<path d="M8064 10435 c-10 -26 15 -421 28 -441 17 -27 106 -44 193 -39 83 5
97 1 73 -23 -9 -9 -9 -15 -1 -23 8 -8 28 -5 74 11 44 16 67 20 78 13 14 -9 68
-6 174 10 49 7 53 20 26 88 -27 67 -147 207 -203 236 -17 8 -57 33 -90 55 -67
46 -138 78 -170 78 -12 0 -27 5 -33 11 -6 6 -29 15 -50 20 -21 4 -50 11 -65
15 -21 5 -29 2 -34 -11z"/>
<path d="M5940 10001 c-89 -43 -155 -102 -261 -236 -26 -33 -69 -115 -69 -131
0 -2 14 -4 30 -4 21 0 30 5 30 17 0 9 8 26 18 37 10 12 25 37 32 56 7 19 37
67 66 106 38 52 64 77 98 92 25 12 52 22 59 22 20 0 57 30 57 46 0 18 -16 17
-60 -5z"/>
<path d="M2607 9954 c-16 -17 -4 -46 36 -89 24 -25 46 -45 49 -45 3 0 35 -17
70 -37 71 -42 138 -110 138 -140 0 -11 18 -35 40 -54 22 -19 71 -63 108 -99
39 -38 96 -79 133 -98 35 -17 84 -51 109 -74 59 -56 94 -78 123 -78 12 0 27
-4 32 -9 6 -4 30 -16 55 -25 25 -9 70 -40 100 -68 30 -28 70 -62 88 -76 17
-13 32 -33 32 -43 0 -11 4 -19 10 -19 13 0 38 -49 62 -124 22 -67 65 -146 79
-146 14 0 10 26 -6 40 -8 7 -15 25 -15 40 0 16 -7 30 -16 34 -12 5 -14 14 -9
45 5 31 2 43 -18 67 -13 16 -30 45 -37 64 -17 42 -156 181 -204 204 -19 9 -43
16 -54 16 -28 0 -126 46 -147 70 -10 11 -26 20 -35 20 -10 0 -25 11 -34 25 -9
14 -21 25 -27 25 -6 0 -51 38 -101 84 -49 47 -99 86 -111 88 -14 2 -23 11 -25
25 -2 12 -24 41 -50 65 -26 23 -49 52 -52 63 -4 12 -16 21 -31 23 -18 2 -33
15 -48 43 -12 21 -26 39 -31 39 -5 0 -25 14 -44 30 -19 17 -40 28 -48 25 -11
-4 -19 8 -30 42 -14 44 -18 48 -49 51 -19 2 -38 0 -42 -4z"/>
<path d="M8087 9309 l-118 -59 38 -45 c20 -25 45 -47 54 -50 19 -6 183 103
191 127 8 20 -17 83 -33 85 -8 1 -67 -25 -132 -58z"/>
<path d="M9200 9290 c-19 -5 -71 -11 -115 -14 -44 -3 -98 -10 -120 -15 -22 -6
-57 -8 -77 -4 -21 3 -73 0 -116 -7 -70 -12 -81 -11 -104 4 -19 12 -45 17 -90
16 -34 -1 -94 1 -133 4 -63 5 -59 3 40 -15 61 -11 124 -22 140 -25 37 -5 62
-20 51 -31 -4 -4 -113 -9 -242 -11 l-234 -2 -56 -37 -55 -37 33 -20 c62 -38
88 -64 104 -101 11 -28 20 -36 34 -32 19 5 80 -26 80 -41 0 -5 12 -22 26 -37
27 -29 104 -183 104 -207 0 -8 13 -35 29 -61 47 -72 82 -153 75 -170 -8 -23
40 -157 57 -157 4 0 10 14 14 30 10 46 44 49 103 11 57 -36 69 -37 145 -11 41
14 82 20 149 20 102 0 118 -7 217 -90 109 -91 155 -145 192 -227 l28 -63 44 0
c49 0 58 6 132 87 57 63 56 88 -8 132 -23 16 -76 59 -117 95 -41 36 -79 66
-85 66 -22 0 -86 52 -116 96 -17 25 -29 48 -26 50 6 6 101 -50 150 -88 32 -25
37 -27 37 -11 0 30 -26 104 -59 168 -35 68 -38 83 -14 64 14 -12 14 -9 -2 18
-19 32 -19 33 4 64 22 30 23 33 7 45 -10 7 -36 16 -58 19 -32 6 -43 4 -50 -8
-10 -19 -32 -13 -73 21 -35 29 -142 82 -166 82 -9 0 -21 6 -27 13 -8 9 16 12
116 11 70 0 134 -4 143 -8 24 -11 45 19 28 40 -11 14 -10 18 5 30 20 14 22 11
-49 111 -7 10 -5 18 8 27 27 20 23 94 -7 131 -22 27 -23 32 -9 47 31 34 -8 47
-87 28z"/>
<path d="M9373 9263 c-9 -3 -13 -32 -13 -92 0 -73 3 -91 18 -105 18 -15 20
-15 42 4 13 11 33 20 45 20 35 0 85 52 85 88 0 44 -9 61 -41 77 -27 14 -110
19 -136 8z"/>
<path d="M9445 9034 c-16 -9 -31 -18 -33 -19 -1 -1 4 -15 13 -31 8 -16 15 -46
15 -67 0 -45 28 -149 42 -158 6 -4 11 -28 13 -53 3 -45 2 -46 -12 -25 -14 19
-17 20 -25 5 -6 -10 -3 -38 8 -79 9 -34 20 -80 25 -102 25 -116 45 -159 85
-188 106 -75 219 -153 314 -218 58 -39 118 -84 134 -100 15 -16 47 -34 70 -40
100 -27 143 -65 173 -152 13 -39 18 -46 21 -29 2 13 10 22 21 22 22 0 45 25
37 39 -3 5 -8 51 -10 103 -3 99 -17 144 -48 154 -10 3 -26 20 -35 37 -19 38
-130 161 -177 197 -19 14 -58 47 -87 73 -52 46 -72 60 -201 145 -32 20 -58 41
-58 46 0 5 64 6 154 2 168 -7 202 -1 213 41 6 27 5 30 -61 164 -26 53 -55 102
-64 110 -42 36 -69 49 -100 49 -19 0 -46 7 -60 15 -50 27 -189 64 -263 70 -58
4 -80 2 -104 -11z"/>
<path d="M7900 8840 c-36 -17 -84 -50 -106 -73 -71 -72 -144 -129 -158 -124
-20 8 -79 -31 -72 -48 3 -10 -3 -17 -19 -21 -16 -4 -25 -13 -25 -25 0 -25 -60
-43 -77 -22 -7 9 -13 11 -18 4 -3 -6 -14 -11 -25 -11 -10 0 -20 -7 -24 -15 -3
-9 -19 -15 -41 -15 -22 0 -38 -6 -41 -15 -7 -18 -25 -20 -22 -3 2 7 -13 13
-37 15 -22 2 -44 8 -49 13 -18 18 -26 10 -20 -19 5 -22 1 -32 -18 -47 -12 -11
-31 -29 -41 -41 -17 -19 -17 -24 -3 -51 8 -16 22 -32 29 -35 22 -8 130 56 145
86 12 25 32 37 32 19 0 -4 15 -12 33 -17 24 -8 31 -15 30 -31 -2 -18 8 -23 77
-38 86 -20 129 -18 240 9 36 9 90 19 120 21 30 2 70 9 88 13 18 5 56 7 86 4
l53 -5 6 53 c11 87 8 159 -8 234 -9 39 -20 95 -26 125 -11 57 -25 90 -37 90
-4 0 -36 -14 -72 -30z"/>
<path d="M7074 8707 c-6 -16 -13 -17 -43 -11 -49 9 -293 6 -303 -4 -5 -5 2
-20 15 -34 21 -23 30 -25 73 -21 27 3 64 9 82 13 39 10 46 0 34 -45 -8 -28
-11 -29 -60 -30 -61 -1 -86 -17 -52 -35 15 -8 30 -8 50 -2 16 6 31 8 34 5 18
-18 226 97 226 124 0 20 -4 28 -14 25 -4 -1 -14 5 -21 15 -13 17 -14 17 -21 0z"/>
<path d="M8090 8521 c-5 -11 -10 -51 -10 -89 0 -44 -5 -73 -12 -79 -7 -6 -59
-13 -116 -16 -119 -6 -139 -15 -118 -56 8 -14 23 -35 33 -46 49 -53 79 -115
56 -115 -5 0 -14 -4 -22 -9 -21 -14 11 -54 186 -233 99 -101 153 -164 153
-177 0 -23 -15 -28 -27 -8 -9 15 -138 107 -150 107 -4 0 -28 14 -53 30 -43 29
-90 40 -90 21 0 -5 15 -18 33 -30 83 -53 106 -72 124 -103 11 -18 37 -42 59
-53 54 -27 114 -76 114 -91 0 -7 25 -39 55 -70 31 -31 54 -59 51 -61 -2 -2
-22 5 -45 16 -50 26 -54 26 -46 1 3 -11 2 -20 -2 -20 -26 0 -121 57 -199 121
-49 39 -95 74 -101 76 -7 3 -13 14 -13 24 0 11 -17 29 -42 45 -24 15 -74 48
-111 73 -76 51 -161 105 -192 122 -24 13 213 -221 345 -340 103 -94 146 -138
267 -278 44 -51 91 -102 106 -113 25 -20 36 -58 21 -73 -14 -14 -93 41 -172
120 -99 99 -157 140 -177 123 -9 -8 -20 -7 -39 1 -14 7 -26 15 -26 18 0 13
-70 43 -86 37 -10 -4 -28 4 -49 23 -18 16 -37 30 -42 32 -4 2 -23 21 -40 42
-18 21 -33 35 -33 31 0 -4 19 -43 41 -88 48 -93 109 -165 391 -458 185 -192
199 -210 207 -255 5 -26 12 -55 14 -63 3 -8 8 -27 11 -41 6 -26 5 -26 -34 -19
-22 4 -45 12 -52 17 -7 5 -31 15 -53 21 -22 7 -62 29 -89 50 -77 58 -157 112
-166 112 -5 0 -15 9 -23 20 -8 12 -57 57 -108 101 -52 44 -101 88 -109 98 -18
19 -91 64 -96 58 -6 -6 193 -199 321 -312 226 -201 313 -290 346 -353 8 -15
22 -36 31 -46 12 -14 15 -24 8 -37 -7 -12 -6 -22 5 -33 19 -19 19 -30 0 -22
-9 3 -15 0 -15 -9 0 -8 4 -15 8 -15 8 0 52 -71 52 -84 0 -3 -7 -6 -16 -6 -13
0 -15 -9 -10 -50 3 -28 8 -55 11 -60 3 -5 1 -17 -6 -27 -9 -15 -8 -29 4 -63 9
-27 12 -49 6 -56 -4 -6 -11 -36 -15 -67 -4 -32 -11 -60 -15 -63 -5 -3 -6 -32
-2 -65 5 -54 0 -91 -25 -159 -3 -8 -4 -43 -3 -78 2 -34 -1 -68 -7 -75 -16 -20
-21 -81 -8 -97 7 -8 17 -27 24 -42 9 -23 9 -29 -5 -36 -9 -5 -24 -7 -34 -5
-14 4 -19 0 -19 -13 0 -16 2 -17 10 -4 5 8 10 11 11 5 2 -31 9 -49 20 -56 10
-5 9 -17 -1 -52 -6 -25 -9 -50 -6 -56 8 -12 -11 -52 -22 -48 -7 2 -12 -6 -12
-22 0 -5 14 -14 30 -20 17 -5 33 -18 36 -28 3 -10 10 -26 15 -35 13 -25 12
-28 -9 -28 -11 0 -27 9 -37 20 -22 25 -46 10 -25 -15 8 -10 10 -28 6 -53 -4
-20 -8 -48 -10 -62 -2 -13 -13 -31 -25 -38 -12 -8 -21 -25 -21 -39 0 -18 -8
-27 -30 -34 -34 -12 -36 -17 -15 -45 19 -25 19 -44 -1 -58 -13 -10 -14 -16 -3
-40 11 -24 11 -29 -3 -37 -17 -9 -14 -53 5 -77 10 -13 3 -23 -24 -34 -4 -2 -9
-12 -13 -23 -4 -16 3 -25 34 -42 45 -26 50 -22 54 44 2 34 7 49 18 51 15 3 50
79 53 116 1 10 9 24 19 31 9 7 27 39 40 71 16 39 30 59 40 58 14 -2 20 8 17
28 0 4 21 -5 47 -20 26 -16 69 -39 96 -52 45 -21 49 -22 58 -6 6 10 21 27 34
39 16 14 21 24 14 32 -5 6 -6 24 -1 41 6 25 12 29 37 26 23 -3 27 -1 17 9 -16
16 -17 55 -1 65 7 4 8 3 4 -4 -7 -12 21 -46 45 -54 11 -4 12 -9 2 -26 -9 -14
-9 -22 -1 -24 14 -5 19 -59 7 -74 -5 -6 -20 -9 -34 -6 -20 3 -25 0 -25 -15 0
-10 4 -23 9 -28 6 -6 13 -34 17 -62 5 -44 4 -53 -9 -53 -9 0 -19 5 -22 10 -14
23 -25 7 -25 -40 0 -54 -4 -58 -31 -34 -10 9 -26 14 -36 12 -15 -4 -12 -10 19
-39 43 -41 57 -72 51 -116 -5 -29 -9 -33 -37 -33 -53 0 -104 72 -71 100 19 16
19 60 0 86 -19 25 -19 44 0 44 9 0 12 6 9 15 -5 12 2 15 30 15 63 0 45 23 -46
59 -33 13 -58 30 -61 40 -2 10 -18 23 -36 29 -28 10 -31 9 -31 -9 0 -11 -7
-19 -16 -19 -12 0 -14 -8 -8 -45 5 -36 3 -46 -10 -51 -10 -4 -16 -18 -16 -35
0 -25 -5 -30 -29 -35 -25 -5 -30 -12 -36 -50 -3 -24 -10 -44 -16 -44 -5 0 -9
-10 -9 -23 0 -28 -17 -47 -42 -47 -20 0 -25 -16 -6 -22 7 -3 9 -12 4 -23 -5
-14 -9 -16 -18 -7 -7 7 -20 12 -29 12 -10 0 -19 4 -21 8 -4 9 -87 58 -122 71
-21 9 -24 8 -19 -6 5 -13 1 -15 -21 -9 -16 4 -39 14 -53 23 -38 25 -123 52
-163 53 -27 0 -52 12 -103 50 -73 56 -123 80 -162 80 -28 0 -114 40 -195 91
-30 19 -68 41 -83 49 -15 8 -56 38 -89 67 -34 29 -65 53 -70 53 -5 0 -38 23
-73 51 -49 38 -76 52 -108 56 -75 8 -87 13 -126 52 l-38 38 -31 -211 c-50
-328 -49 -298 -17 -359 27 -51 27 -54 12 -82 -16 -29 -17 -29 -23 -7 -8 29
-24 29 -24 0 -1 -22 -1 -22 -15 -4 -8 11 -16 18 -18 15 -28 -35 -42 -80 -39
-128 3 -49 4 -52 20 -38 9 8 28 17 42 19 21 2 25 -1 22 -21 -1 -14 -9 -32 -18
-42 -12 -13 -13 -21 -3 -42 16 -36 -22 -104 -77 -134 -35 -19 -45 -33 -68 -91
-16 -43 -24 -76 -19 -88 12 -32 80 -118 113 -143 27 -19 31 -28 26 -52 -3 -16
-9 -42 -12 -59 -10 -46 2 -72 55 -131 27 -30 52 -66 55 -81 3 -15 20 -44 39
-65 18 -21 41 -50 50 -65 17 -27 17 -28 -1 -28 -19 0 -46 18 -145 96 -47 37
-93 69 -167 117 -32 20 -52 15 -69 -16 -6 -12 -22 -40 -36 -62 -14 -22 -48
-85 -76 -140 -49 -97 -50 -103 -52 -192 -2 -100 -22 -145 -65 -151 -27 -4 -41
-65 -53 -242 -5 -74 -14 -161 -20 -192 -18 -90 11 -301 44 -322 15 -9 20 -7
30 9 24 41 58 183 64 273 6 87 5 94 -17 117 -12 13 -20 30 -18 37 3 7 -1 27
-8 45 -9 21 -11 52 -7 97 8 90 19 94 62 24 23 -38 115 -116 186 -158 75 -44
130 -72 165 -86 19 -7 62 -24 94 -38 l60 -24 -3 -58 c-1 -31 -12 -80 -23 -108
-13 -35 -18 -63 -14 -88 5 -27 1 -48 -13 -74 -15 -27 -17 -42 -11 -60 19 -50
41 -84 53 -84 41 0 111 131 131 245 7 38 18 80 24 92 7 12 12 37 12 57 0 19 3
37 8 40 4 2 27 0 52 -6 25 -5 56 -10 70 -11 17 -1 26 -10 30 -27 4 -19 14 -26
40 -31 19 -3 49 -13 67 -22 18 -9 39 -17 48 -17 14 0 21 -33 16 -83 -5 -45
147 12 180 68 30 50 39 58 55 44 10 -8 11 -16 4 -29 -15 -27 -13 -35 16 -69
l26 -31 -13 -152 c-6 -84 -15 -157 -19 -161 -4 -5 -30 3 -56 17 -27 14 -53 26
-58 26 -6 0 -21 11 -36 25 -17 17 -39 25 -70 27 l-45 3 -3 -52 c-2 -29 -9 -56
-17 -63 -19 -16 -19 -39 -1 -46 8 -3 20 -19 27 -36 10 -24 10 -31 -1 -38 -7
-4 -20 -6 -28 -3 -22 9 -5 -37 23 -62 31 -27 58 -72 51 -84 -3 -5 9 -29 28
-53 32 -39 126 -215 126 -233 0 -5 7 -16 16 -26 8 -9 22 -54 30 -100 14 -79
36 -125 56 -113 5 3 19 25 31 48 64 123 60 118 88 112 27 -5 59 18 59 42 0 7
11 22 25 33 19 18 24 31 23 68 -1 55 21 151 56 244 34 89 33 113 -4 145 -28
24 -30 32 -30 92 0 36 5 106 11 155 6 50 12 108 14 130 3 22 11 78 19 125 8
47 20 117 27 155 11 63 16 74 55 111 26 24 44 50 44 63 0 18 4 20 28 15 15 -3
39 -10 55 -16 15 -6 43 -8 62 -5 24 4 40 1 50 -9 10 -10 25 -13 49 -9 20 4 36
2 40 -4 4 -6 20 -11 37 -11 21 0 29 -5 29 -17 0 -10 3 -34 6 -54 5 -31 3 -37
-15 -42 -29 -7 -75 17 -89 48 -14 30 -37 32 -75 6 -41 -27 -97 -89 -97 -107 0
-14 -13 -33 -61 -92 -6 -7 -20 -10 -34 -6 -29 7 -58 -31 -59 -81 -1 -18 -7
-40 -15 -48 -10 -13 -10 -30 -1 -84 6 -37 15 -100 19 -138 4 -39 13 -80 20
-93 17 -32 47 -45 71 -32 17 9 20 21 20 83 0 124 17 125 96 5 26 -38 56 -73
68 -78 17 -6 26 -23 36 -65 10 -40 20 -60 36 -68 33 -17 74 -76 74 -105 0 -28
34 -87 54 -95 8 -3 17 -19 21 -35 3 -16 17 -40 31 -52 13 -13 24 -28 24 -34 0
-6 20 -38 44 -71 25 -32 57 -84 72 -114 15 -31 39 -70 54 -88 15 -17 36 -45
46 -62 14 -23 26 -31 46 -31 21 0 28 -5 28 -19 0 -11 -4 -23 -10 -26 -12 -8
29 -73 51 -80 9 -3 32 4 51 15 33 19 36 19 51 2 21 -23 10 -39 -28 -44 -42 -4
-44 -36 -6 -92 17 -25 31 -48 31 -51 0 -4 21 -35 46 -69 26 -33 49 -67 51 -74
3 -6 12 -12 19 -12 26 0 27 30 1 68 -28 40 -58 118 -49 127 16 15 32 0 39 -37
6 -28 15 -44 26 -46 12 -2 17 3 17 18 0 11 9 38 20 59 17 35 18 40 4 52 -12
10 -20 9 -40 -2 -22 -11 -27 -11 -34 1 -13 20 -12 37 0 45 6 3 10 21 10 39 0
26 7 39 34 60 19 14 38 26 41 26 4 0 4 -18 0 -40 -6 -33 -4 -40 9 -40 9 0 16
5 16 10 0 22 19 7 53 -42 64 -92 171 -198 198 -198 33 0 49 17 49 51 0 15 5
31 11 35 6 3 9 15 6 25 -3 10 2 24 10 31 12 10 22 8 54 -10 59 -34 104 -30
145 15 19 20 34 44 34 52 0 9 18 43 40 76 22 33 40 65 40 72 0 7 4 21 9 31 26
51 41 94 35 103 -3 5 1 21 10 34 9 13 16 42 16 63 0 30 -7 45 -34 71 -31 30
-33 35 -23 64 17 54 23 62 51 65 17 2 30 12 35 26 5 12 16 28 25 35 9 7 16 28
16 46 0 49 9 64 45 79 48 20 78 91 59 139 -3 8 -66 70 -140 138 -125 114 -134
125 -134 159 0 20 -6 45 -14 55 -18 25 -46 13 -46 -21 0 -24 -3 -25 -27 -19
-44 10 -53 26 -59 101 -8 100 -12 114 -33 114 -22 0 -31 -19 -31 -66 0 -19 -4
-34 -10 -34 -5 0 -10 17 -10 38 0 22 -6 59 -14 84 -8 27 -11 61 -7 84 7 42 15
38 25 -13 9 -39 32 -61 48 -45 8 8 8 23 -1 56 -11 46 -6 96 10 96 23 0 151
125 174 170 23 45 25 61 26 191 1 140 2 141 30 174 16 17 26 34 24 37 -3 2 -7
22 -10 44 -2 21 -10 51 -16 66 -9 21 -8 31 5 50 20 29 20 47 -1 70 -16 18 -16
19 5 25 26 6 28 16 7 33 -10 8 -12 17 -6 24 7 8 6 27 -1 55 -13 52 -11 55 98
111 128 65 138 79 109 159 -8 23 -16 75 -18 116 -2 41 -5 76 -8 78 -2 2 -21
14 -41 26 -33 20 -42 21 -73 11 -20 -7 -43 -9 -52 -6 -9 4 -40 -1 -70 -9 -39
-11 -53 -20 -51 -32 6 -30 -17 -23 -87 27 -46 33 -76 48 -88 44 -27 -8 -49 14
-37 36 15 28 13 36 -22 75 -25 26 -41 35 -65 35 -18 0 -33 4 -33 9 0 6 18 31
41 57 22 26 44 57 49 68 4 12 15 101 25 198 16 167 16 177 0 202 -15 22 -16
31 -6 52 6 14 11 40 11 59 0 19 4 36 9 39 4 3 11 34 14 69 3 34 13 83 21 107
12 35 14 81 11 210 -3 124 0 206 15 330 28 230 27 240 -14 289 -19 22 -36 44
-38 48 -1 5 -27 26 -55 48 -29 21 -56 48 -59 59 -8 24 -8 238 0 331 5 57 17
92 61 185 30 64 55 123 55 133 0 10 12 45 26 79 22 51 24 65 14 87 -13 30 -24
19 -41 -43 -13 -49 -103 -232 -125 -257 -25 -27 -29 -24 -47 30 -12 39 -14 63
-6 122 8 63 21 99 94 244 86 172 102 225 67 225 -13 0 -29 -22 -52 -70 -19
-39 -39 -69 -45 -67 -14 5 -11 165 5 208 7 18 14 61 16 94 3 58 2 60 -37 93
-23 20 -39 43 -39 55 0 31 -117 207 -137 207 -9 0 -42 24 -73 53 -141 130
-183 154 -233 132 -35 -15 -177 42 -237 95 -16 14 -46 59 -68 100 -21 41 -55
101 -75 132 -21 31 -37 61 -37 66 0 5 -7 15 -14 22 -8 6 -23 33 -32 58 -66
184 -75 201 -134 252 -32 27 -77 79 -100 115 -44 68 -71 81 -90 46z"/>
<path d="M9691 7794 c-19 -8 -41 -20 -49 -27 -8 -7 -40 -12 -71 -12 -31 -1
-71 -7 -88 -14 -29 -12 -35 -11 -63 9 -17 12 -37 19 -45 16 -21 -8 -30 -54
-16 -91 6 -17 11 -36 11 -42 0 -6 -29 -50 -66 -98 l-65 -86 49 -77 c27 -42 54
-77 58 -76 5 0 34 37 65 82 36 53 83 104 130 143 81 67 123 89 168 89 63 0 63
-7 1 -88 -76 -100 -112 -133 -162 -152 -30 -11 -44 -23 -51 -44 -5 -16 -21
-39 -34 -50 -28 -25 -44 -96 -21 -96 8 0 32 19 53 41 41 43 124 89 161 89 30
0 58 -34 51 -62 -4 -13 -47 -67 -96 -120 -59 -64 -93 -109 -100 -134 -9 -33
-7 -40 21 -75 38 -47 55 -49 90 -9 49 56 89 24 69 -55 -6 -24 -11 -59 -11 -78
0 -19 -7 -40 -15 -47 -11 -10 -21 -5 -51 24 -20 20 -39 36 -41 36 -2 0 -11
-16 -19 -36 -19 -46 -12 -78 24 -99 25 -16 46 -42 114 -148 49 -76 58 -205 59
-892 0 -351 -4 -623 -9 -655 -6 -31 -34 -102 -66 -164 -31 -60 -56 -118 -56
-130 0 -23 -10 -41 -70 -121 -37 -49 -38 -52 -50 -188 l-13 -137 23 -25 c15
-16 26 -43 30 -75 7 -58 -11 -164 -33 -188 -14 -15 -12 -21 11 -54 15 -20 45
-51 66 -68 l40 -31 29 33 c16 17 37 50 47 72 18 43 40 58 105 72 39 9 42 12
98 123 60 117 97 233 97 305 0 23 7 51 15 63 8 12 18 64 24 123 9 96 8 104
-11 130 -19 27 -19 29 -2 83 17 54 17 57 -1 77 -15 17 -16 23 -5 50 7 17 22
37 32 45 23 15 50 124 41 165 -3 18 2 31 16 44 28 26 26 50 -5 74 -28 20 -39
69 -51 242 -2 41 -10 81 -16 89 -6 7 -12 27 -13 45 -2 54 -24 346 -35 461 -7
72 -18 130 -34 170 -40 99 -66 177 -75 225 -5 25 -14 60 -20 78 -12 31 -10 35
36 90 74 88 155 162 177 162 29 0 97 72 97 104 0 22 9 31 62 56 34 17 74 41
88 53 35 32 94 51 119 38 16 -9 26 -4 60 29 23 22 41 47 41 55 0 8 16 32 35
52 61 64 57 106 -11 119 -19 3 -34 8 -34 11 0 12 25 51 50 78 33 36 44 85 25
111 -14 19 -40 24 -171 27 -81 3 -98 17 -90 75 5 38 2 49 -21 76 -14 17 -31
31 -37 32 -6 1 -28 9 -49 18 -56 24 -193 43 -215 29 -10 -6 -41 -14 -69 -18
-46 -6 -60 -3 -131 29 -90 41 -86 40 -131 20z"/>
<path d="M9960 3400 c-39 -9 -68 -39 -75 -79 -3 -14 -11 -41 -16 -60 -9 -28
-8 -37 8 -60 11 -14 22 -34 26 -43 3 -9 25 -27 48 -38 38 -20 46 -21 111 -9
60 11 73 17 98 48 16 19 35 47 43 63 18 37 11 88 -12 88 -10 0 -27 11 -39 25
-12 13 -34 28 -49 31 -15 4 -41 16 -58 26 -33 20 -34 20 -85 8z"/>
<path d="M10478 2640 c-42 -23 -68 -55 -68 -85 0 -12 -5 -26 -11 -32 -16 -16
-4 -53 29 -90 23 -24 35 -30 52 -26 44 12 150 138 150 178 0 9 -10 20 -22 25
-13 5 -36 18 -53 29 -36 25 -31 25 -77 1z"/>
</g>
</svg>
