<?xml version="1.0" encoding="UTF-8" standalone="no"?>
<svg
   xmlns:dc="http://purl.org/dc/elements/1.1/"
   xmlns:cc="http://creativecommons.org/ns#"
   xmlns:rdf="http://www.w3.org/1999/02/22-rdf-syntax-ns#"
   xmlns:svg="http://www.w3.org/2000/svg"
   xmlns="http://www.w3.org/2000/svg"
   xmlns:sodipodi="http://sodipodi.sourceforge.net/DTD/sodipodi-0.dtd"
   xmlns:inkscape="http://www.inkscape.org/namespaces/inkscape"
   id="svg"
   version="1.1"
   width="200"
   height="200"
   style="display:block"
   inkscape:version="0.91 r"
   sodipodi:docname="image2vector (1).svg">
  <metadata
     id="metadata10">
    <rdf:RDF>
      <cc:Work
         rdf:about="">
        <dc:format>image/svg+xml</dc:format>
        <dc:type
           rdf:resource="http://purl.org/dc/dcmitype/StillImage" />
        <dc:title></dc:title>
      </cc:Work>
    </rdf:RDF>
  </metadata>
  <defs
     id="defs8" />
  <sodipodi:namedview
     pagecolor="#ffffff"
     bordercolor="#666666"
     borderopacity="1"
     objecttolerance="10"
     gridtolerance="10"
     guidetolerance="10"
     inkscape:pageopacity="0"
     inkscape:pageshadow="2"
     inkscape:window-width="1366"
     inkscape:window-height="744"
     id="namedview6"
     showgrid="false"
     inkscape:zoom="1.888"
     inkscape:cx="103.96523"
     inkscape:cy="96.196261"
     inkscape:window-x="0"
     inkscape:window-y="24"
     inkscape:window-maximized="1"
     inkscape:current-layer="svg" />
  <g
     id="svgg"
     transform="matrix(0.53403711,0,0,0.53403711,-7.2061851,-7.3615941)">
    <path
       id="path0"
       d="m 226.5,15.876 c 0.385,0.1 1.015,0.1 1.4,0 0.385,-0.101 0.07,-0.183 -0.7,-0.183 -0.77,0 -1.085,0.082 -0.7,0.183 M 60.493,35.2 c 0,0.77 0.082,1.085 0.183,0.7 0.1,-0.385 0.1,-1.015 0,-1.4 -0.101,-0.385 -0.183,-0.07 -0.183,0.7 M 301.2,42.925 c 0,0.069 0.585,0.654 1.3,1.3 l 1.3,1.175 -1.175,-1.3 C 301.53,42.888 301.2,42.616 301.2,42.925 m -24.7,8.551 c 0.385,0.1 1.015,0.1 1.4,0 0.385,-0.101 0.07,-0.183 -0.7,-0.183 -0.77,0 -1.085,0.082 -0.7,0.183 m 14.7,-0.123 c 0,0.355 1.618,0.541 1.823,0.209 0.123,-0.199 -0.236,-0.362 -0.799,-0.362 -0.563,0 -1.024,0.069 -1.024,0.153 m 46.5,13.723 c 0.385,0.1 1.015,0.1 1.4,0 0.385,-0.101 0.07,-0.183 -0.7,-0.183 -0.77,0 -1.085,0.082 -0.7,0.183 m -73.4,4.813 c 0.715,0.089 1.885,0.089 2.6,0 0.715,-0.088 0.13,-0.161 -1.3,-0.161 -1.43,0 -2.015,0.073 -1.3,0.161 m 71.4,13.187 c 0.385,0.1 1.015,0.1 1.4,0 0.385,-0.101 0.07,-0.183 -0.7,-0.183 -0.77,0 -1.085,0.082 -0.7,0.183 m -5.599,5.124 c 0.004,0.88 0.086,1.193 0.182,0.695 0.096,-0.497 0.092,-1.217 -0.008,-1.6 -0.1,-0.382 -0.179,0.025 -0.174,0.905 m -120.214,11.809 c 0.708,0.742 1.355,1.269 1.438,1.17 0.083,-0.098 -0.496,-0.706 -1.287,-1.35 l -1.438,-1.171 1.287,1.351 M 153.9,145.893 c 0.935,0.084 2.465,0.084 3.4,0 0.935,-0.084 0.17,-0.153 -1.7,-0.153 -1.87,0 -2.635,0.069 -1.7,0.153 m 7.591,-0.004 c 0.71,0.088 1.97,0.09 2.8,0.003 0.83,-0.087 0.249,-0.159 -1.291,-0.161 -1.54,-0.002 -2.219,0.069 -1.509,0.158 m 128.45,22.612 c 0.202,0.202 0.792,0.3 1.313,0.218 0.801,-0.126 0.744,-0.182 -0.367,-0.367 -0.794,-0.131 -1.168,-0.073 -0.946,0.149 M 289.693,212 c 0,0.77 0.082,1.085 0.183,0.7 0.1,-0.385 0.1,-1.015 0,-1.4 -0.101,-0.385 -0.183,-0.07 -0.183,0.7 m 44.808,0.6 c 0.004,0.88 0.086,1.193 0.182,0.695 0.096,-0.497 0.092,-1.217 -0.008,-1.6 -0.1,-0.382 -0.179,0.025 -0.174,0.905 m -98.808,16.6 c 0,0.77 0.082,1.085 0.183,0.7 0.1,-0.385 0.1,-1.015 0,-1.4 -0.101,-0.385 -0.183,-0.07 -0.183,0.7 m 67.4,14.5 c 0.288,2.252 0.507,2.421 0.507,0.39 0,-0.903 -0.163,-1.743 -0.362,-1.866 -0.206,-0.128 -0.269,0.506 -0.145,1.476 m -71.784,35.1 c 0,0.99 0.078,1.395 0.173,0.9 0.096,-0.495 0.096,-1.305 0,-1.8 -0.095,-0.495 -0.173,-0.09 -0.173,0.9 m 22.405,58.6 c 0.003,1.1 0.081,1.503 0.173,0.895 0.092,-0.609 0.09,-1.509 -0.005,-2 -0.095,-0.492 -0.171,0.005 -0.168,1.105 m 22.387,8 c 0.004,0.88 0.086,1.193 0.182,0.695 0.096,-0.497 0.092,-1.217 -0.008,-1.6 -0.1,-0.382 -0.179,0.025 -0.174,0.905"
       inkscape:connector-curvature="0"
       style="fill:#000000;fill-rule:evenodd;stroke:none" />
    <path
       id="path1"
       d="m 251.21,14.658 c -1.645,0.326 -3.175,0.74 -3.4,0.919 -0.226,0.179 -1.623,0.452 -3.106,0.606 -1.482,0.154 -2.797,0.445 -2.922,0.646 -0.129,0.208 -2.804,0.288 -6.204,0.186 -5.813,-0.175 -6.943,0.04 -5.178,0.985 0.44,0.235 0.8,0.75 0.8,1.144 0,2.469 4.68,3.715 6.629,1.765 1.544,-1.544 2.65,-2.109 4.126,-2.109 1.321,0 3.245,-0.74 3.245,-1.249 0,-1.69 16.038,-2.549 17.762,-0.951 1.188,1.101 7.065,1.527 7.666,0.555 0.178,-0.288 0.96,-0.353 2.223,-0.186 2.265,0.3 2.473,-0.061 0.646,-1.124 -2.549,-1.485 -16.929,-2.25 -22.287,-1.187 m -25.61,2.319 c 0,1.161 0.043,1.173 2.125,0.595 1.954,-0.543 1.713,-1.335 -0.456,-1.495 -1.556,-0.115 -1.669,-0.054 -1.669,0.9 m 50,0.931 c 0,0.422 0.45,1.291 1,1.93 0.549,0.639 0.999,1.408 1,1.708 0,1.091 1.4,4.454 1.795,4.315 0.769,-0.27 0.029,-3.742 -1.369,-6.417 -1.102,-2.109 -2.426,-2.947 -2.426,-1.536 m -30.4,0.853 c 0,0.233 -0.495,0.541 -1.1,0.685 -0.605,0.144 -1.37,0.486 -1.7,0.761 -3.745,3.119 -11.946,2.701 -14.823,-0.755 -1.447,-1.739 -5.489,0.202 -5.063,2.431 0.117,0.612 0.032,2.103 -0.189,3.314 -0.221,1.212 -0.468,2.801 -0.549,3.532 -0.081,0.731 -0.52,1.933 -0.976,2.67 -0.502,0.813 -0.978,2.574 -1.209,4.471 -0.833,6.843 -1.474,8.169 -4.624,9.562 -2.022,0.894 -3.257,2.968 -1.767,2.968 0.22,0 0.4,0.692 0.4,1.538 0,1.632 0.92,2.862 2.14,2.862 0.372,0 0.882,0.45 1.133,1 0.25,0.55 0.693,1 0.984,1 1.647,0 1.005,3.332 -0.77,3.993 -1.644,0.613 -2.731,1.104 -3.487,1.575 -0.33,0.206 -0.87,0.484 -1.2,0.619 -1.29,0.526 -2.522,1.374 -3.817,2.629 l -1.351,1.31 -5.279,0.116 c -5.501,0.12 -5.938,0.264 -5.943,1.958 -0.003,1.245 1.923,5.088 3.115,6.217 0.591,0.559 1.659,1.868 2.373,2.909 0.714,1.041 1.794,2.08 2.4,2.31 0.606,0.229 1.462,0.753 1.902,1.164 0.44,0.411 1.3,0.936 1.91,1.167 0.611,0.232 1.228,0.739 1.371,1.127 0.399,1.081 0.933,1.292 3.319,1.314 1.21,0.011 2.65,0.278 3.2,0.592 0.55,0.314 1.81,0.58 2.8,0.589 5,0.049 5.916,0.365 6.653,2.295 0.732,1.917 1.979,3.716 2.576,3.716 0.612,0 0.422,-1.332 -0.429,-3 -0.752,-1.474 -1.077,-3.4 -0.574,-3.4 0.45,0 2.005,0.955 3.478,2.135 1.335,1.07 1.817,1.209 4.267,1.236 3.309,0.035 3.641,0.276 2.501,1.818 -1.546,2.091 -1.038,2.811 1.984,2.811 0.874,0 2.387,0.201 3.361,0.446 1.74,0.438 1.796,0.421 3.217,-1 0.795,-0.795 1.676,-1.446 1.957,-1.446 0.281,0 0.72,-0.251 0.975,-0.559 0.261,-0.315 0.828,-0.463 1.299,-0.34 0.534,0.14 0.97,-0.019 1.205,-0.441 0.204,-0.363 0.929,-0.949 1.612,-1.303 1.841,-0.951 2.854,-2.025 2.582,-2.735 C 254.933,84.28 254.914,84 255.022,84 c 0.109,0 0.369,0.45 0.578,1 0.209,0.55 0.655,1 0.99,1 0.336,0 0.61,0.27 0.61,0.6 0,0.33 0.27,0.6 0.6,0.6 0.33,0 0.603,-0.225 0.606,-0.5 0.005,-0.362 0.103,-0.347 0.356,0.052 0.414,0.654 2.404,-0.561 2.425,-1.481 0.026,-1.063 2.013,-2.318 2.013,-1.271 0,0.22 0.585,0.4 1.301,0.4 1.419,0 2.738,1.884 3.308,4.724 0.322,1.607 2.116,1.497 3.72,-0.228 0.963,-1.036 1.489,-0.883 1.736,0.504 0.214,1.203 1.844,1.161 4.135,-0.107 2.322,-1.286 2.349,-1.501 0.973,-7.767 -0.42,-1.911 -0.659,-3.997 -0.531,-4.637 l 0.233,-1.162 2.044,2.162 c 1.273,1.345 2.291,2.097 2.697,1.991 0.499,-0.131 0.61,0.051 0.471,0.775 -0.109,0.571 0.011,0.945 0.302,0.945 1.02,0 3.613,2.265 4.173,3.643 0.487,1.201 0.835,1.484 2.062,1.683 1.456,0.237 2.976,1.244 2.976,1.973 0,0.206 0.36,0.832 0.8,1.392 0.44,0.559 0.8,1.353 0.8,1.763 0,0.41 0.166,0.746 0.368,0.746 0.202,0 0.658,0.874 1.013,1.942 0.355,1.068 1.14,2.733 1.746,3.7 1.266,2.021 2.319,5.009 2.139,6.07 -0.067,0.399 0.221,1.308 0.64,2.019 0.42,0.711 0.886,1.782 1.036,2.381 0.402,1.602 1.858,1.514 1.858,-0.112 0,-0.953 0.173,-1.2 0.842,-1.2 0.464,0 1.525,0.54 2.358,1.2 1.844,1.461 2.025,1.465 5.838,0.148 3.576,-1.234 6.752,-1.15 8.619,0.231 0.611,0.451 1.283,0.821 1.494,0.821 0.211,0 0.978,0.63 1.705,1.4 0.726,0.77 1.483,1.4 1.682,1.4 0.515,0 3.575,3.547 4.117,4.772 0.25,0.565 0.674,1.607 0.943,2.315 0.863,2.273 4.838,2.31 6.441,0.059 0.473,-0.665 1.288,-1.637 1.811,-2.159 1.554,-1.555 1.247,-2.674 -1.332,-4.856 -1.255,-1.062 -2.575,-2.201 -2.933,-2.531 -2.293,-2.114 -3.74,-3.2 -4.262,-3.2 -0.783,0 -2.819,-1.459 -3.306,-2.369 -0.633,-1.182 1.288,-0.56 3.124,1.011 1.996,1.709 2.609,1.752 2.259,0.158 -0.388,-1.766 0.099,-1.462 0.592,0.371 0.416,1.545 2.355,3.629 3.376,3.629 0.279,0 1.031,0.465 1.67,1.033 0.639,0.567 1.882,1.507 2.762,2.087 0.88,0.58 2.884,2.006 4.453,3.167 1.569,1.162 2.999,2.113 3.178,2.113 0.179,0 0.787,0.443 1.352,0.983 0.564,0.541 2.486,1.697 4.269,2.569 3.079,1.504 3.318,1.718 4.715,4.216 1.377,2.463 2.585,3.57 2.048,1.878 -0.18,-0.567 0.005,-0.814 0.747,-1.001 1.876,-0.471 0.493,-10.512 -1.556,-11.298 -0.35,-0.134 -0.881,-0.718 -1.18,-1.297 -0.795,-1.537 -4.36,-5.192 -8.026,-8.228 -1.76,-1.458 -3.734,-3.094 -4.386,-3.636 -0.652,-0.542 -1.385,-0.986 -1.628,-0.986 -0.243,0 -1.059,-0.561 -1.814,-1.246 l -1.372,-1.246 4.871,0.28 c 5.949,0.341 9.002,-1.231 7.011,-3.608 -0.175,-0.209 -0.551,-1.1 -0.834,-1.98 -1.569,-4.866 -4.199,-7.8 -6.992,-7.8 -0.759,0 -1.731,-0.344 -2.256,-0.8 -0.507,-0.44 -1.233,-0.8 -1.612,-0.8 -0.38,0 -1.297,-0.247 -2.039,-0.548 -0.742,-0.301 -2.609,-0.686 -4.149,-0.854 -3.667,-0.4 -3.829,-0.401 -4.997,-0.013 -0.864,0.286 -0.929,0.249 -0.491,-0.279 0.278,-0.335 1.057,-0.72 1.73,-0.854 3.201,-0.641 3.791,-5.038 0.884,-6.587 -1.083,-0.577 -3.915,-0.606 -4.952,-0.051 -1.43,0.765 -1.127,6.532 0.39,7.428 1.225,0.724 1.251,0.807 2.001,6.358 0.422,3.125 0.749,4.2 1.278,4.2 0.196,0 0.357,0.45 0.357,1 0,0.593 -0.229,1 -0.563,1 -0.347,0 -0.489,-0.279 -0.372,-0.728 0.18,-0.686 -0.91,-2.019 -1.426,-1.746 -0.132,0.069 -0.799,0.02 -1.483,-0.108 -0.685,-0.128 -1.656,-0.081 -2.159,0.105 -0.722,0.267 -1.385,0.028 -3.156,-1.139 -1.232,-0.812 -2.757,-1.599 -3.388,-1.75 -2.37,-0.564 3.007,-0.987 6.947,-0.546 0.854,0.096 0.998,-0.048 0.984,-0.988 -0.008,-0.605 0.127,-1.1 0.3,-1.1 0.554,0 0.339,-1.92 -0.284,-2.543 -0.33,-0.33 -0.6,-0.773 -0.6,-0.986 0,-0.212 -0.315,-0.508 -0.7,-0.657 -0.667,-0.258 -0.667,-0.296 0,-0.787 0.992,-0.73 0.932,-3.578 -0.107,-5.037 -0.499,-0.7 -0.652,-1.23 -0.4,-1.386 0.224,-0.138 0.407,-0.628 0.407,-1.088 0,-0.81 -0.114,-0.826 -3.7,-0.525 -2.035,0.17 -4.15,0.303 -4.7,0.293 -0.55,-0.009 -1.9,0.212 -3,0.491 -1.1,0.279 -2.69,0.423 -3.533,0.319 -0.843,-0.104 -2.575,0.032 -3.848,0.302 -2.027,0.43 -2.441,0.408 -3.334,-0.177 -0.696,-0.456 -1.762,-0.649 -3.353,-0.608 -1.283,0.034 -4.025,-0.143 -6.094,-0.393 -2.399,-0.29 -3.901,-0.315 -4.145,-0.071 -0.792,0.792 0.192,1.141 3.963,1.406 2.135,0.15 5.066,0.574 6.513,0.942 l 2.631,0.67 -2,0.344 c -2.301,0.396 -13.592,0.236 -14.025,-0.199 -0.446,-0.449 0.626,-1.51 1.526,-1.51 1.17,0 0.772,-3.449 -0.518,-4.494 -0.493,-0.399 -0.826,-0.781 -0.74,-0.847 1.744,-1.351 3.16,-2.202 3.986,-2.396 0.566,-0.134 1.826,-0.835 2.8,-1.56 0.974,-0.724 2.635,-1.736 3.692,-2.248 1.056,-0.512 2.134,-1.274 2.396,-1.693 0.261,-0.419 0.65,-0.762 0.864,-0.762 1.411,0 6.31,-6.869 5.487,-7.692 -0.828,-0.828 -2.468,0.014 -2.468,1.266 0,1.185 -3.93,5.207 -5.1,5.22 -0.275,0.003 -0.5,0.276 -0.5,0.606 0,0.33 -0.264,0.6 -0.588,0.6 -0.323,0 -1.293,0.368 -2.156,0.818 -1.369,0.713 -2.041,0.788 -5.256,0.587 -4.197,-0.264 -5.2,-0.069 -5.2,1.009 0,0.525 -0.194,0.687 -0.624,0.521 -0.401,-0.154 -0.695,0.029 -0.825,0.513 -0.462,1.727 -5.025,4.533 -7.782,4.785 -1.413,0.129 -2.839,0.337 -3.169,0.461 -1.238,0.467 -3.439,0.382 -4.539,-0.177 -0.775,-0.393 -2.082,-0.536 -4.101,-0.447 -1.962,0.086 -2.962,-0.018 -2.961,-0.309 0.001,-0.54 1.371,-2.161 1.826,-2.161 0.182,0 0.791,-0.433 1.353,-0.963 0.562,-0.53 1.922,-1.452 3.022,-2.05 1.1,-0.599 2.372,-1.425 2.826,-1.837 0.454,-0.413 1.015,-0.75 1.246,-0.75 0.231,0 0.856,-0.343 1.389,-0.762 0.533,-0.419 1.745,-1.167 2.694,-1.662 1.236,-0.644 1.937,-1.364 2.467,-2.538 0.407,-0.901 1.053,-2.121 1.436,-2.712 0.871,-1.344 -0.398,-2.691 -2.558,-2.713 -1.155,-0.012 -1.3,-0.138 -1.3,-1.137 0,-1.175 -0.653,-2.282 -1.494,-2.53 -0.499,-0.147 1.678,-2.601 5.182,-5.839 l 1.832,-1.693 0.641,3.493 c 0.352,1.921 0.643,4.033 0.646,4.693 0.011,2.392 2.164,3.221 7.354,2.831 2.515,-0.189 3.104,-0.136 2.724,0.244 -1.682,1.682 -0.348,2.245 2.69,1.134 1.242,-0.454 2.348,-0.647 2.595,-0.454 0.556,0.436 6.158,-0.182 7.33,-0.809 1.148,-0.614 1.132,-1.093 -0.1,-2.908 -0.55,-0.81 -1,-1.699 -1,-1.974 0,-0.78 -6.013,-6.567 -7.8,-7.507 -0.88,-0.463 -1.96,-1.154 -2.4,-1.536 -0.44,-0.383 -1.97,-1.112 -3.4,-1.622 -1.43,-0.51 -2.902,-1.184 -3.271,-1.498 -0.475,-0.405 -1.438,-0.532 -3.3,-0.436 l -2.631,0.135 10e-4,-1.329 c 0.001,-0.73 -0.269,-1.598 -0.599,-1.928 -0.33,-0.33 -0.6,-1.217 -0.6,-1.972 0,-1.196 -0.128,-1.371 -1,-1.371 -0.55,0 -1,-0.155 -1,-0.345 0,-0.19 -0.54,-1.024 -1.2,-1.855 -0.66,-0.831 -1.2,-1.902 -1.2,-2.38 0,-1.899 -1.878,-2.944 -5.8,-3.228 -1.98,-0.143 -4.224,-0.452 -4.987,-0.686 -0.769,-0.236 -3.534,-0.369 -6.2,-0.3 -7.509,0.197 -11.102,0.147 -12.513,-0.174 -0.835,-0.19 -1.3,-0.144 -1.3,0.129 M 62.71,28.9 c -0.935,0.728 -1.91,4.006 -1.91,6.425 0,2.346 -1.583,4.675 -3.177,4.675 -1.074,0 -1.055,0.992 0.035,1.755 0.854,0.599 0.853,0.602 -0.3,0.878 -1.663,0.398 -2.097,0.853 -2.592,2.714 -0.529,1.987 -1.403,3.053 -2.502,3.053 -0.446,0 -1.543,0.346 -2.438,0.768 -2.14,1.011 -8.357,2.032 -12.375,2.032 -2.802,0 -3.398,0.131 -4.707,1.039 -1.331,0.922 -1.587,0.976 -2.295,0.48 -0.963,-0.674 -0.675,-1.192 1.051,-1.89 1.353,-0.547 1.74,-1.229 0.699,-1.229 -0.703,0 -3.024,1.193 -3.938,2.024 -0.348,0.317 -0.927,0.825 -1.287,1.129 -1.397,1.182 0.349,4.547 2.619,5.045 0.601,0.132 2.922,-0.132 5.159,-0.588 2.944,-0.6 4.277,-0.716 4.83,-0.419 0.421,0.225 1.528,0.409 2.46,0.409 1.002,0 1.988,0.265 2.412,0.649 1.014,0.918 2.099,0.415 1.787,-0.828 -0.226,-0.902 -0.108,-0.991 1.658,-1.247 1.045,-0.151 2.124,-0.452 2.396,-0.67 1.231,-0.98 0.865,0.895 -0.456,2.337 -0.999,1.09 -1.355,1.804 -1.224,2.449 0.102,0.5 0.271,1.329 0.375,1.841 0.261,1.275 1.997,3.069 2.97,3.069 0.439,0 1.284,0.45 1.878,1 1.224,1.134 2.562,1.321 2.562,0.357 0,-0.422 0.218,-0.559 0.633,-0.4 0.348,0.134 0.843,0.249 1.1,0.256 0.257,0.007 0.114,0.279 -0.317,0.605 -0.928,0.702 0.206,2.258 1.727,2.37 0.435,0.032 1.03,0.254 1.324,0.492 0.303,0.246 3.201,0.522 6.733,0.64 8.027,0.268 11.164,1.342 11.213,3.838 0.016,0.821 1.351,1.78 3.387,2.433 1.848,0.593 2.678,1.159 2.387,1.63 -0.112,0.181 0.041,0.476 0.341,0.654 0.299,0.179 1.022,1.149 1.605,2.156 0.584,1.007 1.598,2.357 2.253,3 0.656,0.643 1.197,1.58 1.203,2.082 0.006,0.501 0.265,1.009 0.575,1.128 0.31,0.12 0.684,0.699 0.83,1.288 0.344,1.381 2.796,4.627 5.374,7.115 1.115,1.076 2.029,2.181 2.03,2.456 0.001,0.275 0.227,0.501 0.502,0.503 0.275,0.002 0.903,0.709 1.396,1.572 0.492,0.862 1.257,1.683 1.7,1.824 0.442,0.14 0.804,0.523 0.804,0.851 0,0.327 0.519,1.08 1.154,1.673 0.635,0.592 1.277,1.482 1.427,1.977 0.15,0.495 0.516,0.9 0.813,0.9 0.296,0 0.599,0.141 0.673,0.314 0.611,1.439 5.65,5.286 6.923,5.286 0.775,0 1.41,0.162 1.41,0.36 0,0.539 6.863,7.206 7.687,7.468 0.392,0.124 0.713,0.475 0.713,0.78 0,0.305 0.63,0.853 1.4,1.219 1.499,0.711 1.648,0.965 0.964,1.649 -0.846,0.846 0.055,7.63 1.094,8.244 0.298,0.176 0.542,0.616 0.542,0.978 0,0.989 1.878,3.503 3.093,4.141 1.212,0.636 4.507,3.802 4.507,4.33 0,0.191 0.8,1.194 1.778,2.23 l 1.778,1.882 2.122,-0.278 c 2.576,-0.338 3.512,-1.161 3.805,-3.344 0.202,-1.506 0.142,-1.659 -0.649,-1.659 -0.733,0 -0.408,-0.535 2.047,-3.369 2.951,-3.405 4.011,-3.98 4.25,-2.302 0.072,0.506 0.386,1.018 0.697,1.137 0.375,0.144 0.485,0.543 0.324,1.181 -0.133,0.53 -0.032,1.216 0.224,1.524 0.363,0.437 0.297,0.721 -0.301,1.294 -0.459,0.44 -0.872,1.566 -1.031,2.805 -0.334,2.622 -0.548,2.551 7.813,2.576 9.436,0.027 11.796,1.158 11.045,5.293 -0.206,1.133 -0.274,2.676 -0.152,3.43 0.222,1.366 -0.244,4.314 -0.921,5.831 -1.586,3.553 -2.196,4.7 -2.312,4.35 -0.075,-0.224 0.318,-1.435 0.873,-2.69 1.848,-4.179 1.111,-5.385 -1.81,-2.96 -1.141,0.948 -1.568,1.608 -1.573,2.436 -0.005,0.814 -0.516,1.63 -1.807,2.885 -0.99,0.962 -1.8,1.896 -1.8,2.076 0,0.662 -2.987,3.375 -4.544,4.127 -2.124,1.026 -2.656,0.981 -2.656,-0.224 0,-0.62 -0.227,-1 -0.597,-1 -0.459,0 -0.575,0.439 -0.5,1.9 l 0.097,1.9 -2,0.134 c -3.411,0.229 -11.775,-1.828 -12.933,-3.181 -0.355,-0.414 -0.781,-0.753 -0.948,-0.753 -0.166,0 -1.063,-0.825 -1.993,-1.834 -3.751,-4.069 -5.842,-4.038 -8.915,0.134 -1.095,1.485 -2.445,3.26 -3,3.945 -0.556,0.684 -1.82,2.28 -2.808,3.547 -0.989,1.266 -2.204,2.456 -2.7,2.645 -0.497,0.189 -0.905,0.573 -0.908,0.853 -0.003,0.281 -0.986,1.41 -2.185,2.51 -1.198,1.1 -4.86,4.61 -8.136,7.8 -3.277,3.19 -8.684,8.443 -12.016,11.674 l -6.058,5.874 -0.064,2.326 c -0.04,1.457 -0.125,1.832 -0.227,1.003 -0.191,-1.553 -0.754,-1.868 -2.291,-1.284 -1.017,0.387 -1.098,0.56 -0.882,1.889 0.329,2.029 1.212,2.868 2.301,2.188 0.75,-0.469 0.813,-0.432 0.694,0.407 -0.086,0.605 -0.445,0.968 -1.041,1.052 -0.5,0.071 -1.208,0.611 -1.572,1.2 -0.921,1.49 -1.713,2.071 -2.822,2.071 -0.913,0 -0.947,0.104 -0.858,2.572 l 0.093,2.572 -1.965,1.908 c -1.081,1.049 -2.151,2.277 -2.376,2.728 -0.671,1.342 -2.085,1.269 -2.892,-0.149 -1.339,-2.352 -2.783,-1.39 -2.974,1.981 L 70.2,231 l -1.733,0.125 c -1.447,0.104 -1.688,0.236 -1.455,0.8 0.755,1.828 0.706,2.075 -0.404,2.075 -0.596,0 -1.562,0.331 -2.146,0.735 -0.584,0.404 -1.396,0.856 -1.804,1.003 -0.468,0.17 -0.652,0.5 -0.5,0.898 0.133,0.346 0.242,0.968 0.242,1.383 0,1.286 1.431,1.736 3.231,1.015 1.557,-0.623 2.226,-0.214 0.853,0.521 -0.394,0.211 -0.979,0.892 -1.3,1.514 -0.321,0.622 -0.895,1.476 -1.276,1.897 -2.794,3.097 -3.556,5.904 -1.204,4.437 0.603,-0.376 1.366,-0.987 1.696,-1.357 0.33,-0.37 1.167,-0.906 1.86,-1.192 0.694,-0.285 1.67,-0.954 2.17,-1.486 0.5,-0.532 1.058,-0.968 1.239,-0.968 0.181,0 1.185,-0.593 2.23,-1.319 1.046,-0.725 2.427,-1.58 3.069,-1.9 0.642,-0.319 1.872,-1.256 2.733,-2.081 0.86,-0.825 1.652,-1.5 1.76,-1.5 0.107,0 0.98,-0.54 1.939,-1.2 0.959,-0.66 1.9,-1.2 2.091,-1.2 0.191,0 1.058,-0.735 1.928,-1.633 2.685,-2.773 7.785,-6.461 9.022,-6.523 0.622,-0.031 1.354,-0.279 1.625,-0.55 0.272,-0.272 0.908,-0.494 1.414,-0.494 0.506,0 0.92,-0.161 0.92,-0.357 0,-0.885 1.365,-0.706 3.623,0.475 l 2.451,1.282 -0.182,2.6 c -0.139,1.996 -0.478,3.1 -1.458,4.754 -1.823,3.076 -1.615,4.246 0.756,4.246 2.219,0 2.518,0.787 1.038,2.728 -0.566,0.741 -1.028,1.626 -1.028,1.967 0,0.341 -0.266,0.721 -0.59,0.846 -0.325,0.125 -0.975,1.044 -1.444,2.043 -0.47,0.999 -1.001,1.816 -1.181,1.816 -0.719,0 -1.585,1.322 -1.585,2.421 0,0.646 -0.622,2.136 -1.4,3.352 -0.77,1.204 -1.4,2.31 -1.4,2.457 0,0.148 -0.723,1.351 -1.606,2.674 -0.883,1.323 -1.704,2.876 -1.824,3.451 -0.119,0.575 -0.582,2.485 -1.028,4.245 -0.446,1.76 -0.988,3.92 -1.204,4.8 -0.216,0.88 -0.584,1.95 -0.818,2.378 -0.233,0.429 -0.514,1.897 -0.624,3.263 l -0.2,2.484 2.711,0.291 c 3.06,0.327 9.86,-0.077 10.186,-0.605 0.118,-0.191 1.113,-0.801 2.211,-1.356 1.098,-0.554 2.616,-1.469 3.374,-2.032 1.676,-1.245 2.822,-1.336 2.822,-0.223 0,1.096 0.527,1.004 2.011,-0.351 2.435,-2.224 9.745,-2.15 8.182,0.083 -0.326,0.465 -0.593,1.172 -0.593,1.57 0,0.398 -0.27,0.827 -0.6,0.953 -0.342,0.132 -0.6,0.728 -0.6,1.388 0,0.976 -0.161,1.157 -1.028,1.157 -1.368,0 -1.253,1.732 0.128,1.928 0.733,0.104 0.9,-0.063 0.9,-0.9 0,-0.878 0.177,-1.028 1.214,-1.028 l 1.215,0 -1.015,1.493 c -1.743,2.565 -1.355,3.478 0.896,2.106 0.72,-0.44 1.539,-0.799 1.82,-0.799 0.28,0 0.735,-0.225 1.01,-0.5 0.275,-0.275 0.626,-0.513 0.78,-0.529 0.648,-0.066 2.48,-1.126 2.48,-1.435 0,-0.185 0.328,-0.336 0.73,-0.336 0.401,0 1.615,-0.63 2.698,-1.4 1.083,-0.77 2.219,-1.4 2.523,-1.4 0.304,0 1.43,-0.63 2.502,-1.4 1.072,-0.77 2.205,-1.4 2.518,-1.4 0.949,0 7.709,-3.52 9.114,-4.745 0.723,-0.631 1.734,-1.278 2.245,-1.438 1.536,-0.479 6.929,-3.007 8.037,-3.766 0.568,-0.389 1.858,-1.013 2.865,-1.387 1.008,-0.373 2.227,-1.046 2.71,-1.496 0.772,-0.719 3.462,-1.648 6.434,-2.223 0.537,-0.103 1.797,-0.524 2.8,-0.933 1.003,-0.41 2.364,-0.859 3.024,-0.998 0.66,-0.139 2.541,-0.804 4.18,-1.478 1.639,-0.674 3.529,-1.267 4.2,-1.318 0.671,-0.051 3.02,-0.579 5.22,-1.172 2.2,-0.593 5.35,-1.258 7,-1.476 1.65,-0.219 4.132,-0.672 5.515,-1.006 3.576,-0.866 4.461,-0.374 4.48,2.489 0.005,0.866 0.926,1.33 2.656,1.342 0.468,0.003 1.091,0.294 1.384,0.647 0.292,0.353 0.9,0.802 1.349,0.999 1.677,0.734 5.751,3.828 7.697,5.846 1.344,1.394 2.429,1.2 2.746,-0.491 0.145,-0.773 0.423,-1.503 0.618,-1.624 0.195,-0.121 0.355,-0.671 0.355,-1.224 0,-1.307 1.07,-2.438 1.706,-1.802 1.056,1.056 3.894,0.554 3.894,-0.69 0,-0.758 0.472,-1.645 1.4,-2.629 0.77,-0.816 1.4,-1.744 1.4,-2.063 0,-0.318 0.466,-1.471 1.036,-2.561 0.57,-1.09 1.281,-3.291 1.58,-4.892 l 0.543,-2.911 -0.048,2.6 c -0.03,1.641 0.199,3.171 0.621,4.149 0.367,0.852 0.654,1.842 0.636,2.2 -0.02,0.414 -0.104,0.469 -0.233,0.151 -0.303,-0.751 -1.33,-0.601 -1.367,0.2 -0.018,0.418 -0.112,0.499 -0.233,0.2 -0.383,-0.95 -1.645,-0.534 -2.069,0.682 -0.68,1.952 -0.128,5.798 0.723,5.028 0.84,-0.76 2.011,-0.794 2.011,-0.059 0,0.303 -0.399,0.817 -0.888,1.141 -0.754,0.501 -0.822,0.733 -0.456,1.549 0.672,1.496 -0.758,4.121 -2.651,4.864 -2.306,0.906 -3.817,6.124 -2.137,7.382 0.578,0.433 0.532,0.533 -0.409,0.89 -1.429,0.544 -1.472,2.023 -0.059,2.023 0.769,0 1.001,-0.208 1.004,-0.9 0.004,-0.783 0.23,-0.655 1.748,0.99 l 1.743,1.89 -0.201,2.8 c -0.191,2.669 -0.146,2.856 0.953,3.99 2.172,2.24 2.754,3.031 3.638,4.936 0.486,1.049 1.147,2.008 1.469,2.132 0.977,0.374 1.138,1.371 0.199,1.228 -0.45,-0.069 -0.939,-0.296 -1.086,-0.505 -0.409,-0.581 -4.719,-4.161 -5.009,-4.161 -0.141,0 -1.159,-0.649 -2.263,-1.442 -1.923,-1.381 -3.995,-1.683 -3.995,-0.581 0,0.199 -0.649,1.212 -1.442,2.25 -0.792,1.039 -1.488,2.317 -1.546,2.84 -0.057,0.523 -0.368,1.262 -0.692,1.642 -1.608,1.89 -2.391,4.265 -2.469,7.481 -0.078,3.263 -0.909,5.365 -2.132,5.397 -0.499,0.013 -1.313,2.39 -1.317,3.846 -0.001,0.459 -0.137,0.968 -0.302,1.131 -0.378,0.375 -1.343,9.506 -1.4,13.236 -0.112,7.399 2.887,11.557 4.471,6.2 0.293,-0.99 0.704,-3.06 0.913,-4.6 0.209,-1.54 0.475,-3.477 0.59,-4.305 0.149,-1.064 -0.003,-1.827 -0.517,-2.6 -0.401,-0.602 -0.68,-1.401 -0.621,-1.776 0.059,-0.374 -0.153,-1.094 -0.472,-1.6 -0.408,-0.647 -0.518,-1.599 -0.372,-3.219 0.215,-2.392 0.661,-2.946 1.124,-1.4 0.323,1.081 3.749,4.7 4.449,4.7 0.272,0 1.332,0.585 2.356,1.3 1.023,0.715 2.067,1.429 2.32,1.587 0.899,0.563 5.833,2.713 6.223,2.713 2.431,0 3.086,2.467 1.802,6.791 -0.349,1.175 -0.549,2.584 -0.445,3.13 0.105,0.547 -0.052,1.574 -0.348,2.282 -1.334,3.192 1.509,6.989 3.516,4.697 1.141,-1.302 2.982,-5.888 3.235,-8.055 0.138,-1.185 0.527,-2.459 0.864,-2.831 0.336,-0.373 0.612,-1.248 0.612,-1.945 0,-1.839 4.614,-1.77 4.878,0.073 0.069,0.477 0.473,0.913 0.922,0.995 2.928,0.53 4.556,1.714 4.679,3.403 0.145,1.994 1.988,2.593 3.457,1.124 0.43,-0.43 1.328,-0.902 1.996,-1.049 1.34,-0.294 1.909,-0.825 2.125,-1.982 0.079,-0.422 0.344,-0.834 0.591,-0.916 0.285,-0.095 0.375,0.231 0.247,0.898 -0.133,0.693 0.097,1.449 0.682,2.239 0.869,1.175 0.874,1.269 0.375,6.369 -0.477,4.882 -0.923,6.119 -1.733,4.808 -0.125,-0.203 -0.738,-0.481 -1.362,-0.618 -0.623,-0.137 -1.527,-0.781 -2.007,-1.431 -0.764,-1.034 -1.124,-1.182 -2.862,-1.182 l -1.988,0 0,1.805 c 0,0.993 -0.209,2.14 -0.464,2.549 -0.364,0.582 -0.321,1.1 0.197,2.394 0.595,1.488 0.598,1.652 0.032,1.652 -1.005,0 -0.277,2.357 1.081,3.5 0.635,0.534 1.154,1.288 1.154,1.676 0,1.4 0.859,3.123 1.763,3.534 0.65,0.296 0.998,0.883 1.173,1.979 0.145,0.905 0.671,1.954 1.256,2.504 0.555,0.521 1.008,1.233 1.008,1.583 0,0.35 0.36,1.308 0.8,2.128 0.486,0.907 0.8,2.257 0.8,3.441 0,4.704 3.713,5.176 4.634,0.589 0.341,-1.696 1.033,-2.393 2.348,-2.362 0.846,0.02 1.313,-0.232 1.644,-0.887 0.255,-0.504 0.739,-1.134 1.075,-1.4 0.409,-0.324 0.675,-1.435 0.8,-3.345 0.136,-2.09 0.525,-3.584 1.443,-5.545 1.572,-3.36 1.792,-7.268 0.456,-8.102 -0.934,-0.584 -1.043,-3.081 -0.351,-8.093 0.228,-1.65 0.489,-3.54 0.58,-4.2 0.091,-0.66 0.35,-3.09 0.575,-5.4 0.67,-6.878 0.734,-7.112 2.281,-8.292 0.766,-0.585 1.559,-1.498 1.761,-2.03 0.298,-0.783 0.538,-0.909 1.261,-0.659 0.491,0.17 1.786,0.348 2.877,0.397 1.091,0.048 2.051,0.289 2.133,0.536 0.082,0.246 0.742,0.448 1.466,0.448 2.452,0 3.729,0.437 3.927,1.342 0.103,0.472 0.32,1.173 0.481,1.558 0.536,1.273 -1.635,0.878 -2.64,-0.481 -1.073,-1.451 -1.677,-1.703 -2.934,-1.225 -1.251,0.475 -4.601,3.766 -4.667,4.583 -0.165,2.054 -0.989,3.023 -2.57,3.023 -1.564,0 -3.168,1.92 -2.811,3.365 0.105,0.42 0.02,1.082 -0.188,1.47 -0.815,1.524 0.601,10.694 1.854,12.002 2.093,2.185 3.365,1.044 3.365,-3.017 0,-3.194 0.22,-3.144 2.879,0.646 0.9,1.284 1.856,2.334 2.125,2.334 0.439,0 1.79,2.86 1.8,3.813 0.003,0.213 0.624,0.988 1.38,1.724 0.77,0.748 1.665,2.207 2.033,3.315 0.379,1.141 1.065,2.245 1.62,2.609 0.53,0.347 0.963,0.875 0.963,1.173 0,0.297 0.855,1.825 1.9,3.395 1.045,1.57 2.229,3.492 2.631,4.273 0.403,0.78 0.988,1.674 1.3,1.987 0.313,0.312 0.569,0.718 0.569,0.902 0,0.183 0.631,1.115 1.403,2.071 0.771,0.956 1.545,1.918 1.72,2.138 0.175,0.22 0.438,0.715 0.585,1.1 0.157,0.412 0.684,0.7 1.279,0.7 0.995,0 1.41,0.601 0.602,0.87 -0.255,0.085 -0.14,0.784 0.3,1.83 0.771,1.834 1.566,2.113 3.503,1.231 0.788,-0.359 1.14,-0.359 1.499,0 0.359,0.359 0.27,0.469 -0.378,0.469 -1.538,0 -2.113,0.447 -2.113,1.643 0,0.636 0.18,1.157 0.4,1.157 0.22,0 0.4,0.178 0.4,0.397 0,0.218 0.625,1.215 1.389,2.216 0.764,1 1.676,2.425 2.028,3.167 0.824,1.736 1.989,2.78 2.768,2.481 0.778,-0.299 0.789,-1.435 0.023,-2.528 -0.539,-0.769 -0.521,-0.862 0.2,-1.051 0.439,-0.115 0.792,-0.546 0.792,-0.968 0,-0.419 0.264,-1.11 0.587,-1.538 1.388,-1.835 0.291,-4.117 -1.455,-3.026 -1,0.624 -0.625,-3.444 0.39,-4.25 0.936,-0.742 1.086,-0.631 1.082,0.8 -0.003,1.11 0.143,1.306 0.996,1.343 1.823,0.079 1.935,0.148 2.379,1.457 0.243,0.715 1.024,1.731 1.734,2.258 0.711,0.526 1.922,1.747 2.69,2.713 2.191,2.754 3.574,2.421 4.448,-1.071 0.681,-2.719 1.283,-3.123 2.637,-1.769 1.569,1.569 6.112,-0.325 6.112,-2.548 0,-0.347 0.327,-1.003 0.726,-1.457 0.399,-0.454 1.062,-1.636 1.472,-2.626 0.411,-0.99 0.939,-1.98 1.174,-2.2 1.503,-1.406 2.264,-7.995 1.143,-9.895 -1.113,-1.887 -0.809,-4.305 0.541,-4.305 0.561,0 1.075,-0.295 1.221,-0.7 0.138,-0.385 0.582,-1.022 0.987,-1.416 0.436,-0.424 0.736,-1.281 0.736,-2.105 0,-1.127 0.236,-1.534 1.245,-2.148 1.114,-0.677 1.707,-1.404 2.606,-3.193 0.514,-1.024 -1.495,-3.97 -4.301,-6.308 -1.513,-1.26 -2.75,-2.441 -2.75,-2.624 0,-0.183 -0.63,-0.705 -1.4,-1.159 -1.226,-0.723 -1.4,-1.023 -1.4,-2.413 0,-0.873 -0.18,-1.924 -0.401,-2.336 -0.268,-0.501 -0.268,-0.832 0,-0.997 0.621,-0.384 0.526,-9.003 -0.099,-8.995 -1.298,0.016 -1.507,0.684 -1.603,5.115 -0.053,2.459 -0.232,4.473 -0.397,4.475 -0.165,0.002 -0.3,0.454 -0.3,1.004 0,3.257 -2.48,0.026 -2.708,-3.529 -0.207,-3.231 -1.731,-4.69 -2.269,-2.171 -0.105,0.495 -0.268,1.26 -0.361,1.7 -0.093,0.44 -0.19,0.06 -0.216,-0.844 -0.025,-0.904 -0.115,-2.434 -0.2,-3.4 -0.102,-1.165 -0.068,-1.352 0.1,-0.556 0.574,2.715 2.27,1.61 2.149,-1.4 l -0.104,-2.6 1.87,-1.4 c 4.15,-3.107 5.685,-5.777 5.693,-9.904 0.002,-1.378 0.121,-2.694 0.264,-2.925 0.142,-0.23 0.04,-0.948 -0.228,-1.594 -0.436,-1.054 -0.378,-1.317 0.562,-2.549 1.149,-1.507 1.458,-4.715 0.607,-6.305 -0.318,-0.593 -0.319,-0.9 -0.006,-1.094 0.283,-0.175 0.402,-1.932 0.341,-5.026 l -0.094,-4.758 1.319,-0.77 c 1.744,-1.019 1.86,-0.791 1.011,1.982 -0.806,2.629 -0.784,3.769 0.081,4.253 0.324,0.181 0.589,0.546 0.589,0.811 0,2.19 6.047,2.686 9.46,0.775 3.088,-1.729 1.508,-8.496 -1.984,-8.496 -0.494,0 -1.314,-0.291 -1.821,-0.647 -0.634,-0.444 -1.373,-0.574 -2.358,-0.414 l -1.435,0.233 0.969,-0.67 c 2.279,-1.575 2.362,-1.911 1.148,-4.656 -0.518,-1.172 -0.825,-2.727 -0.832,-4.218 -0.018,-3.757 -0.315,-3.914 -7.047,-3.714 -2.237,0.066 -3.074,0.26 -3.66,0.846 -0.876,0.876 -1.964,0.325 -1.114,-0.565 0.804,-0.842 1.587,-2.082 2.448,-3.876 0.782,-1.628 0.932,-1.73 2.826,-1.919 l 2,-0.2 1.957,-4 c 1.848,-3.777 3.14,-7.581 3.802,-11.2 0.162,-0.88 0.491,-1.964 0.732,-2.408 0.598,-1.102 0.784,-8.186 0.241,-9.192 -0.249,-0.461 -0.295,-1.139 -0.11,-1.6 0.475,-1.18 0.442,-3.576 -0.055,-4.073 -0.426,-0.426 -0.102,-1.314 1.068,-2.927 0.645,-0.89 1.397,-4.864 1.116,-5.9 -0.174,-0.642 -0.072,-0.9 0.356,-0.9 0.555,0 1.075,-1.103 1.088,-2.31 0.003,-0.28 -0.427,-0.674 -0.956,-0.875 -1.101,-0.419 -1.3,-1.244 -1.855,-7.685 -0.196,-2.272 -0.44,-4.85 -0.542,-5.73 -0.103,-0.88 -0.297,-2.86 -0.433,-4.4 -0.607,-6.882 -2.212,-17.431 -2.791,-18.345 -0.298,-0.47 -0.661,-1.603 -0.808,-2.518 -0.148,-0.915 -0.519,-1.995 -0.826,-2.4 -0.307,-0.405 -0.564,-1.209 -0.571,-1.787 -0.007,-0.577 -0.275,-1.792 -0.595,-2.7 -0.443,-1.255 -0.465,-1.65 -0.091,-1.65 0.27,0 0.811,-0.585 1.202,-1.3 1.431,-2.617 4.477,-5.32 6.271,-5.564 0.55,-0.075 1.165,-0.511 1.366,-0.97 0.202,-0.458 0.742,-0.998 1.2,-1.2 0.533,-0.234 0.877,-0.808 0.954,-1.591 0.122,-1.253 1.684,-2.575 3.042,-2.575 0.351,0 0.638,-0.151 0.638,-0.335 0,-0.763 4.378,-2.505 5.195,-2.068 0.649,0.348 0.95,0.242 1.671,-0.586 0.483,-0.556 1.096,-1.011 1.363,-1.011 0.266,0 0.604,-0.479 0.751,-1.064 0.147,-0.585 0.797,-1.706 1.444,-2.491 1.645,-1.997 1.635,-3.927 -0.024,-4.505 -0.66,-0.23 -1.2,-0.482 -1.2,-0.56 0,-0.668 1.069,-2.211 1.661,-2.399 2.251,-0.715 0.625,-4.941 -1.912,-4.97 -5.587,-0.063 -7.099,-0.683 -6.774,-2.78 0.585,-3.767 -5.828,-6.343 -13.013,-5.225 -2.981,0.464 -3.206,0.443 -5.041,-0.459 -2.38,-1.171 -5.318,-1.235 -6.524,-0.144 -0.598,0.541 -1.332,0.719 -2.675,0.649 -1.018,-0.052 -2.352,0.112 -2.963,0.365 -0.906,0.375 -1.282,0.342 -2.025,-0.178 -2.362,-1.654 -4.948,1.49 -2.905,3.533 0.572,0.571 0.553,0.724 -0.2,1.682 -0.456,0.58 -0.829,1.236 -0.829,1.458 0,0.223 -0.795,1.255 -1.767,2.294 l -1.767,1.889 -1.304,-0.632 c -0.717,-0.347 -1.876,-1.203 -2.574,-1.902 -0.698,-0.698 -1.628,-1.383 -2.065,-1.522 -0.437,-0.139 -1.033,-0.696 -1.323,-1.239 -0.655,-1.225 -1.114,-1.372 -4.825,-1.546 -3.91,-0.184 -7.851,-2.462 -9.367,-5.413 -0.52,-1.013 -1.409,-2.461 -1.976,-3.219 -0.568,-0.757 -1.032,-1.587 -1.032,-1.842 0,-0.256 -0.586,-1.256 -1.303,-2.222 -1.366,-1.843 -1.705,-2.597 -3.452,-7.676 -0.957,-2.78 -1.342,-3.357 -3.553,-5.326 -1.364,-1.215 -2.76,-2.801 -3.104,-3.524 -1.654,-3.486 -3.829,-2.83 -4.343,1.308 -0.543,4.366 -0.844,3.434 -0.854,-2.641 -0.009,-5.531 -1.292,-12.899 -2.246,-12.899 -1.085,0 -6.061,3.027 -8.11,4.934 -2.487,2.314 -3.34,2.853 -5.128,3.241 -0.652,0.141 -1.331,0.698 -1.685,1.382 -0.326,0.63 -0.869,1.252 -1.207,1.382 -0.338,0.13 -0.615,0.498 -0.615,0.819 0,0.722 -1.18,1.014 -2.04,0.504 -0.442,-0.262 -1.064,-0.168 -2,0.301 -1.24,0.622 -3.771,0.806 -7.16,0.521 -0.837,-0.07 -0.983,0.072 -0.894,0.875 0.075,0.679 -0.322,1.34 -1.354,2.259 -1.6,1.423 -1.656,2.424 -0.235,4.179 l 0.728,0.898 1.697,-0.865 c 0.933,-0.477 1.797,-1.128 1.92,-1.448 0.123,-0.32 0.48,-0.582 0.794,-0.582 0.313,0 0.699,-0.329 0.857,-0.731 0.406,-1.033 3.045,-0.399 2.712,0.652 -0.224,0.705 0.257,0.989 3.403,2.014 2.668,0.869 7.069,0.233 10.279,-1.485 0.531,-0.284 0.9,-0.283 1.189,0.006 0.289,0.289 0.657,0.29 1.192,0.004 0.9,-0.482 4.775,-0.73 5.174,-0.331 0.149,0.149 -0.254,0.273 -0.895,0.275 -4.128,0.016 -5.207,0.864 -3.69,2.9 2.262,3.036 2.852,4.413 2.121,4.947 -1.255,0.918 -0.344,2.391 4.144,6.695 1.178,1.13 2.438,2.373 2.8,2.762 0.362,0.39 1.297,1.38 2.078,2.2 2.822,2.964 2.969,3.403 0.518,1.552 -1.355,-1.023 -2.776,-1.86 -3.159,-1.86 -0.383,0 -1.47,-0.634 -2.415,-1.408 -1.296,-1.062 -2.036,-1.384 -3.011,-1.31 -0.744,0.057 -1.362,-0.11 -1.456,-0.392 -0.19,-0.568 -1.697,-0.673 -1.697,-0.117 0,0.205 0.366,0.489 0.812,0.631 0.447,0.142 1.212,0.679 1.7,1.194 0.489,0.514 1.648,1.326 2.577,1.803 0.928,0.478 2.066,1.479 2.528,2.226 0.919,1.488 2.767,2.973 3.698,2.973 0.514,0 1.16,0.649 4.022,4.038 1.15,1.362 1.206,1.661 0.255,1.359 -0.793,-0.251 -0.88,-0.175 -0.678,0.594 0.208,0.797 0.165,0.826 -0.442,0.3 -0.37,-0.321 -1.15,-0.697 -1.735,-0.836 -1.282,-0.304 -6.239,-4.354 -5.593,-4.57 0.63,-0.21 0.57,-0.714 -0.173,-1.456 -0.848,-0.849 -2.159,-0.807 -2.218,0.071 -0.026,0.385 -0.162,0.167 -0.302,-0.484 -0.202,-0.947 -0.736,-1.432 -2.652,-2.415 -3.046,-1.562 -4.404,-2.467 -5.812,-3.876 -0.619,-0.619 -1.477,-1.125 -1.907,-1.125 -0.43,0 -1.006,-0.27 -1.28,-0.6 -0.542,-0.653 -1.6,-0.816 -1.6,-0.246 0,0.195 0.45,0.649 1,1.009 0.55,0.361 1,0.927 1,1.26 0,0.332 0.585,0.951 1.3,1.376 0.715,0.424 2.272,1.858 3.461,3.186 1.188,1.328 2.399,2.415 2.69,2.415 0.29,0 0.805,0.535 1.143,1.188 0.338,0.654 1.011,1.401 1.496,1.66 0.485,0.26 1.428,0.984 2.096,1.61 0.668,0.626 1.349,1.139 1.514,1.14 0.165,0.001 0.3,0.241 0.3,0.532 0,0.639 1.664,2.27 2.316,2.27 0.255,0 0.765,0.585 1.133,1.3 0.369,0.715 1.003,1.535 1.411,1.823 0.407,0.287 0.742,0.737 0.745,1 0.003,0.262 0.629,0.881 1.392,1.375 0.763,0.495 1.496,1.334 1.63,1.866 0.144,0.576 0.632,1.064 1.208,1.209 1.231,0.309 1.283,1.431 0.065,1.416 -0.985,-0.013 -4.3,-2.738 -4.3,-3.535 0,-0.272 -0.533,-0.681 -1.184,-0.908 -0.651,-0.227 -1.291,-0.752 -1.423,-1.167 -0.366,-1.153 -3.83,-3.351 -4.559,-2.892 -0.414,0.262 -1.085,0.095 -2.214,-0.551 -0.891,-0.509 -2.128,-0.929 -2.748,-0.931 -0.863,-0.004 -1.718,-0.617 -3.628,-2.605 -1.375,-1.43 -2.712,-2.6 -2.972,-2.6 -0.577,0 -0.62,0.892 -0.07,1.442 0.221,0.221 1.017,1.553 1.769,2.96 1.388,2.6 3.788,5.459 8.829,10.521 1.54,1.547 2.8,2.917 2.8,3.045 0,0.129 1.92,2.133 4.267,4.454 3.614,3.575 4.306,4.463 4.522,5.8 0.141,0.868 0.515,2.169 0.833,2.892 0.318,0.722 0.578,1.487 0.578,1.7 0,0.567 -1.906,0.471 -2.28,-0.116 -0.176,-0.276 -1.353,-0.844 -2.616,-1.263 -1.262,-0.419 -2.543,-1.14 -2.846,-1.602 -0.302,-0.462 -1.069,-1.104 -1.704,-1.426 -0.635,-0.323 -2.168,-1.446 -3.408,-2.497 -1.24,-1.05 -2.455,-1.91 -2.7,-1.91 -0.245,0 -0.446,-0.258 -0.446,-0.573 0,-0.315 -0.585,-0.982 -1.3,-1.483 -0.715,-0.501 -1.543,-1.245 -1.84,-1.653 -0.298,-0.408 -0.973,-0.906 -1.5,-1.106 -0.528,-0.201 -0.96,-0.598 -0.96,-0.883 0,-0.616 -3.447,-2.589 -3.838,-2.197 -0.553,0.553 6.796,8.653 7.882,8.687 0.134,0.005 1.484,1.179 3,2.61 1.516,1.432 3.071,2.704 3.456,2.827 0.385,0.124 0.7,0.441 0.7,0.706 0,0.264 0.886,1.182 1.968,2.04 1.083,0.857 2.193,1.979 2.468,2.492 0.274,0.513 0.694,0.94 0.932,0.949 0.664,0.024 3.032,3.444 3.032,4.38 0,0.456 0.269,0.932 0.598,1.058 0.331,0.128 0.468,0.434 0.307,0.688 -0.745,1.176 -0.404,2.832 0.821,3.975 1.104,1.032 1.165,1.2 0.557,1.541 -0.702,0.392 -0.916,1.575 -0.383,2.109 0.277,0.277 0.497,3.42 0.504,7.207 0.002,0.866 -0.203,1.702 -0.455,1.858 -0.252,0.155 -0.371,0.743 -0.263,1.305 0.122,0.637 -0.007,1.101 -0.341,1.229 -0.404,0.155 -0.475,0.783 -0.29,2.553 0.155,1.482 0.073,2.667 -0.22,3.216 -0.256,0.479 -0.557,2.624 -0.668,4.768 -0.111,2.143 -0.278,4.385 -0.372,4.981 -0.093,0.597 0.008,1.194 0.225,1.328 0.216,0.134 0.292,0.407 0.168,0.607 -0.124,0.201 -0.03,0.728 0.208,1.173 0.381,0.712 0.312,0.808 -0.582,0.808 -1.191,0 -1.354,0.917 -0.343,1.929 0.629,0.628 0.629,0.679 0,0.8 -0.833,0.161 -0.866,1.018 -0.071,1.814 0.943,0.943 0.798,3.457 -0.2,3.457 -1.097,0 -1.006,0.973 0.163,1.739 0.53,0.347 1.254,1.213 1.608,1.923 l 0.645,1.292 -0.934,-0.877 c -1.546,-1.452 -2.912,-0.067 -1.413,1.432 0.359,0.359 0.359,0.711 0,1.499 -0.258,0.566 -0.469,1.375 -0.469,1.797 0,0.422 -0.377,0.969 -0.838,1.215 -0.539,0.289 -0.768,0.713 -0.643,1.192 0.148,0.564 -0.085,0.805 -0.962,0.998 -1.239,0.272 -1.604,1.583 -0.694,2.493 0.351,0.351 0.347,0.603 -0.017,1.042 -0.279,0.336 -0.371,1.015 -0.219,1.622 0.144,0.574 0.066,1.28 -0.174,1.569 -0.302,0.364 -0.315,0.948 -0.042,1.895 0.313,1.087 0.27,1.46 -0.208,1.813 -0.815,0.6 -0.762,2.134 0.097,2.854 0.617,0.517 0.581,0.518 -0.3,0.01 -1.562,-0.899 -3.6,-1.515 -3.6,-1.087 0,0.642 -1.005,0.42 -1.908,-0.421 -0.472,-0.44 -1.395,-0.8 -2.052,-0.8 -0.656,0 -1.304,-0.18 -1.44,-0.4 -0.136,-0.22 -0.896,-0.4 -1.689,-0.4 -1.477,0 -4.482,-1.602 -6.562,-3.498 -0.698,-0.636 -1.792,-1.058 -3.256,-1.257 -1.212,-0.164 -2.507,-0.602 -2.877,-0.972 -0.37,-0.37 -0.932,-0.673 -1.249,-0.673 -0.316,0 -1.428,-0.594 -2.471,-1.321 -1.043,-0.726 -3.021,-2 -4.396,-2.829 -1.375,-0.829 -2.5,-1.679 -2.5,-1.889 0,-0.209 -0.484,-0.565 -1.075,-0.789 -0.591,-0.225 -1.446,-0.775 -1.9,-1.223 -1.839,-1.814 -4.408,-3.134 -6.111,-3.142 -1.272,-0.005 -1.791,-0.203 -2.114,-0.807 -0.235,-0.44 -0.664,-0.8 -0.952,-0.8 -0.288,0 -0.85,-0.36 -1.248,-0.8 -1.101,-1.217 -1.262,-1.02 -1.552,1.9 -0.147,1.485 -0.621,4.5 -1.054,6.7 -0.977,4.968 -0.875,1.569 0.157,-5.2 0.335,-2.2 0.669,-4.577 0.742,-5.283 0.131,-1.262 1.357,-3.067 2.297,-3.38 1.064,-0.355 1.44,-6.091 0.486,-7.43 -2.761,-3.878 -4.356,-9.424 -4.613,-16.046 -0.15,-3.885 -0.402,-6.018 -0.778,-6.6 -1.068,-1.654 -2.24,-7.196 -2.339,-11.061 -0.054,-2.132 -0.329,-4.278 -0.626,-4.889 -0.654,-1.346 -0.525,-4.706 0.18,-4.709 0.354,-0.001 0.5,-0.854 0.5,-2.922 0,-1.606 0.187,-3.107 0.416,-3.336 0.286,-0.286 0.289,-0.969 0.01,-2.18 -0.67,-2.908 -0.598,-3.178 0.774,-2.904 1.233,0.247 1.726,-0.726 0.852,-1.68 -0.989,-1.078 -0.898,-2.607 0.138,-2.347 0.826,0.208 1.01,0.109 1.01,-0.541 0,-0.437 0.27,-1.018 0.6,-1.292 0.33,-0.274 0.6,-0.725 0.6,-1.003 0,-1.26 1.103,-2.698 1.511,-1.97 0.239,0.426 0.642,0.6 1.039,0.447 0.873,-0.335 0.819,-1.157 -0.15,-2.274 -0.44,-0.507 -0.8,-1.069 -0.8,-1.249 0,-0.429 1.29,0.029 1.8,0.64 0.68,0.814 2.283,1.519 2.551,1.121 0.137,-0.204 0.564,-0.487 0.949,-0.629 0.46,-0.169 0.7,-0.682 0.7,-1.494 0,-0.728 -0.166,-1.134 -0.403,-0.987 -0.221,0.137 -0.474,0.012 -0.561,-0.277 -0.25,-0.825 -0.622,-1.647 -1.21,-2.669 -0.671,-1.165 0.203,-2.456 1.663,-2.456 0.999,0 1.161,-0.39 0.453,-1.098 -0.343,-0.343 -0.242,-0.401 0.407,-0.231 0.475,0.124 0.961,0.384 1.081,0.577 0.592,0.959 0.977,0.184 0.769,-1.548 -0.293,-2.429 1.1,-3.836 2.693,-2.721 1.703,1.193 2.467,-0.203 1.084,-1.982 -0.535,-0.689 -1.553,-3.954 -1.304,-4.181 0.131,-0.119 0.326,0.034 0.435,0.341 0.109,0.306 0.804,1.228 1.545,2.048 0.741,0.821 1.348,1.665 1.348,1.877 0,0.211 0.594,1 1.321,1.751 0.727,0.752 1.65,1.907 2.051,2.567 0.757,1.245 0.88,1.391 4.161,4.959 2.922,3.177 4.815,1.994 1.967,-1.23 -0.715,-0.808 -1.57,-1.86 -1.9,-2.337 -0.33,-0.477 -0.915,-1.237 -1.3,-1.691 -0.686,-0.807 -0.867,-1.326 -0.723,-2.075 0.184,-0.952 -0.534,-2.452 -1.691,-3.533 -1.152,-1.076 -1.263,-1.39 -1.213,-3.426 0.045,-1.807 -0.111,-2.41 -0.808,-3.116 -3.12,-3.159 -1.909,-2.772 1.541,0.492 1.537,1.453 3.289,2.82 3.894,3.039 0.605,0.218 1.1,0.644 1.1,0.947 0,0.303 0.585,0.852 1.3,1.22 0.715,0.369 1.565,1.048 1.89,1.511 0.782,1.114 4.096,4.24 4.495,4.24 0.638,0 0.285,-1.361 -0.818,-3.156 -0.623,-1.014 -1.248,-2.294 -1.39,-2.844 -0.295,-1.152 -2.765,-3.937 -4.377,-4.937 -0.605,-0.375 -1.1,-0.885 -1.1,-1.134 0,-0.532 -2.803,-3.206 -4.793,-4.573 -0.766,-0.526 -1.254,-0.956 -1.084,-0.956 0.169,0 -0.037,-0.37 -0.458,-0.822 -0.992,-1.065 -2.523,-5.492 -1.964,-5.678 1.148,-0.383 -0.558,-1.951 -1.821,-1.674 -1.172,0.258 -1.222,0.227 -0.681,-0.424 0.609,-0.735 -2.609,-4.173 -3.925,-4.194 -0.891,-0.014 -2.074,0.789 -2.074,1.406 0,0.555 -0.718,0.776 -1.956,0.603 -0.306,-0.043 -1.279,-0.534 -2.162,-1.092 -1.343,-0.847 -1.958,-0.985 -3.751,-0.836 -1.482,0.123 -2.28,0.013 -2.586,-0.356 -0.244,-0.293 -0.738,-0.533 -1.098,-0.533 -0.36,0 -0.86,-0.329 -1.111,-0.73 -0.54,-0.865 -3.915,-2.24 -4.731,-1.927 -0.313,0.12 -0.965,0.992 -1.45,1.938 -0.485,0.945 -0.959,1.49 -1.054,1.211 -0.095,-0.28 -0.69,-0.776 -1.322,-1.103 -0.805,-0.416 -1.28,-1.079 -1.584,-2.207 -0.239,-0.888 -0.965,-2.514 -1.615,-3.615 -0.649,-1.101 -1.18,-2.14 -1.18,-2.309 0,-0.169 -0.367,-0.701 -0.816,-1.183 l -0.815,-0.875 0.815,0 c 0.533,0 0.816,-0.262 0.816,-0.754 0,-0.894 -2.642,-1.879 -6.145,-2.291 -1.24,-0.146 -2.255,-0.42 -2.255,-0.61 0,-0.591 -2.675,-0.377 -3.2,0.255 -0.287,0.346 -1.16,0.6 -2.063,0.6 -0.861,0 -2.01,0.291 -2.553,0.647 -0.805,0.528 -1.101,0.554 -1.598,0.142 -0.845,-0.702 -2.586,0.108 -2.586,1.202 0,0.613 0.267,0.812 1.1,0.822 0.605,0.007 1.44,0.27 1.855,0.584 0.818,0.619 2.135,0.212 2.765,-0.855 0.176,-0.298 0.819,-0.542 1.43,-0.542 0.667,0 1.485,-0.399 2.05,-1 1.183,-1.259 3.079,-1.436 2.317,-0.216 -0.385,0.616 -0.385,1.071 -0.003,2.128 0.267,0.74 0.486,1.625 0.486,1.968 0,0.343 0.891,1.434 1.98,2.425 2.013,1.832 2.144,2.294 0.653,2.296 -0.458,0.001 -1.44,0.372 -2.182,0.824 -1.744,1.063 -2.487,0.775 -2.354,-0.914 0.093,-1.179 -0.004,-1.311 -0.962,-1.311 -0.586,0 -1.551,-0.421 -2.143,-0.935 -0.593,-0.514 -2.273,-1.285 -3.735,-1.714 -1.461,-0.428 -3.107,-0.911 -3.657,-1.072 -0.711,-0.209 -1.038,-0.622 -1.131,-1.43 -0.119,-1.036 -0.239,-1.115 -1.35,-0.893 -0.67,0.134 -1.368,0.244 -1.55,0.244 -0.182,0 -0.63,0.63 -0.996,1.4 -0.65,1.37 -1.458,1.715 -2.487,1.062 -0.295,-0.188 -0.399,-0.623 -0.245,-1.026 0.224,-0.582 0.075,-0.678 -0.886,-0.568 -1.663,0.19 -1.776,1.629 -0.231,2.929 2.32,1.953 2.012,2.703 -0.979,2.382 -2.421,-0.259 -2.609,-0.221 -2.815,0.568 -0.345,1.319 -3.177,0.469 -4.786,-1.437 -0.77,-0.911 -1.045,-0.986 -2.7,-0.737 -2.146,0.321 -2.417,1.093 -0.644,1.827 1.447,0.599 1.466,0.788 0.174,1.729 -0.697,0.507 -1.355,0.651 -2.164,0.473 -1.233,-0.271 -2.694,0.3 -3.474,1.358 -0.417,0.566 -0.548,0.553 -1.304,-0.131 -0.68,-0.615 -1.011,-0.677 -1.736,-0.323 -0.493,0.24 -1.579,0.549 -2.414,0.687 -1.096,0.18 -1.617,0.511 -1.875,1.19 -0.627,1.647 -1.209,1.585 -3.159,-0.336 -2.327,-2.292 -2.684,-2.296 -3.652,-0.037 -0.65,1.516 -0.891,1.749 -1.486,1.437 -0.39,-0.205 -1.475,-0.576 -2.41,-0.826 -1.565,-0.417 -1.7,-0.558 -1.7,-1.773 0,-1.783 -0.987,-4.95 -1.834,-5.886 -1.458,-1.611 1,-0.829 2.634,0.838 1.703,1.738 1.849,1.79 3.374,1.21 1.567,-0.596 1.228,-1.39 -0.827,-1.94 -1.019,-0.272 -2.303,-0.85 -2.854,-1.283 -0.55,-0.433 -1.24,-0.787 -1.533,-0.787 -0.292,0 -0.725,-0.36 -0.96,-0.8 -0.489,-0.914 -1.266,-1.016 -2.39,-0.313 -0.651,0.406 -0.976,0.34 -1.978,-0.4 -1.389,-1.027 -2.646,-1.148 -2.977,-0.287 -0.131,0.343 -0.728,0.6 -1.393,0.6 -1.497,0 -2.371,0.946 -1.662,1.8 0.274,0.33 0.689,0.6 0.924,0.6 1.013,0 6.804,6.589 7.152,8.139 0.836,3.723 -2.31,5.153 -4.354,1.979 -0.396,-0.615 -2.029,-2.436 -3.631,-4.047 -1.601,-1.612 -3.197,-3.367 -3.547,-3.9 -0.816,-1.246 -1.641,-1.235 -2.217,0.029 -0.522,1.145 -1.768,1.314 -2.951,0.4 -0.731,-0.565 -0.735,-0.625 -0.076,-1.02 1.273,-0.763 0.909,-2.926 -0.7,-4.153 -0.77,-0.587 -1.4,-1.288 -1.4,-1.558 0,-0.27 -0.495,-0.947 -1.1,-1.504 -0.605,-0.557 -1.413,-1.407 -1.796,-1.889 -0.727,-0.915 -2.077,-1.168 -2.508,-0.469 -0.156,0.252 -0.686,0.099 -1.386,-0.4 -0.623,-0.444 -1.508,-0.807 -1.965,-0.807 -0.594,0 -1.116,-0.562 -1.831,-1.972 -1.394,-2.751 -1.84,-2.978 -5.619,-2.868 -2.224,0.065 -2.518,-0.032 -3.893,-1.293 -0.939,-0.859 -2.072,-1.456 -3.068,-1.615 -1.132,-0.181 -1.823,-0.593 -2.434,-1.452 -0.519,-0.729 -1.21,-1.2 -1.761,-1.2 -1.333,0 -1.517,-0.409 -0.539,-1.2 0.934,-0.757 0.267,-3.265 -1.188,-4.473 -1.389,-1.153 -1.782,-2.657 -0.919,-3.52 1.684,-1.684 0.535,-3.707 -2.759,-4.855 -0.661,-0.23 -1.306,-0.747 -1.433,-1.148 -0.446,-1.405 -6.154,-5.313 -7.397,-5.065 -1.524,0.305 -3.922,-0.418 -4.51,-1.361 C 80.426,56.75 79.891,56.4 79.504,56.4 79.117,56.4 78.8,56.22 78.8,56 c 0,-1.408 -1.818,0.202 -2.311,2.046 -0.297,1.113 -0.531,1.334 -1.317,1.243 -2.504,-0.293 -3.154,-6.673 -0.729,-7.158 1.703,-0.34 2.668,-2.531 1.114,-2.531 -0.196,0 -0.357,-0.33 -0.357,-0.732 0,-0.97 1.327,-1.574 3.914,-1.783 4.209,-0.339 4.089,-4.287 -0.18,-5.91 C 78.42,40.98 78,40.576 78,40.277 78,39.979 77.55,39.494 77,39.2 c -1.19,-0.637 -1.269,-1.061 -0.256,-1.382 0.976,-0.31 2.056,0.123 2.056,0.825 0,0.306 0.324,0.557 0.72,0.557 0.396,0 0.924,0.204 1.173,0.453 0.535,0.535 1.871,0.136 1.509,-0.45 C 82.065,38.981 81.695,38.8 81.38,38.8 c -0.601,0 -2.649,-1.954 -3.685,-3.516 -0.334,-0.503 -1.38,-1.267 -2.323,-1.697 -0.944,-0.43 -1.831,-1.143 -1.971,-1.584 -0.14,-0.442 -0.432,-0.803 -0.649,-0.803 -0.217,0 -1.057,-0.45 -1.866,-1 -0.809,-0.55 -1.61,-1 -1.779,-1 -0.618,0 -0.284,1.022 0.493,1.507 0.44,0.275 0.8,0.748 0.8,1.05 0,0.64 1.688,1.843 2.586,1.843 0.338,0 0.614,0.165 0.614,0.367 0,0.566 -2.912,2.235 -3.674,2.106 -0.372,-0.063 -1.4,0.255 -2.285,0.706 -1.878,0.958 -2.379,0.994 -3.376,0.239 -1.452,-1.1 0.588,-3.018 3.21,-3.018 2.509,0 3.024,-1.416 1.154,-3.173 -0.578,-0.543 -0.875,-1.163 -0.734,-1.531 0.199,-0.518 -0.035,-0.583 -1.428,-0.396 -0.917,0.123 -1.768,0.061 -1.891,-0.138 -0.314,-0.509 -1.11,-0.45 -1.866,0.138 M 85.2,41.513 c 0,0.471 0.338,0.741 1,0.795 0.759,0.063 1,-0.109 1,-0.712 0,-0.582 -0.269,-0.796 -1,-0.796 -0.693,0 -1,0.219 -1,0.713 M 54.093,42 c -0.275,0.44 -0.923,0.8 -1.44,0.8 -0.516,0 -2.136,0.624 -3.599,1.386 -1.463,0.763 -2.914,1.289 -3.226,1.17 -0.765,-0.294 -2.228,0.532 -2.228,1.258 0,0.322 0.1,0.586 0.223,0.586 0.66,0 4.042,-0.966 4.426,-1.264 0.246,-0.192 1.363,-0.62 2.481,-0.952 1.118,-0.332 2.266,-0.824 2.551,-1.094 0.286,-0.269 1.014,-0.745 1.619,-1.058 0.605,-0.312 1.1,-0.807 1.1,-1.1 0,-0.819 -1.346,-0.63 -1.907,0.268 M 86.4,43.582 c 0,0.692 1.252,2.94 2.394,4.301 0.223,0.266 0.406,0.671 0.406,0.9 0,0.572 1.085,0.527 1.447,-0.059 C 90.809,48.462 90.73,48.177 90.471,48.09 90.212,48.004 90,47.599 90,47.19 90,46.782 89.813,46.331 89.584,46.19 89.355,46.049 88.723,45.228 88.179,44.366 87.102,42.661 86.4,42.352 86.4,43.582 m -45.8,3.415 c -0.22,0.073 -0.895,0.242 -1.5,0.376 -1.954,0.431 -1.283,1.144 0.8,0.85 2.53,-0.358 3.3,-0.602 3.3,-1.05 0,-0.351 -1.725,-0.468 -2.6,-0.176 m 166.439,2.734 c -4.611,2.478 -12.339,11.902 -10.922,13.319 0.316,0.316 3.083,-0.298 3.083,-0.684 0,-0.576 2.342,-5.5 2.976,-6.258 2.759,-3.296 3.717,-4.056 5.924,-4.697 2.124,-0.617 2.3,-0.757 2.3,-1.839 0,-1.461 -0.381,-1.443 -3.361,0.159 M 33.2,49.4 c 0,0.33 0.18,0.6 0.4,0.6 0.22,0 0.4,-0.27 0.4,-0.6 0,-0.33 -0.18,-0.6 -0.4,-0.6 -0.22,0 -0.4,0.27 -0.4,0.6 m 57.6,2.506 c 0,0.712 0.457,1.661 1.2,2.494 0.66,0.739 1.2,1.492 1.2,1.672 0,0.18 0.433,0.328 0.962,0.328 0.529,0 1.688,0.585 2.575,1.3 0.887,0.715 2.231,1.795 2.988,2.4 0.78,0.624 1.476,1.605 1.609,2.269 0.128,0.643 0.716,1.498 1.306,1.9 0.589,0.402 2.082,1.747 3.316,2.988 1.234,1.241 3.373,2.917 4.753,3.724 1.379,0.807 3.257,2.18 4.172,3.05 1.687,1.605 3.609,2.769 4.571,2.769 0.291,0 1.118,0.359 1.838,0.799 0.721,0.439 1.593,0.799 1.938,0.8 0.346,0 1.467,0.804 2.492,1.786 1.025,0.982 2.317,2.083 2.872,2.446 0.554,0.364 1.008,0.988 1.008,1.388 0,0.4 0.342,0.836 0.76,0.968 0.418,0.133 0.872,0.685 1.008,1.227 0.136,0.542 0.424,0.986 0.64,0.986 0.215,0 0.393,0.495 0.394,1.1 0.006,2.909 2.311,6.815 3.706,6.28 0.922,-0.354 0.875,-1.073 -0.108,-1.687 -0.5,-0.312 -0.8,-0.933 -0.8,-1.654 0,-0.634 -0.248,-1.248 -0.551,-1.365 -0.351,-0.134 -0.478,-0.588 -0.351,-1.251 0.135,-0.709 -0.136,-1.523 -0.85,-2.553 -0.576,-0.832 -1.048,-1.831 -1.048,-2.22 0,-0.772 -3.552,-5.037 -4.201,-5.045 -0.221,-0.003 -0.911,-0.545 -1.534,-1.205 -0.623,-0.66 -1.433,-1.231 -1.799,-1.268 -0.366,-0.038 -0.962,-0.089 -1.323,-0.113 -0.936,-0.063 -5.143,-2.245 -5.143,-2.667 0,-0.193 -0.345,-0.352 -0.767,-0.352 -1.294,0 -2.033,-0.45 -2.033,-1.237 0,-0.467 -0.493,-0.965 -1.3,-1.312 -0.715,-0.309 -2.447,-1.661 -3.849,-3.006 -1.401,-1.345 -2.802,-2.445 -3.112,-2.445 -0.31,0 -0.674,-0.315 -0.807,-0.7 -0.134,-0.385 -1.029,-1.451 -1.988,-2.369 -0.959,-0.917 -1.744,-1.952 -1.744,-2.3 0,-0.402 -0.353,-0.631 -0.974,-0.631 -0.75,0 -1.091,-0.322 -1.48,-1.4 C 100.067,57.03 99.56,56.393 99.22,56.384 98.249,56.358 95.174,53.361 94.844,52.12 94.376,50.36 90.8,50.171 90.8,51.906 m 245.275,14.11 c -2.224,2.072 1.597,4.918 4.305,3.205 0.586,-0.371 0.745,-2.772 0.237,-3.594 -0.475,-0.767 -3.586,-0.501 -4.542,0.389 M 176.8,75.8 c 0,0.33 0.18,0.6 0.4,0.6 0.22,0 0.4,-0.27 0.4,-0.6 0,-0.33 -0.18,-0.6 -0.4,-0.6 -0.22,0 -0.4,0.27 -0.4,0.6 m -25.738,16.131 c -0.904,0.999 -0.841,2.358 0.123,2.664 1.754,0.557 3.948,-1.87 2.589,-2.863 -1.003,-0.734 -1.929,-0.666 -2.712,0.199 m 116.547,1.344 c -0.445,0.921 -0.809,1.821 -0.809,2 0,1.133 2.023,-1.057 2.571,-2.783 0.518,-1.634 -0.898,-1.004 -1.762,0.783 M 246.4,93.4 c 0,0.33 0.27,0.6 0.6,0.6 0.33,0 0.6,-0.27 0.6,-0.6 0,-0.33 -0.27,-0.6 -0.6,-0.6 -0.33,0 -0.6,0.27 -0.6,0.6 m 1.2,1.337 c 0,0.185 -2.596,0.346 -5.77,0.357 -6.678,0.025 -6.965,0.112 -5.791,1.761 0.914,1.284 0.721,1.267 5.412,0.483 1.169,-0.195 1.238,-0.14 1.054,0.827 -0.16,0.837 -0.437,1.044 -1.452,1.081 -0.689,0.026 -1.433,0.088 -1.653,0.139 -0.22,0.051 -0.625,0.121 -0.9,0.154 -0.761,0.093 -0.596,1.181 0.248,1.633 1.09,0.583 5.516,-0.221 7.452,-1.355 3.248,-1.901 4.914,-4.105 3.402,-4.501 -0.441,-0.115 -0.802,-0.368 -0.802,-0.563 0,-0.194 -0.27,-0.353 -0.6,-0.353 -0.33,0 -0.6,0.151 -0.6,0.337 M 217.601,95.5 c 0.003,1.314 6.533,3.882 8.108,3.188 1.837,-0.808 1.214,-1.688 -1.194,-1.688 -1.141,0 -2.3,-0.225 -2.575,-0.5 -0.275,-0.275 -0.993,-0.5 -1.596,-0.5 -0.603,0 -1.208,-0.18 -1.344,-0.4 -0.287,-0.464 -1.4,-0.544 -1.399,-0.1 m -56.028,0.641 c -0.564,0.294 -1.478,0.649 -2.031,0.788 -1.109,0.278 -3.142,1.994 -3.142,2.652 0,0.528 0.843,0.535 2.201,0.019 0.793,-0.302 1.899,-0.193 4.467,0.439 2.473,0.609 3.533,0.72 3.851,0.402 0.667,-0.667 -0.841,-1.613 -2.595,-1.628 -0.812,-0.007 -1.588,-0.193 -1.724,-0.413 -0.136,-0.22 -0.085,-0.4 0.112,-0.4 0.198,0 0.556,-0.432 0.797,-0.96 0.684,-1.501 -0.093,-1.861 -1.936,-0.899 m 89.827,-0.24 c -1.073,0.803 -1.414,3.027 -0.582,3.802 0.893,0.832 2.014,0.801 2.302,-0.064 0.136,-0.407 -0.053,-0.498 -0.692,-0.33 -0.829,0.216 -0.846,0.178 -0.291,-0.669 1.227,-1.873 0.704,-3.818 -0.737,-2.739 M 332.225,103 c -0.089,0.22 -0.176,0.107 -0.193,-0.251 -0.018,-0.358 -0.33,-0.898 -0.693,-1.2 -1.05,-0.871 -1.73,-2.792 -1.193,-3.367 0.476,-0.51 2.415,3.985 2.079,4.818 M 168.5,98.808 c -1.535,0.625 -1.076,1.459 0.956,1.738 2.72,0.372 3.344,0.317 3.344,-0.297 0,-1.215 -2.662,-2.107 -4.3,-1.441 M 291.6,99.6 c 0,0.444 0.267,0.8 0.6,0.8 0.333,0 0.6,-0.356 0.6,-0.8 0,-0.444 -0.267,-0.8 -0.6,-0.8 -0.333,0 -0.6,0.356 -0.6,0.8 m -57.6,3.573 c 0,0.431 0.367,0.89 0.83,1.037 1.111,0.352 1.335,0.043 0.701,-0.971 -0.656,-1.052 -1.531,-1.09 -1.531,-0.066 m 106.981,30.796 c 0.647,1.048 -5.311,7.241 -7.481,7.775 -0.783,0.193 -1.1,0.524 -1.1,1.149 0,0.482 -0.468,1.25 -1.039,1.706 -0.77,0.613 -1.095,1.318 -1.252,2.715 -0.28,2.484 0.539,2.527 2.852,0.148 2.02,-2.079 5.102,-3.44 6.035,-2.666 0.84,0.698 0.754,1.718 -0.196,2.311 -0.44,0.275 -0.8,0.679 -0.8,0.898 0,0.22 -0.874,1.255 -1.943,2.302 -1.916,1.875 -3.657,4.674 -3.657,5.877 0,0.339 -0.328,0.616 -0.73,0.616 -0.502,0 -1.075,0.749 -1.838,2.4 -1.845,3.998 -2.364,2.544 -0.998,-2.8 1.152,-4.509 0.971,-7.044 -0.602,-8.425 -1.328,-1.167 -1.936,-2.775 -1.048,-2.775 0.584,0 2.015,-1.652 2.597,-3 1.622,-3.751 10.112,-9.991 11.2,-8.231 M 261.606,146.3 c 0.003,0.165 0.174,0.565 0.378,0.888 0.461,0.729 1.002,0.273 0.678,-0.571 -0.239,-0.623 -1.067,-0.872 -1.056,-0.317 M 160.8,149.2 c -0.345,0.645 -0.304,0.8 0.212,0.8 0.862,0 2.188,-0.736 2.188,-1.214 0,-0.736 -1.966,-0.397 -2.4,0.414 m 102.868,-0.141 c 0.078,0.403 0.47,0.795 0.873,0.873 0.528,0.101 0.692,-0.063 0.591,-0.591 -0.078,-0.403 -0.47,-0.795 -0.873,-0.873 -0.528,-0.101 -0.692,0.063 -0.591,0.591 M 163.273,151.9 c 0.148,1.282 2.036,1.835 2.463,0.722 0.413,-1.076 -0.162,-1.822 -1.405,-1.822 -1.056,0 -1.17,0.119 -1.058,1.1 m 176.087,7.289 c -0.141,0.336 -0.348,1.47 -0.46,2.519 -0.254,2.38 -0.458,2.504 -2.118,1.279 -1.634,-1.206 -1.44,-1.223 -2.172,0.193 -0.973,1.882 -0.738,2.718 1.39,4.935 1.099,1.147 1.999,2.288 2,2.536 0,0.248 0.289,0.691 0.642,0.984 1.596,1.324 2.174,5.375 2.367,16.565 0.535,31.164 0.049,40.515 -2.25,43.283 -0.327,0.394 -0.93,1.707 -1.339,2.917 -0.41,1.21 -1.077,2.678 -1.482,3.262 -0.406,0.584 -0.738,1.273 -0.738,1.531 0,0.257 -0.54,1.009 -1.2,1.669 -0.783,0.782 -1.219,1.641 -1.254,2.469 -0.039,0.89 -0.106,1.009 -0.224,0.398 -0.094,-0.479 -0.425,-1.083 -0.738,-1.342 -0.396,-0.329 -0.455,-0.681 -0.193,-1.171 0.206,-0.385 0.497,-1.941 0.646,-3.458 0.149,-1.517 0.405,-2.938 0.571,-3.158 0.165,-0.22 0.431,-1.03 0.592,-1.8 0.161,-0.77 0.442,-1.587 0.625,-1.815 0.182,-0.228 0.265,-3.018 0.182,-6.2 -0.133,-5.146 0.01,-8.137 0.866,-18.061 0.248,-2.874 -1.472,-6.289 -3.492,-6.93 -2.079,-0.66 -2.799,-2.574 -2.8,-7.443 -0.002,-8.386 0.484,-10.773 3.164,-15.551 0.716,-1.277 2.153,-5.881 2.339,-7.5 0.256,-2.213 -1.078,-2.494 -1.892,-0.4 -0.59,1.515 -1.932,4.593 -2.44,5.595 -0.193,0.382 -0.352,0.976 -0.352,1.319 0,0.344 -0.619,1.263 -1.375,2.042 l -1.375,1.416 -0.304,-1.536 c -0.166,-0.845 -0.279,-1.806 -0.25,-2.136 0.371,-4.199 0.643,-5.229 1.872,-7.096 0.729,-1.107 1.448,-2.663 1.597,-3.458 0.149,-0.795 0.435,-1.446 0.634,-1.446 0.422,0 1.949,-3.287 2.277,-4.9 0.265,-1.3 0.732,-1.406 1.324,-0.3 0.593,1.109 2.065,1.002 3.413,-0.247 1.223,-1.134 2.561,-0.422 1.947,1.036 M 230.4,172.833 c 0,0.975 0.935,0.837 1.129,-0.166 0.077,-0.395 -0.127,-0.667 -0.5,-0.667 -0.371,0 -0.629,0.342 -0.629,0.833 m 76.09,61.07 c -0.687,0.229 -0.612,1.565 0.103,1.839 0.992,0.38 0.226,1.458 -1.036,1.458 -1.251,0 -1.476,0.682 -0.816,2.474 0.969,2.628 0.945,3.163 -0.131,2.893 -0.95,-0.239 -1.01,-0.162 -1.01,1.3 l 0,1.554 -1.7,-0.151 c -1.674,-0.15 -3.148,-0.87 -1.78,-0.87 0.374,0 0.68,-0.267 0.68,-0.592 0,-0.326 0.45,-0.706 1,-0.844 1.916,-0.481 0.667,-2.134 -2.065,-2.734 -0.755,-0.166 -1.334,-0.583 -1.456,-1.049 -0.186,-0.713 -0.137,-0.727 0.649,-0.177 1.896,1.329 4.445,-0.729 4.464,-3.604 0.007,-1.013 0.148,-1.181 0.908,-1.075 0.582,0.081 0.9,-0.083 0.9,-0.462 0,-0.411 0.268,-0.518 0.89,-0.355 0.489,0.128 0.669,0.306 0.4,0.395 M 296,237.2 c 0,0.22 -0.221,0.355 -0.491,0.3 -0.269,-0.055 -0.552,0.305 -0.627,0.8 -0.076,0.495 -0.325,0.9 -0.554,0.9 -0.258,0 -0.319,0.523 -0.159,1.373 0.185,0.988 0.095,1.464 -0.321,1.7 -0.318,0.18 -0.639,0.867 -0.713,1.527 -0.108,0.961 -0.348,1.225 -1.204,1.324 -0.914,0.105 -1.109,0.366 -1.35,1.8 -0.453,2.699 -0.842,3.437 -1.696,3.214 -0.858,-0.224 -0.963,-2.979 -0.123,-3.259 0.596,-0.198 1.638,-2.705 1.638,-3.94 0,-0.53 0.275,-1.07 0.612,-1.199 0.575,-0.221 2.188,-3.234 2.188,-4.089 0,-0.399 0.839,-0.721 2.1,-0.805 0.385,-0.025 0.7,0.134 0.7,0.354 m -236.4,1.776 c 0,0.317 0.158,0.675 0.352,0.794 0.193,0.12 0.26,1.03 0.148,2.024 -0.269,2.38 0.739,2.482 1.907,0.192 0.836,-1.638 0.777,-2.386 -0.188,-2.386 -0.293,0 -0.637,-0.27 -0.764,-0.6 -0.294,-0.767 -1.455,-0.786 -1.455,-0.024 m -1.6,4.805 c 0,1.472 0.853,3.067 1.567,2.93 0.941,-0.181 1.057,-1.511 0.132,-1.511 -0.617,0 -0.727,-0.226 -0.584,-1.2 0.133,-0.91 0.02,-1.2 -0.47,-1.2 -0.418,0 -0.645,0.345 -0.645,0.981 m 245.6,6.48 c 0,1.148 -0.137,1.339 -0.964,1.339 -1.346,0 -3.377,-2.377 -2.467,-2.887 0.349,-0.195 0.631,-0.873 0.631,-1.513 l 0,-1.16 1.4,1.441 c 1.034,1.065 1.4,1.792 1.4,2.78 m 28.655,0.139 c -0.154,1.657 -0.108,2.8 0.114,2.8 0.901,0 1.631,1.347 1.631,3.009 0,2.241 -0.756,5.791 -1.233,5.791 -0.202,0 -0.367,0.369 -0.367,0.82 0,0.788 -0.054,0.78 -1.338,-0.2 -0.736,-0.561 -1.726,-1.02 -2.2,-1.02 -1.143,0 -1.101,-0.174 0.518,-2.149 1.525,-1.861 2.023,-3.605 2.443,-8.551 0.154,-1.815 0.373,-3.3 0.486,-3.3 0.113,0 0.089,1.26 -0.054,2.8 m -44.426,1.505 c -0.133,0.133 -0.463,0.021 -0.732,-0.248 -0.387,-0.387 -0.364,-0.569 0.106,-0.863 0.607,-0.379 1.151,0.586 0.626,1.111 m 45.668,14.534 c -1.199,0.32 -1.481,-0.009 -1.206,-1.411 l 0.23,-1.172 0.936,1.172 0.937,1.172 -0.897,0.239 M 358,265.551 c 0,0.855 0.596,1.427 1.902,1.828 1.339,0.41 1.705,-0.882 0.52,-1.841 -1.196,-0.969 -2.422,-0.963 -2.422,0.013 m 0.41,3.227 c -0.973,0.748 -0.977,0.775 -0.238,1.591 1.326,1.465 2.949,0.566 2.465,-1.364 -0.3,-1.196 -0.888,-1.256 -2.227,-0.227 m -0.394,9.403 c -0.688,0.828 0.107,1.819 1.46,1.819 0.83,0 0.958,-0.166 0.851,-1.1 -0.148,-1.284 -1.495,-1.703 -2.311,-0.719 m 11.184,1.152 c 0,0.294 0.135,0.67 0.3,0.836 0.165,0.167 0.3,0.692 0.3,1.167 0,1.23 1.105,1.08 1.559,-0.212 0.271,-0.77 0.231,-1.254 -0.139,-1.7 -0.633,-0.763 -2.02,-0.825 -2.02,-0.091 m -1.6,2.438 c 0,0.371 0.342,0.629 0.833,0.629 0.975,0 0.837,-0.935 -0.166,-1.129 -0.395,-0.077 -0.667,0.127 -0.667,0.5 m -3.444,6 c -0.774,2.017 0.918,3.732 2.31,2.34 0.754,-0.754 0.813,-1.02 0.415,-1.894 -0.518,-1.135 -2.346,-1.435 -2.725,-0.446 m 3.719,2.487 c -0.616,0.617 -0.259,1.742 0.553,1.742 0.622,0 0.796,-0.216 0.7,-0.869 -0.133,-0.902 -0.776,-1.35 -1.253,-0.873 m -5,5.758 c -1.766,1.645 -0.579,3.584 2.195,3.584 1.087,0 1.835,-0.253 2.315,-0.784 2.028,-2.24 -2.256,-4.9 -4.51,-2.8 m -14.017,6.227 c -1.593,1.801 -0.743,4.957 1.335,4.957 0.899,0 3.007,-1.998 3.007,-2.851 0,-2.21 -2.974,-3.653 -4.342,-2.106 m 17.538,5.303 c -3.892,2.087 -2.898,9.934 1.068,8.431 1.243,-0.471 2.936,-1.902 2.936,-2.483 0,-0.201 0.371,-0.666 0.825,-1.034 3.352,-2.714 -0.887,-7.028 -4.829,-4.914 M 245.921,355.3 c -0.832,0.659 -1.273,3.269 -0.724,4.294 1.029,1.924 4.803,0.313 4.803,-2.05 0,-1.982 -2.601,-3.413 -4.079,-2.244 m 69.436,24.533 c 0.438,1.14 0.255,1.535 -0.344,0.743 -0.323,-0.427 -0.593,-0.911 -0.6,-1.076 -0.024,-0.559 0.7,-0.304 0.944,0.333"
       inkscape:connector-curvature="0"
       style="fill:#ededed;fill-rule:evenodd;stroke:none" />
  </g>
</svg>
