<svg xmlns="http://www.w3.org/2000/svg" viewBox="0 0 64 64" width="64" height="64"><defs><linearGradient id="a" x1="160.008" y1="40.008" x2="100.008" y2="180" gradientUnits="userSpaceOnUse" gradientTransform="translate(2.288 2.475) scale(.24735)"><stop stop-color="#37aee2" offset="0"/><stop stop-color="#1e96c8" offset="1"/></linearGradient><linearGradient id="b" x1="123.641" y1="131.028" x2="146.527" y2="174.708" gradientTransform="matrix(.27009 0 0 .22653 2.288 2.475)" gradientUnits="userSpaceOnUse"><stop stop-color="#eff7fc" offset="0"/><stop stop-color="#fff" offset="1"/></linearGradient></defs><circle cx="31.97" cy="32.157" r="29.682" fill="url(#a)"/><path d="M26.529 45.761c-.962 0-.799-.363-1.13-1.279l-2.828-9.306 21.767-12.913" fill="#c8daea"/><path d="M26.529 45.761c.742 0 1.07-.34 1.484-.742l3.957-3.848-4.936-2.977" fill="#a9c9dd"/><path d="M27.033 38.195l11.962 8.837c1.365.753 2.35.363 2.69-1.267l4.87-22.945c.498-1.999-.762-2.905-2.068-2.312L15.895 31.532c-1.951.783-1.94 1.872-.355 2.357l7.337 2.29 16.986-10.716c.802-.487 1.538-.225.934.31" fill="url(#b)"/></svg>