<?xml version="1.0" encoding="UTF-8" standalone="no"?>
<!-- Generator: Adobe Illustrator 16.0.0, SVG Export Plug-In . SVG Version: 6.00 Build 0)  -->

<svg
   xmlns:dc="http://purl.org/dc/elements/1.1/"
   xmlns:cc="http://creativecommons.org/ns#"
   xmlns:rdf="http://www.w3.org/1999/02/22-rdf-syntax-ns#"
   xmlns:svg="http://www.w3.org/2000/svg"
   xmlns="http://www.w3.org/2000/svg"
   xmlns:sodipodi="http://sodipodi.sourceforge.net/DTD/sodipodi-0.dtd"
   xmlns:inkscape="http://www.inkscape.org/namespaces/inkscape"
   version="1.1"
   id="レイヤー_1"
   x="0px"
   y="0px"
   width="120"
   height="120"
   viewBox="0 0 120 120"
   enable-background="new 0 0 128 128"
   xml:space="preserve"
   inkscape:version="0.91 r"
   sodipodi:docname="telephone.svg"><metadata
     id="metadata36"><rdf:RDF><cc:Work
         rdf:about=""><dc:format>image/svg+xml</dc:format><dc:type
           rdf:resource="http://purl.org/dc/dcmitype/StillImage" /><dc:title></dc:title></cc:Work></rdf:RDF></metadata><defs
     id="defs34" /><sodipodi:namedview
     pagecolor="#ffffff"
     bordercolor="#666666"
     borderopacity="1"
     objecttolerance="10"
     gridtolerance="10"
     guidetolerance="10"
     inkscape:pageopacity="0"
     inkscape:pageshadow="2"
     inkscape:window-width="1366"
     inkscape:window-height="744"
     id="namedview32"
     showgrid="false"
     inkscape:zoom="1.84375"
     inkscape:cx="64"
     inkscape:cy="64"
     inkscape:window-x="0"
     inkscape:window-y="24"
     inkscape:window-maximized="1"
     inkscape:current-layer="レイヤー_1" /><g
     id="g3"
     transform="matrix(0.87952227,0,0,0.87952227,4.062509,3.7777688)"><g
       id="g5"><path
         d="M 88.46,6.33 C 84.22,4.43 71.85,3.22 64,3.22 c -7.84,0 -20.23,1.21 -24.46,3.11 -4.15,1.86 -5.82,5.54 -5.82,8.99 l 0,97.35 c 0,3.46 1.67,7.13 5.82,8.99 4.23,1.9 16.62,3.11 24.46,3.11 7.85,0 20.22,-1.21 24.46,-3.11 4.15,-1.86 5.82,-5.54 5.82,-8.99 l 0,-97.34 c 0,-3.46 -1.67,-7.13 -5.82,-9 z"
         id="path7"
         inkscape:connector-curvature="0"
         style="fill:#006ca2" /><path
         d="m 69.57,10.75 -11.13,0 c -0.58,0 -1.04,-0.47 -1.04,-1.04 0,-0.57 0.46,-1.04 1.04,-1.04 l 11.13,0 c 0.58,0 1.04,0.46 1.04,1.04 0,0.57 -0.46,1.04 -1.04,1.04 z"
         id="path9"
         inkscape:connector-curvature="0"
         style="fill:#ffffff" /><path
         d="m 85.88,10.49 c 0,1.1 -0.9,1.99 -1.99,1.99 -1.1,0 -1.99,-0.89 -1.99,-1.99 0,-1.1 0.89,-1.99 1.99,-1.99 1.09,0 1.99,0.89 1.99,1.99 z"
         id="path11"
         inkscape:connector-curvature="0"
         style="fill:#ffffff" /><linearGradient
         id="SVGID_1_"
         gradientUnits="userSpaceOnUse"
         x1="63.9995"
         y1="104.7666"
         x2="63.9995"
         y2="22.714399"><stop
           offset="0"
           style="stop-color:#FFFFFF"
           id="stop14" /><stop
           offset="1"
           style="stop-color:#00A0D6"
           id="stop16" /></linearGradient><rect
         x="39.209999"
         y="22.709999"
         width="49.57"
         height="82.050003"
         id="rect18"
         style="fill:url(#SVGID_1_)" /></g><g
       id="g20"><path
         d="m 48.37,108.93 0,0.7 -1.53,-1.11 1.53,-1.12 0,0.7 0,0 0.88,0 c 1.72,0 2.83,0.51 2.83,1.99 0,1.49 -1.11,2 -2.83,2 l -1.98,0 0,-0.83 1.98,0 c 1.46,0 2,-0.32 2,-1.17 0,-0.84 -0.53,-1.16 -2,-1.16 l -0.88,0 0,0 z"
         id="path22"
         inkscape:connector-curvature="0"
         style="fill:#ffffff" /><path
         d="m 66.91,111.81 -5.73,0 0,-2.89 2.87,-1.21 2.87,1.21 0,2.89 z m -4.9,-0.84 4.07,0 0,-1.51 -2.03,-0.86 -2.04,0.86 0,1.51 z"
         id="path24"
         inkscape:connector-curvature="0"
         style="fill:#ffffff" /><g
         id="g26"><path
           d="m 80.55,111.81 -4.8,0 0,-3.04 4.8,0 0,3.04 z m -3.96,-0.84 3.14,0 0,-1.37 -3.14,0 0,1.37 z"
           id="path28"
           inkscape:connector-curvature="0"
           style="fill:#ffffff" /><polygon
           points="81.08,108.3 77.53,108.3 77.53,107.47 81.91,107.47 81.91,110.1 81.08,110.1 "
           id="polygon30"
           style="fill:#ffffff" /></g></g></g></svg>