<?xml version="1.0" encoding="UTF-8" standalone="no"?>
<svg
   xmlns:dc="http://purl.org/dc/elements/1.1/"
   xmlns:cc="http://creativecommons.org/ns#"
   xmlns:rdf="http://www.w3.org/1999/02/22-rdf-syntax-ns#"
   xmlns:svg="http://www.w3.org/2000/svg"
   xmlns="http://www.w3.org/2000/svg"
   xmlns:sodipodi="http://sodipodi.sourceforge.net/DTD/sodipodi-0.dtd"
   xmlns:inkscape="http://www.inkscape.org/namespaces/inkscape"
   version="1"
   width="64"
   height="64"
   id="svg2"
   inkscape:version="0.91 r"
   sodipodi:docname="vk.svg">
  <metadata
     id="metadata14">
    <rdf:RDF>
      <cc:Work
         rdf:about="">
        <dc:format>image/svg+xml</dc:format>
        <dc:type
           rdf:resource="http://purl.org/dc/dcmitype/StillImage" />
      </cc:Work>
    </rdf:RDF>
  </metadata>
  <defs
     id="defs12" />
  <sodipodi:namedview
     pagecolor="#ffffff"
     bordercolor="#666666"
     borderopacity="1"
     objecttolerance="10"
     gridtolerance="10"
     guidetolerance="10"
     inkscape:pageopacity="0"
     inkscape:pageshadow="2"
     inkscape:window-width="640"
     inkscape:window-height="480"
     id="namedview10"
     showgrid="false"
     inkscape:zoom="3.6875"
     inkscape:cx="32"
     inkscape:cy="32"
     inkscape:window-x="10"
     inkscape:window-y="34"
     inkscape:window-maximized="0"
     inkscape:current-layer="svg2" />
  <g
     id="g4"
     transform="matrix(0.89384785,0,0,0.89384785,3.0147166,3.8197837)"
     style="fill-rule:evenodd">
    <path
       d="m 11.907,2.772 40.65,0 c 5,0 9.054,4.054 9.054,9.054 l 0,40.65 c 0,5 -4.053,9.055 -9.054,9.055 l -40.65,0 c -5,0 -9.054,-4.054 -9.054,-9.055 l 0,-40.65 c 0,-5 4.054,-9.054 9.054,-9.054"
       id="path6"
       inkscape:connector-curvature="0"
       style="fill:#4c75a3" />
    <path
       d="m 31.74,43.905 2.403,0 c 0,0 0.726,-0.08 1.097,-0.48 0.34,-0.366 0.33,-1.055 0.33,-1.055 0,0 -0.047,-3.225 1.45,-3.7 1.475,-0.468 3.37,3.117 5.378,4.495 1.519,1.043 2.673,0.815 2.673,0.815 l 5.37,-0.075 c 0,0 2.81,-0.173 1.477,-2.382 -0.109,-0.18 -0.776,-1.634 -3.993,-4.62 -3.367,-3.125 -2.916,-2.62 1.14,-8.026 2.47,-3.292 3.458,-5.302 3.15,-6.163 -0.295,-0.82 -2.112,-0.604 -2.112,-0.604 l -6.046,0.038 c 0,0 -0.449,-0.061 -0.78,0.138 -0.326,0.194 -0.534,0.648 -0.534,0.648 0,0 -0.958,2.548 -2.233,4.715 -2.693,4.572 -3.77,4.814 -4.21,4.53 -1.024,-0.663 -0.768,-2.659 -0.768,-4.077 0,-4.43 0.672,-6.278 -1.308,-6.756 -0.658,-0.159 -1.142,-0.264 -2.823,-0.28 -2.157,-0.023 -3.983,0.006 -5.017,0.512 -0.688,0.337 -1.219,1.088 -0.895,1.13 0.4,0.054 1.304,0.245 1.784,0.898 0.62,0.843 0.598,2.736 0.598,2.736 0,0 0.356,5.216 -0.831,5.863 -0.815,0.445 -1.933,-0.462 -4.334,-4.61 -1.23,-2.125 -2.158,-4.473 -2.158,-4.473 0,0 -0.179,-0.44 -0.498,-0.674 -0.388,-0.285 -0.929,-0.375 -0.929,-0.375 l -5.746,0.037 c 0,0 -0.862,0.025 -1.18,0.4 -0.281,0.334 -0.022,1.023 -0.022,1.023 0,0 4.498,10.524 9.592,15.828 4.671,4.863 9.974,4.544 9.974,4.544"
       id="path8"
       inkscape:connector-curvature="0"
       style="fill:#ffffff" />
  </g>
</svg>
