<svg xmlns="http://www.w3.org/2000/svg" version="1" width="64" height="64"><g fill-rule="evenodd"><path d="M11.907 2.772h40.65c5 0 9.054 4.054 9.054 9.054v40.65c0 5-4.053 9.055-9.054 9.055h-40.65c-5 0-9.054-4.054-9.054-9.055v-40.65c0-5 4.054-9.054 9.054-9.054" fill="#4c75a3"/><path d="M31.74 43.905h2.403s.726-.08 1.097-.48c.34-.366.33-1.055.33-1.055s-.047-3.225 1.45-3.7c1.475-.468 3.37 3.117 5.378 4.495 1.519 1.043 2.673.815 2.673.815l5.37-.075s2.81-.173 1.477-2.382c-.109-.18-.776-1.634-3.993-4.62-3.367-3.125-2.916-2.62 1.14-8.026 2.47-3.292 3.458-5.302 3.15-6.163-.295-.82-2.112-.604-2.112-.604l-6.046.038s-.449-.061-.78.138c-.326.194-.534.648-.534.648s-.958 2.548-2.233 4.715c-2.693 4.572-3.77 4.814-4.21 4.53-1.024-.663-.768-2.659-.768-4.077 0-4.43.672-6.278-1.308-6.756-.658-.159-1.142-.264-2.823-.28-2.157-.023-3.983.006-5.017.512-.688.337-1.219 1.088-.895 1.13.4.054 1.304.245 1.784.898.62.843.598 2.736.598 2.736s.356 5.216-.831 5.863c-.815.445-1.933-.462-4.334-4.61-1.23-2.125-2.158-4.473-2.158-4.473s-.179-.44-.498-.674c-.388-.285-.929-.375-.929-.375l-5.746.037s-.862.025-1.18.4c-.281.334-.022 1.023-.022 1.023s4.498 10.524 9.592 15.828c4.671 4.863 9.974 4.544 9.974 4.544" fill="#fff"/></g></svg>