<svg xmlns="http://www.w3.org/2000/svg" width="120" height="120" viewBox="0 0 120 120" preserveAspectRatio="xMidYMid"><defs><linearGradient x1="1.321" y1="127.762" x2="211.764" y2="127.762" id="a" gradientTransform="scale(1.20333 .83103)" gradientUnits="userSpaceOnUse"><stop stop-opacity=".1" offset="0%"/><stop stop-opacity=".2" offset="100%"/></linearGradient></defs><path d="M108.457 103.49H12.9c-3.705 0-6.825-3.022-6.825-6.825V27.63c0-3.705 3.023-6.825 6.825-6.825h95.557c3.705 0 6.825 3.023 6.825 6.825v69.035a6.783 6.783 0 0 1-6.825 6.826z" fill="#e3e3e3"/><path d="M19.726 103.49L60.58 70.63l.293-1.754L18.75 38.55l-.098 63.477 1.073 1.463z" opacity=".1" fill="#231f20"/><path d="M12.9 103.49a6.783 6.783 0 0 1-6.825-6.825V27.533c0-3.803 3.023-4.485 6.825-4.485 3.803 0 6.826.78 6.826 4.485v75.958H12.9z" fill="#d54b3d"/><path d="M12.9 24.023c4.876 0 5.85 1.462 5.85 3.51v74.983H12.9c-3.217 0-5.85-2.633-5.85-5.85V27.532c0-2.145.975-3.51 5.85-3.51zm0-.975c-3.802 0-6.825.78-6.825 4.485v69.132a6.783 6.783 0 0 0 6.825 6.826h6.826V27.533c0-3.803-3.023-4.485-6.826-4.485z" fill="#d72b27"/><path d="M108.457 103.49h-6.826V27.339c0-3.803 3.023-4.29 6.826-4.29 3.803 0 6.825.487 6.825 4.29v69.425c0 3.705-3.022 6.728-6.825 6.728z" fill="#d54b3d"/><path d="M108.457 24.023c4.388 0 5.85.877 5.85 3.315v69.425c0 3.217-2.632 5.85-5.85 5.85h-5.85V27.338c0-2.535 1.462-3.315 5.85-3.315zm0-.975c-3.803 0-6.826.487-6.826 4.29v76.25h6.826a6.783 6.783 0 0 0 6.825-6.825V27.338c0-3.803-3.022-4.29-6.825-4.29z" fill="#d72b27"/><path d="M170.667 193.595L1.58 23.195l8.894 3.617 117.702 84.755L254.74 18.76v159.157c0 8.634-7.044 15.678-15.906 15.678h-68.167z" fill="url(#a)" transform="translate(5.968 20.415) scale(.42912)"/><path d="M60.58 70.63L9 33.189c-3.023-2.242-3.9-6.533-1.658-9.555 2.243-3.023 6.63-3.706 9.75-1.463l43.586 31.69 43.878-32.08c3.023-2.243 7.313-1.56 9.556 1.56 2.242 3.023 1.56 7.313-1.56 9.556L60.58 70.63z" fill="#d54b3d"/><path d="M108.456 21.39c1.853 0 3.608.878 4.778 2.438 1.853 2.632 1.268 6.24-1.267 8.19L60.58 69.461 9.585 32.408c-2.633-1.95-3.315-5.655-1.463-8.19 1.073-1.463 2.925-2.438 4.876-2.438 1.267 0 2.535.39 3.51 1.17l43.488 31.592.585.39.585-.39 43.78-32.08c1.073-.682 2.243-1.072 3.51-1.072zm0-.975c-1.365 0-2.827.39-3.997 1.268L60.58 53.763l-43.586-31.69c-1.17-.878-2.632-1.268-4.095-1.268-2.145 0-4.29.975-5.655 2.828C5.1 26.655 5.977 30.946 9 33.188l51.58 37.54 51.874-37.832c3.023-2.243 3.705-6.436 1.56-9.556-1.365-1.95-3.412-2.925-5.558-2.925z" fill="#d72b27"/></svg>