<svg xmlns="http://www.w3.org/2000/svg" viewBox="0 0 63.998732 63.998732" height="64" width="64"><g fill="#100f0d"><path d="M31.772 3.51c-7.772 0-8.758.033-11.793.17-3.036.144-5.12.62-6.93 1.326-1.888.731-3.486 1.7-5.068 3.3-1.573 1.58-2.55 3.18-3.282 5.067-.706 1.785-1.19 3.877-1.327 6.913-.136 3.052-.17 4.03-.17 11.793 0 7.738.034 8.724.17 11.768.145 3.027.621 5.119 1.327 6.938.731 1.871 1.7 3.461 3.299 5.051 1.582 1.582 3.18 2.568 5.068 3.3 1.802.705 3.886 1.19 6.921 1.326 3.044.136 4.022.17 11.777.17 7.737 0 8.723-.034 11.767-.17 3.036-.145 5.12-.621 6.93-1.327 1.871-.731 3.461-1.7 5.051-3.299 1.59-1.59 2.568-3.18 3.3-5.06.705-1.819 1.19-3.91 1.326-6.937.136-3.044.17-4.022.17-11.777 0-7.763-.034-8.74-.17-11.785-.145-3.035-.621-5.119-1.327-6.93-.731-1.887-1.7-3.486-3.299-5.067-1.573-1.565-3.163-2.543-5.034-3.274-1.82-.706-3.911-1.19-6.938-1.326-3.044-.137-4.03-.17-11.768-.17zm0 5.144c7.619 0 8.52.034 11.53.17 2.789.127 4.302.595 5.306.978 1.335.51 2.295 1.139 3.282 2.142 1.003.995 1.615 1.956 2.126 3.282.4 1.004.867 2.517.994 5.306.136 3.01.17 3.912.17 11.539 0 7.618-.034 8.52-.17 11.53-.127 2.788-.595 4.302-.986 5.305-.51 1.335-1.13 2.296-2.126 3.282-1.003 1.004-1.955 1.616-3.29 2.126-1.004.4-2.517.867-5.306.995-3.01.136-3.911.17-11.538.17-7.636 0-8.537-.034-11.547-.17-2.79-.128-4.303-.595-5.306-.986-1.335-.51-2.296-1.131-3.282-2.126-1.004-1.003-1.616-1.956-2.143-3.29-.391-1.004-.85-2.518-.978-5.306-.136-3.01-.17-3.912-.17-11.539 0-7.635.034-8.537.17-11.547.128-2.789.595-4.302.978-5.306.51-1.335 1.14-2.295 2.143-3.282.995-1.003 1.955-1.615 3.282-2.142 1.003-.392 2.517-.85 5.306-.978 3.01-.136 3.91-.17 11.538-.17"/><path d="M31.772 41.602c-5.272 0-9.523-4.277-9.523-9.523a9.508 9.508 0 0 1 9.523-9.523c5.246 0 9.523 4.251 9.523 9.523 0 5.246-4.277 9.523-9.523 9.523zm0-24.199c-8.112 0-14.676 6.564-14.676 14.668 0 8.094 6.564 14.659 14.668 14.659 8.094 0 14.658-6.565 14.658-14.668 0-8.112-6.564-14.676-14.667-14.676m18.68-.561a3.422 3.422 0 0 1-3.426 3.427 3.424 3.424 0 0 1-3.426-3.436 3.422 3.422 0 1 1 6.845 0"/></g></svg>