<svg xmlns="http://www.w3.org/2000/svg" width="200" height="200" display="block"><g fill-rule="evenodd"><path d="M113.753 1.117c.206.053.542.053.748 0 .205-.054.037-.098-.374-.098s-.58.044-.374.098M25.1 11.437c0 .41.044.579.098.373a1.765 1.765 0 0 0 0-.747c-.054-.206-.098-.038-.098.374m128.547 4.125c0 .037.312.35.694.694l.694.628-.627-.695c-.585-.647-.761-.792-.761-.627m-13.19 4.567c.205.053.541.053.747 0 .205-.054.037-.098-.374-.098s-.58.044-.374.098m7.85-.066c0 .19.864.289.974.111.066-.106-.126-.193-.427-.193-.3 0-.547.037-.547.082m24.833 7.328c.206.054.542.054.748 0 .205-.054.037-.097-.374-.097s-.58.043-.374.097m-39.198 2.57a6.778 6.778 0 0 0 1.388 0c.382-.046.07-.085-.694-.085s-1.076.039-.694.086m38.13 7.042c.206.053.542.053.748 0 .205-.054.037-.098-.374-.098s-.58.044-.374.098m-2.99 2.736c.002.47.046.638.097.372.051-.266.05-.65-.004-.855-.053-.204-.096.014-.093.483m-64.199 6.307c.378.396.724.678.768.625.045-.053-.265-.377-.687-.721l-.768-.626.687.722M74.982 70.55c.5.045 1.317.045 1.816 0 .5-.045.09-.082-.908-.082-.999 0-1.407.037-.908.082m4.054-.002c.38.047 1.052.048 1.495.001.444-.046.133-.085-.69-.086-.822 0-1.184.037-.805.085m68.597 12.075c.108.108.423.16.701.117.428-.068.398-.098-.196-.196-.424-.07-.623-.04-.505.08m-.132 23.23c0 .41.043.579.097.373a1.765 1.765 0 0 0 0-.748c-.054-.205-.097-.037-.097.374m23.929.32c.002.47.046.638.097.372.051-.266.05-.65-.004-.855-.054-.204-.096.014-.093.484m-52.767 8.865c0 .41.043.58.097.374a1.765 1.765 0 0 0 0-.748c-.054-.206-.097-.037-.097.374m35.994 7.743c.154 1.203.27 1.293.27.209 0-.483-.087-.931-.193-.997-.11-.068-.143.27-.077.788m-38.336 18.745c0 .529.042.745.093.48a3.023 3.023 0 0 0 0-.96c-.05-.265-.093-.049-.093.48m11.966 31.295c.001.587.043.802.092.477.049-.325.048-.805-.003-1.068-.05-.262-.091.003-.09.59m11.956 4.273c.002.47.046.637.097.371.051-.265.05-.65-.004-.854-.053-.204-.096.013-.093.483"/><path d="M126.95.466c-.88.174-1.696.396-1.816.491-.121.096-.867.241-1.66.324-.79.082-1.493.237-1.56.345-.069.11-1.497.154-3.313.099-3.104-.093-3.708.021-2.765.526.235.126.427.4.427.611 0 1.319 2.5 1.984 3.54.943.825-.825 1.416-1.127 2.204-1.127.705 0 1.733-.395 1.733-.667 0-.902 8.565-1.361 9.485-.508.635.588 3.773.816 4.094.297.095-.154.513-.189 1.187-.1 1.21.16 1.321-.032.345-.6-1.36-.793-9.04-1.201-11.902-.634m-13.676 1.239c0 .62.023.626 1.134.318 1.044-.29.915-.713-.243-.799-.831-.061-.891-.029-.891.48m26.701.498c0 .225.24.69.534 1.03.294.342.534.753.535.913 0 .582.747 2.378.958 2.304.41-.144.016-1.998-.731-3.427-.588-1.126-1.296-1.574-1.296-.82m-16.234.455c0 .125-.265.29-.588.366-.323.077-.731.26-.908.407-2 1.665-6.38 1.442-7.916-.404-.772-.928-2.931.108-2.703 1.299.062.327.017 1.123-.101 1.77-.118.647-.25 1.495-.294 1.886-.043.39-.277 1.032-.52 1.426-.269.434-.523 1.374-.646 2.387-.445 3.655-.788 4.363-2.47 5.107-1.08.477-1.74 1.585-.943 1.585.117 0 .213.37.213.821 0 .872.491 1.529 1.143 1.529.199 0 .471.24.605.534.134.293.37.534.526.534.88 0 .536 1.78-.412 2.132-.878.327-1.458.59-1.862.841-.176.11-.464.259-.64.33-.69.282-1.348.734-2.04 1.405l-.72.7-2.82.061c-2.938.064-3.17.141-3.174 1.046-.001.665 1.027 2.717 1.664 3.32.316.299.886.998 1.267 1.554.382.555.958 1.11 1.282 1.233.324.122.78.402 1.016.622.235.22.694.5 1.02.623.326.124.655.395.732.602.213.577.498.69 1.772.702.646.005 1.415.148 1.71.316.293.167.966.31 1.495.314 2.67.026 3.159.195 3.552 1.226.391 1.024 1.057 1.984 1.376 1.984.327 0 .226-.711-.229-1.602-.402-.787-.575-1.815-.306-1.815.24 0 1.07.51 1.857 1.14.713.571.97.645 2.279.66 1.767.018 1.944.147 1.335.97-.825 1.117-.554 1.502 1.06 1.502.467 0 1.275.107 1.795.238.929.234.959.225 1.718-.534.424-.425.895-.772 1.045-.772.15 0 .384-.134.52-.299.14-.168.443-.247.694-.181.285.074.518-.01.644-.236.109-.194.496-.507.86-.696.984-.508 1.525-1.081 1.38-1.46-.07-.183-.08-.332-.023-.332.058 0 .197.24.309.534.111.293.35.534.528.534.18 0 .326.144.326.32 0 .176.144.32.32.32.177 0 .323-.12.324-.267.003-.193.055-.185.19.028.221.35 1.284-.3 1.295-.79.014-.568 1.075-1.239 1.075-.68 0 .118.313.214.695.214.758 0 1.462 1.006 1.767 2.523.172.858 1.13.8 1.986-.122.515-.553.796-.471.927.27.115.642.985.62 2.209-.058 1.24-.687 1.254-.801.52-4.148-.225-1.02-.353-2.134-.284-2.476l.124-.62 1.092 1.154c.68.718 1.223 1.12 1.44 1.063.267-.07.326.028.252.414-.059.305.005.505.16.505.546 0 1.93 1.21 2.23 1.945.26.642.445.793 1.1.9.778.126 1.59.663 1.59 1.053 0 .11.192.444.427.743s.427.723.427.942c0 .219.089.398.197.398.108 0 .351.467.54 1.037.19.57.61 1.46.933 1.976.676 1.08 1.239 2.675 1.143 3.242-.036.213.118.698.341 1.078.225.38.474.952.554 1.271.214.856.992.809.992-.06 0-.508.092-.64.45-.64.247 0 .814.288 1.259.64.985.78 1.081.783 3.117.08 1.91-.66 3.606-.614 4.603.123.327.24.686.438.798.438.113 0 .522.337.91.748s.793.748.899.748c.275 0 1.91 1.894 2.199 2.548.133.302.36.858.503 1.237.461 1.213 2.584 1.233 3.44.031.253-.355.688-.874.967-1.153.83-.83.666-1.428-.711-2.593a79.7 79.7 0 0 1-1.567-1.352c-1.224-1.129-1.997-1.709-2.276-1.709-.418 0-1.505-.779-1.765-1.265-.338-.631.688-.299 1.668.54 1.066.913 1.393.936 1.207.084-.208-.943.052-.78.316.198.222.826 1.257 1.938 1.803 1.938.149 0 .55.249.891.552.342.303 1.006.805 1.475 1.115.47.31 1.54 1.071 2.379 1.691.837.62 1.601 1.128 1.697 1.128.095 0 .42.237.722.525.3.29 1.327.907 2.28 1.372 1.644.803 1.771.918 2.518 2.252.735 1.315 1.38 1.906 1.093 1.003-.096-.303.003-.435.4-.535 1.001-.251.262-5.614-.832-6.033-.187-.072-.47-.384-.63-.693-.425-.82-2.328-2.773-4.286-4.394-.94-.779-1.994-1.652-2.342-1.942-.349-.29-.74-.526-.87-.526s-.565-.3-.969-.666l-.732-.665 2.601.15c3.177.181 4.807-.658 3.744-1.928-.093-.111-.294-.587-.445-1.057-.838-2.599-2.243-4.165-3.734-4.165-.406 0-.925-.184-1.205-.428-.27-.235-.659-.427-.86-.427-.204 0-.694-.132-1.09-.293-.396-.16-1.393-.366-2.216-.456-1.958-.213-2.044-.214-2.668-.007-.462.153-.496.133-.262-.149.148-.178.564-.384.924-.456 1.709-.342 2.024-2.69.472-3.517-.579-.308-2.091-.324-2.645-.028-.764.409-.602 3.489.208 3.967.655.387.668.431 1.069 3.396.225 1.669.4 2.243.682 2.243.105 0 .191.24.191.534 0 .316-.122.534-.3.534-.186 0-.262-.15-.2-.389.097-.366-.485-1.078-.76-.932-.071.036-.427.01-.793-.058-.366-.069-.884-.043-1.153.056-.385.143-.74.015-1.685-.608-.658-.434-1.472-.854-1.81-.935-1.265-.301 1.606-.527 3.71-.291.457.05.533-.026.526-.528-.004-.323.068-.588.16-.588.296 0 .181-1.025-.151-1.358-.177-.176-.32-.412-.32-.526 0-.113-.17-.271-.375-.351-.356-.138-.356-.158 0-.42.53-.39.498-1.911-.057-2.69-.266-.374-.348-.657-.213-.74.12-.074.217-.336.217-.581 0-.433-.061-.442-1.976-.28-1.087.09-2.216.161-2.51.156-.294-.005-1.015.113-1.602.262-.588.149-1.437.226-1.887.17-.45-.055-1.375.017-2.055.161-1.082.23-1.303.218-1.78-.094-.372-.244-.941-.347-1.79-.325-.686.018-2.15-.076-3.255-.21-1.282-.154-2.084-.168-2.214-.038-.423.423.103.61 2.116.751 1.14.08 2.706.307 3.479.503l1.405.358-1.068.184c-1.23.211-7.259.126-7.49-.106-.238-.24.334-.807.815-.807.624 0 .412-1.842-.277-2.4-.263-.213-.441-.417-.395-.452.931-.722 1.687-1.176 2.129-1.28.302-.071.975-.446 1.495-.833.52-.386 1.407-.927 1.971-1.2.564-.274 1.14-.68 1.28-.904.14-.224.347-.407.461-.407.754 0 3.37-3.669 2.93-4.108-.441-.442-1.317.007-1.317.676 0 .633-2.1 2.78-2.724 2.788-.147.001-.267.147-.267.323 0 .177-.14.32-.314.32-.172 0-.69.197-1.151.438-.731.38-1.09.42-2.807.313-2.242-.141-2.777-.037-2.777.539 0 .28-.104.367-.333.278-.215-.082-.372.016-.441.274-.247.922-2.684 2.42-4.156 2.555-.754.07-1.516.18-1.692.247-.661.249-1.837.204-2.424-.095-.414-.21-1.112-.286-2.19-.239-1.048.046-1.582-.01-1.582-.165 0-.288.733-1.154.976-1.154.097 0 .422-.23.722-.514.3-.283 1.027-.775 1.614-1.095.587-.32 1.267-.76 1.51-.98.242-.221.541-.401.665-.401.123 0 .457-.183.741-.407.285-.224.932-.623 1.439-.888.66-.344 1.034-.728 1.317-1.355.218-.481.563-1.133.767-1.448.466-.718-.212-1.438-1.366-1.45-.617-.006-.694-.073-.694-.607 0-.627-.349-1.218-.798-1.35-.266-.08.896-1.39 2.768-3.119l.978-.904.342 1.865c.188 1.026.344 2.154.345 2.507.006 1.277 1.156 1.72 3.928 1.511 1.343-.1 1.657-.072 1.454.13-.898.899-.186 1.2 1.437.606.663-.242 1.254-.345 1.386-.242.297.233 3.288-.097 3.914-.432.613-.328.605-.584-.053-1.553-.294-.433-.534-.907-.534-1.054 0-.417-3.211-3.507-4.166-4.01-.47-.247-1.046-.616-1.281-.82-.235-.204-1.053-.593-1.816-.866-.764-.272-1.55-.632-1.747-.8-.254-.216-.768-.284-1.762-.233l-1.405.072v-.71c0-.39-.144-.853-.32-1.029-.176-.176-.32-.65-.32-1.053 0-.639-.069-.732-.534-.732-.294 0-.534-.083-.534-.184 0-.102-.289-.547-.641-.991-.353-.444-.64-1.016-.64-1.271 0-1.014-1.004-1.572-3.098-1.724-1.058-.076-2.256-.241-2.664-.366-.41-.126-1.887-.197-3.31-.16-4.01.105-5.93.078-6.683-.093-.446-.102-.694-.077-.694.068M26.283 8.072c-.499.389-1.02 2.14-1.02 3.431 0 1.253-.845 2.497-1.696 2.497-.574 0-.564.53.018.937.456.32.456.322-.16.469-.888.213-1.12.456-1.384 1.45-.283 1.06-.75 1.63-1.336 1.63-.238 0-.824.185-1.302.41-1.143.54-4.463 1.085-6.609 1.085-1.496 0-1.815.07-2.514.555-.71.492-.847.521-1.225.256-.515-.36-.36-.636.561-1.009.723-.292.93-.656.373-.656-.375 0-1.615.637-2.103 1.08-.186.17-.495.441-.687.603-.746.632.186 2.429 1.399 2.695.32.07 1.56-.07 2.755-.314 1.572-.32 2.284-.383 2.58-.224.224.12.815.218 1.313.218.535 0 1.061.142 1.288.347.541.49 1.12.222.954-.442-.12-.482-.057-.53.886-.666.558-.08 1.134-.242 1.28-.358.657-.523.461.478-.244 1.248-.534.582-.724.963-.654 1.308l.2.983c.14.68 1.067 1.639 1.586 1.639.235 0 .686.24 1.003.534.654.606 1.369.706 1.369.19 0-.225.116-.298.338-.213a2.2 2.2 0 0 0 .587.137c.137.004.06.149-.17.323-.495.375.11 1.206.923 1.266.232.017.55.135.707.262.162.132 1.71.28 3.596.342 4.286.143 5.962.717 5.988 2.05.008.438.721.95 1.809 1.299.987.317 1.43.619 1.274.87-.06.097.022.255.183.35.16.095.545.613.857 1.151.312.538.853 1.259 1.203 1.602.35.344.64.844.642 1.112.003.268.142.539.307.603.166.064.366.373.444.687.183.738 1.493 2.471 2.87 3.8.595.575 1.083 1.165 1.084 1.312 0 .146.12.267.268.268.147.001.482.379.745.84.263.46.672.899.908.974.236.075.43.28.43.454 0 .175.277.577.616.894.339.316.682.791.762 1.056.08.264.275.48.434.48.158 0 .32.075.36.168.326.768 3.017 2.823 3.697 2.823.413 0 .753.086.753.192 0 .288 3.665 3.848 4.105 3.988.209.066.38.254.38.417 0 .163.337.455.748.65.8.38.88.516.515.881-.452.452.03 4.075.584 4.403a.67.67 0 0 1 .29.522c0 .528 1.002 1.871 1.651 2.212.648.34 2.407 2.03 2.407 2.312 0 .102.427.638.95 1.191l.95 1.005 1.133-.148c1.375-.18 1.875-.62 2.032-1.786.107-.804.075-.886-.347-.886-.392 0-.218-.286 1.093-1.8 1.576-1.818 2.142-2.125 2.27-1.229.038.27.206.544.372.608.2.076.259.29.173.63-.071.283-.017.65.12.814.193.233.158.385-.161.691-.245.235-.466.836-.55 1.498-.18 1.4-.293 1.362 4.172 1.376 5.039.014 6.3.618 5.898 2.826-.11.605-.146 1.43-.081 1.832.119.73-.13 2.304-.492 3.114-.847 1.898-1.173 2.51-1.235 2.323-.04-.12.17-.766.467-1.436.987-2.232.593-2.876-.967-1.581-.61.506-.837.859-.84 1.3-.003.436-.276.871-.965 1.542-.529.513-.961 1.012-.961 1.108 0 .354-1.595 1.803-2.427 2.204-1.134.548-1.418.524-1.418-.12 0-.33-.122-.534-.32-.534-.244 0-.306.235-.266 1.015l.052 1.015-1.068.071c-1.822.123-6.289-.976-6.907-1.698-.19-.221-.417-.403-.506-.403-.089 0-.568-.44-1.065-.979-2.003-2.173-3.12-2.156-4.76.072a78.648 78.648 0 0 1-1.603 2.106c-.297.366-.972 1.218-1.5 1.895-.528.676-1.176 1.311-1.441 1.412-.266.101-.484.306-.485.456-.002.15-.527.753-1.167 1.34-.64.588-2.595 2.462-4.345 4.166-1.75 1.703-4.638 4.508-6.417 6.234l-3.235 3.137-.034 1.242c-.022.778-.067.978-.122.536-.102-.83-.402-.998-1.223-.686-.543.207-.586.3-.471 1.009.176 1.083.647 1.531 1.229 1.168.4-.25.434-.23.37.218-.046.323-.237.517-.556.561-.267.038-.645.327-.84.641-.49.796-.914 1.106-1.506 1.106-.488 0-.506.056-.458 1.374l.05 1.373-1.05 1.02c-.577.56-1.149 1.215-1.269 1.456-.358.717-1.113.678-1.544-.08-.715-1.255-1.487-.742-1.589 1.059L30.283 116l-.925.067c-.773.055-.902.126-.777.427.403.976.377 1.108-.216 1.108-.318 0-.834.177-1.146.393-.312.215-.746.457-.963.535-.25.091-.349.267-.268.48.072.185.13.517.13.738 0 .687.764.927 1.725.542.832-.332 1.189-.114.456.279-.21.112-.523.476-.695.808a5.75 5.75 0 0 1-.68 1.013c-1.493 1.654-1.9 3.153-.644 2.37.322-.201.73-.527.906-.725.176-.197.623-.484.993-.636a3.96 3.96 0 0 0 1.159-.794c.267-.284.565-.517.662-.517.096 0 .632-.317 1.19-.704.56-.388 1.297-.844 1.64-1.015.342-.17 1-.67 1.459-1.111.46-.441.882-.801.94-.801.057 0 .523-.289 1.035-.641.513-.353 1.015-.641 1.117-.641.102 0 .565-.393 1.03-.872 1.434-1.481 4.157-3.45 4.818-3.484.332-.016.723-.149.868-.293.145-.146.485-.264.755-.264s.491-.086.491-.19c0-.474.729-.378 1.935.253l1.309.684-.097 1.389c-.075 1.066-.256 1.655-.779 2.539-.974 1.642-.862 2.267.404 2.267 1.185 0 1.344.42.554 1.457-.302.396-.549.868-.549 1.05a.525.525 0 0 1-.315.452c-.174.067-.52.558-.771 1.091-.251.534-.535.97-.63.97-.385 0-.847.706-.847 1.293 0 .345-.332 1.14-.748 1.79-.411.643-.748 1.234-.748 1.312 0 .08-.386.722-.857 1.428-.472.707-.91 1.536-.974 1.843-.064.307-.311 1.327-.55 2.267-.238.94-.527 2.094-.642 2.564-.116.47-.312 1.041-.437 1.27-.125.229-.275 1.013-.333 1.742l-.107 1.327 1.448.155c1.634.175 5.265-.041 5.44-.323.062-.102.594-.428 1.18-.724s1.397-.785 1.802-1.085c.895-.665 1.507-.714 1.507-.12 0 .586.281.537 1.074-.187 1.3-1.188 5.204-1.148 4.37.044-.175.249-.317.626-.317.839 0 .212-.145.442-.32.509-.183.07-.321.389-.321.741 0 .521-.086.618-.55.618-.73 0-.668.925.07 1.03.39.055.48-.034.48-.481 0-.469.094-.549.648-.549h.649l-.542.797c-.93 1.37-.724 1.858.478 1.125.385-.235.822-.427.972-.427.15 0 .393-.12.54-.267.147-.147.334-.274.416-.282.346-.036 1.325-.602 1.325-.767 0-.098.175-.179.39-.179.214 0 .862-.336 1.44-.748.579-.41 1.185-.747 1.348-.747.162 0 .763-.337 1.336-.748.572-.411 1.177-.748 1.345-.748.506 0 4.117-1.88 4.867-2.534.386-.337.926-.682 1.199-.768.82-.255 3.7-1.605 4.292-2.01.303-.209.992-.542 1.53-.742.538-.199 1.19-.558 1.447-.798.412-.384 1.849-.88 3.436-1.188.287-.055.96-.28 1.495-.498.536-.219 1.263-.459 1.615-.533.353-.074 1.357-.43 2.233-.79.875-.36 1.884-.676 2.243-.703.358-.027 1.612-.31 2.787-.626 1.175-.317 2.857-.672 3.738-.788a34.718 34.718 0 0 0 2.946-.537c1.91-.463 2.382-.2 2.392 1.329.003.462.495.71 1.419.717.25.001.582.157.739.345.156.189.48.428.72.534.896.392 3.071 2.044 4.11 3.122.718.744 1.298.64 1.467-.263.077-.412.226-.802.33-.867.104-.065.19-.358.19-.654 0-.698.571-1.302.91-.962.565.564 2.08.296 2.08-.368 0-.405.252-.879.748-1.404.411-.436.748-.932.748-1.102 0-.17.248-.786.553-1.368.304-.582.684-1.757.844-2.612l.29-1.555-.026 1.389c-.016.876.106 1.693.332 2.215.196.455.349.984.34 1.175-.011.221-.056.25-.125.08-.162-.4-.71-.32-.73.108-.01.223-.06.266-.125.106-.204-.507-.878-.285-1.105.365-.363 1.042-.068 3.096.387 2.685.448-.406 1.073-.424 1.073-.032 0 .162-.213.437-.474.61-.402.267-.439.391-.243.827.359.799-.405 2.2-1.416 2.597-1.231.484-2.038 3.27-1.141 3.943.308.23.284.284-.219.475-.763.29-.786 1.08-.031 1.08.41 0 .534-.11.536-.48.002-.418.123-.35.934.528l.93 1.01-.107 1.495c-.102 1.425-.078 1.525.509 2.13 1.16 1.197 1.47 1.62 1.943 2.637.26.56.612 1.072.784 1.138.522.2.608.733.107.656-.24-.037-.502-.158-.58-.27-.219-.31-2.52-2.222-2.675-2.222-.076 0-.62-.346-1.209-.77-1.027-.737-2.133-.898-2.133-.31 0 .106-.347.647-.77 1.202-.423.554-.795 1.237-.826 1.516-.03.28-.197.674-.37.877-.858 1.01-1.277 2.278-1.318 3.995-.042 1.743-.486 2.865-1.139 2.883-.266.006-.701 1.276-.703 2.053 0 .246-.073.517-.161.604-.202.2-.718 5.077-.748 7.069-.06 3.951 1.542 6.172 2.388 3.311.156-.529.376-1.634.487-2.457l.315-2.299c.08-.568-.001-.975-.276-1.388-.214-.322-.363-.748-.331-.949.031-.2-.082-.584-.252-.854-.218-.346-.277-.854-.2-1.72.116-1.277.354-1.572.601-.747.173.578 2.002 2.51 2.376 2.51.145 0 .711.313 1.258.694.547.382 1.104.764 1.24.848.48.3 3.114 1.449 3.323 1.449 1.298 0 1.648 1.317.962 3.626-.187.628-.293 1.38-.238 1.672.056.292-.028.84-.186 1.219-.712 1.704.806 3.732 1.878 2.508.61-.695 1.593-3.144 1.728-4.302.073-.632.281-1.313.461-1.511.18-.2.327-.667.327-1.04 0-.981 2.464-.944 2.605.04.037.255.253.487.492.531 1.564.283 2.433.916 2.499 1.817.077 1.065 1.062 1.385 1.846.6.23-.229.71-.48 1.066-.56.716-.156 1.02-.44 1.135-1.058.042-.225.184-.445.316-.49.152-.05.2.124.132.48-.072.37.051.774.364 1.196.464.628.466.678.2 3.401-.255 2.608-.493 3.268-.926 2.568-.066-.108-.394-.257-.727-.33-.333-.073-.815-.417-1.072-.764-.408-.552-.6-.631-1.528-.631h-1.062v.964c0 .53-.111 1.142-.248 1.36-.194.312-.171.588.106 1.28.317.794.319.882.017.882-.537 0-.148 1.258.577 1.869.34.285.616.688.616.895 0 .747.46 1.668.942 1.887.347.158.533.472.626 1.057.078.483.359 1.043.671 1.337.296.278.538.659.538.845 0 .187.193.699.428 1.137.26.484.427 1.205.427 1.838 0 2.512 1.983 2.764 2.474.314.183-.906.552-1.278 1.254-1.261.452.01.702-.124.878-.474.137-.27.395-.606.574-.748.219-.173.36-.766.428-1.786.072-1.116.28-1.914.77-2.961.84-1.795.957-3.882.244-4.327-.499-.312-.557-1.645-.188-4.322l.31-2.243c.049-.352.187-1.65.307-2.884.358-3.673.392-3.798 1.218-4.428.41-.312.833-.8.94-1.084.16-.418.288-.485.674-.352.262.09.954.186 1.537.212.582.026 1.095.154 1.139.286.044.132.396.24.783.24 1.31 0 1.991.233 2.097.716.055.252.17.627.257.832.286.68-.873.47-1.41-.257-.573-.775-.896-.91-1.567-.654-.668.254-2.457 2.011-2.492 2.448-.089 1.097-.529 1.614-1.373 1.614-.835 0-1.692 1.025-1.501 1.797.056.224.01.578-.1.785-.436.814.32 5.711.99 6.41 1.117 1.166 1.797.557 1.797-1.612 0-1.705.117-1.679 1.537.345.48.686.991 1.247 1.135 1.247.234 0 .956 1.527.961 2.036.002.114.333.528.737.92.411.4.89 1.18 1.086 1.771.202.61.569 1.2.865 1.393.283.186.514.468.514.627 0 .159.457.975 1.015 1.813.558.838 1.19 1.865 1.405 2.282.215.416.528.894.694 1.061.167.167.304.383.304.482 0 .097.337.595.75 1.106l.918 1.141c.093.118.234.382.312.588.084.22.366.374.683.374.532 0 .753.32.322.464-.136.046-.075.419.16.978.412.98.836 1.128 1.87.657.422-.192.61-.192.801 0 .192.192.145.25-.201.25-.822 0-1.129.24-1.129.878 0 .34.096.618.214.618.117 0 .213.095.213.212 0 .116.334.649.742 1.183s.895 1.295 1.083 1.692c.44.927 1.062 1.484 1.478 1.324.416-.16.422-.766.013-1.35-.288-.41-.279-.46.106-.56.235-.062.423-.292.423-.518 0-.224.141-.593.314-.821.741-.98.155-2.199-.777-1.616-.534.333-.334-1.84.208-2.27.5-.396.58-.337.578.427-.002.593.076.698.532.718.973.042 1.033.079 1.27.778.13.382.547.924.926 1.206.38.28 1.027.933 1.437 1.448 1.17 1.471 1.909 1.293 2.375-.571.364-1.453.685-1.668 1.409-.945.837.838 3.264-.174 3.264-1.36 0-.186.174-.537.387-.779.213-.242.567-.874.786-1.402.22-.53.502-1.058.627-1.175.803-.751 1.21-4.27.61-5.285-.594-1.007-.431-2.299.29-2.299.3 0 .574-.157.652-.373.073-.206.31-.546.527-.757.233-.226.393-.684.393-1.124 0-.602.126-.819.665-1.147.595-.361.911-.75 1.391-1.705.275-.547-.798-2.12-2.296-3.369-.808-.673-1.469-1.303-1.469-1.401 0-.098-.336-.377-.748-.619-.654-.386-.747-.546-.747-1.289 0-.466-.096-1.027-.214-1.247-.144-.268-.144-.445 0-.533.331-.205.28-4.808-.053-4.803-.694.008-.805.365-.856 2.731-.029 1.314-.124 2.39-.212 2.39-.089.001-.16.243-.16.536 0 1.74-1.325.014-1.447-1.884-.11-1.726-.924-2.505-1.212-1.16l-.192.908c-.05.235-.102.032-.116-.45-.013-.483-.061-1.3-.106-1.816-.055-.622-.037-.722.053-.297.306 1.45 1.212.86 1.148-.748l-.056-1.388.999-.748c2.216-1.66 3.036-3.085 3.04-5.29.001-.735.065-1.438.14-1.561.077-.123.022-.506-.12-.851-.234-.563-.203-.704.3-1.362.613-.804.778-2.518.323-3.367-.17-.316-.17-.48-.003-.584.151-.093.215-1.032.182-2.684l-.05-2.541.705-.411c.93-.544.993-.423.54 1.058-.431 1.404-.42 2.013.043 2.271.173.097.314.292.314.434 0 1.17 3.23 1.434 5.052.413 1.65-.923.806-4.537-1.06-4.537-.263 0-.701-.155-.972-.345-.338-.237-.733-.307-1.259-.221l-.766.124.517-.358c1.217-.84 1.262-1.02.613-2.486-.276-.626-.44-1.457-.444-2.253-.01-2.006-.168-2.09-3.763-1.983-1.195.035-1.642.139-1.955.452-.468.467-1.049.173-.595-.302.43-.45.848-1.112 1.307-2.07.418-.87.498-.924 1.51-1.025l1.068-.107 1.045-2.136c.987-2.017 1.677-4.048 2.03-5.981.087-.47.262-1.049.391-1.286.32-.589.419-4.372.129-4.909a1.1 1.1 0 0 1-.059-.854c.254-.63.236-1.91-.03-2.175-.227-.228-.054-.702.571-1.564.344-.475.746-2.597.596-3.15-.093-.343-.038-.481.19-.481.296 0 .574-.59.581-1.234.002-.15-.228-.36-.51-.467-.588-.224-.695-.664-.991-4.104-.105-1.213-.235-2.59-.29-3.06-.055-.47-.158-1.527-.23-2.35-.325-3.675-1.182-9.309-1.491-9.797-.16-.25-.353-.856-.432-1.344-.079-.49-.277-1.066-.44-1.282-.165-.216-.302-.646-.306-.954-.004-.309-.147-.957-.318-1.442-.236-.67-.248-.882-.048-.882.144 0 .433-.312.642-.694.764-1.397 2.39-2.84 3.349-2.971.293-.04.622-.273.73-.518.107-.245.395-.533.64-.641.285-.125.468-.432.51-.85.065-.669.899-1.375 1.624-1.375.188 0 .34-.08.34-.179 0-.407 2.339-1.337 2.775-1.104.347.186.507.13.892-.313.258-.297.586-.54.728-.54.142 0 .323-.256.401-.568.079-.313.426-.911.772-1.33.878-1.067.873-2.098-.013-2.406-.353-.123-.641-.258-.641-.3 0-.356.57-1.18.887-1.28 1.202-.382.334-2.64-1.021-2.655-2.984-.033-3.791-.364-3.618-1.484.313-2.012-3.112-3.388-6.95-2.79-1.591.247-1.711.236-2.691-.246-1.271-.625-2.84-.66-3.484-.077-.32.29-.712.384-1.429.347-.543-.028-1.256.06-1.582.195-.484.2-.685.182-1.082-.095-1.261-.884-2.642.796-1.55 1.887.305.304.294.386-.108.898-.243.31-.442.66-.442.778 0 .12-.425.67-.944 1.226l-.944 1.008-.696-.337c-.383-.186-1.002-.643-1.375-1.016s-.87-.739-1.103-.813c-.233-.074-.551-.371-.706-.661-.35-.655-.595-.733-2.577-.826-2.088-.098-4.193-1.315-5.002-2.89a14.637 14.637 0 0 0-1.055-1.72c-.304-.404-.552-.847-.552-.984 0-.136-.312-.67-.695-1.186-.73-.984-.91-1.387-1.844-4.1-.51-1.484-.717-1.792-1.897-2.844-.729-.649-1.474-1.496-1.658-1.882-.883-1.861-2.045-1.511-2.32.699-.29 2.331-.45 1.834-.455-1.41-.005-2.954-.69-6.89-1.2-6.89-.58 0-3.237 1.617-4.33 2.636-1.329 1.236-1.785 1.523-2.74 1.73-.348.076-.71.373-.9.739-.173.336-.463.668-.644.738-.18.07-.328.266-.328.437 0 .386-.63.542-1.09.27-.236-.14-.568-.09-1.068.16-.662.332-2.014.43-3.823.278-.447-.037-.525.039-.478.468.04.362-.172.715-.723 1.206-.854.76-.884 1.294-.125 2.232l.388.48.907-.463c.498-.254.96-.602 1.025-.773.066-.17.256-.31.424-.31.167 0 .373-.177.458-.391.216-.552 1.626-.213 1.448.348-.12.376.137.528 1.817 1.076 1.425.464 3.775.124 5.49-.793.283-.152.48-.152.635.003.154.154.35.155.636.002.48-.258 2.55-.39 2.763-.177.08.08-.135.146-.478.147-2.204.008-2.78.461-1.97 1.549 1.208 1.621 1.523 2.356 1.132 2.642-.67.49-.183 1.276 2.213 3.575.63.603 1.302 1.267 1.496 1.475.193.208.692.737 1.11 1.175 1.507 1.583 1.585 1.817.276.829-.723-.547-1.482-.994-1.687-.994-.204 0-.785-.338-1.29-.752-.692-.567-1.087-.739-1.608-.7-.397.031-.727-.058-.777-.209-.102-.303-.906-.359-.906-.062 0 .11.195.261.433.337.239.076.647.363.908.638.261.274.88.708 1.376.962.496.256 1.104.79 1.35 1.19.491.794 1.478 1.587 1.975 1.587.275 0 .62.347 2.148 2.156.614.728.644.887.136.726-.423-.134-.47-.093-.362.317.111.426.088.441-.236.16-.197-.17-.614-.372-.926-.446-.685-.162-3.332-2.325-2.987-2.44.336-.113.304-.382-.093-.778-.452-.453-1.153-.431-1.184.038-.014.206-.087.09-.161-.259-.108-.505-.393-.764-1.417-1.29-1.626-.833-2.352-1.317-3.103-2.07-.331-.33-.79-.6-1.019-.6-.23 0-.537-.144-.683-.32-.29-.35-.855-.436-.855-.132 0 .104.24.347.534.54.294.192.534.494.534.672 0 .177.313.508.694.735.382.226 1.214.992 1.849 1.701.634.71 1.28 1.29 1.436 1.29.155 0 .43.286.61.634.181.35.54.749.8.887.259.139.762.525 1.119.86.357.334.72.608.808.608.089.001.16.13.16.285 0 .34.89 1.212 1.237 1.212.137 0 .409.312.606.694.197.382.535.82.753.974.217.153.396.393.398.534.002.14.336.47.743.734.408.264.8.712.87.996a.913.913 0 0 0 .646.646c.657.165.685.764.035.756-.526-.007-2.297-1.462-2.297-1.887 0-.146-.284-.364-.632-.485-.348-.122-.69-.402-.76-.624-.195-.615-2.045-1.79-2.435-1.544-.22.14-.58.05-1.182-.294-.476-.272-1.136-.496-1.468-.497-.46-.003-.917-.33-1.937-1.392-.734-.763-1.448-1.388-1.587-1.388-.308 0-.331.476-.038.77.118.118.544.83.945 1.58.741 1.39 2.023 2.916 4.715 5.62.823.825 1.495 1.557 1.495 1.625 0 .07 1.026 1.14 2.28 2.379 1.93 1.91 2.299 2.383 2.414 3.097.075.464.275 1.159.445 1.545.17.385.309.794.309.908 0 .303-1.018.251-1.218-.062-.094-.148-.723-.45-1.397-.675-.674-.223-1.358-.609-1.52-.855-.161-.247-.57-.59-.91-.762-.339-.172-1.158-.772-1.82-1.333-.662-.561-1.31-1.02-1.442-1.02-.13 0-.238-.138-.238-.306 0-.168-.312-.525-.694-.792-.382-.268-.824-.665-.983-.883-.159-.218-.52-.484-.8-.59-.283-.108-.514-.32-.514-.472 0-.33-1.84-1.383-2.05-1.173-.295.295 3.63 4.62 4.21 4.639.072.002.793.63 1.602 1.394.81.764 1.64 1.444 1.846 1.51.205.065.374.235.374.376 0 .141.473.632 1.05 1.09.579.457 1.172 1.057 1.319 1.33.146.274.37.503.497.507.355.013 1.62 1.84 1.62 2.34 0 .243.143.497.319.564.177.069.25.232.164.368-.398.628-.216 1.512.438 2.123.59.55.622.64.298.823-.375.209-.49.84-.205 1.126.148.148.266 1.826.27 3.849 0 .462-.109.909-.244.992-.134.083-.198.397-.14.697.065.34-.004.588-.182.656-.216.083-.254.418-.155 1.364.083.791.039 1.424-.118 1.717-.136.256-.297 1.401-.356 2.546-.06 1.145-.149 2.342-.199 2.66-.05.32.004.638.12.71.116.071.156.217.09.324-.066.107-.016.389.111.626.204.38.167.432-.31.432-.637 0-.724.49-.184 1.03.336.335.336.362 0 .427-.445.086-.462.544-.038.969.504.503.426 1.846-.107 1.846-.585 0-.537.52.087.929.283.185.67.647.86 1.027l.344.69-.5-.469c-.825-.775-1.554-.036-.754.765.192.192.192.38 0 .8-.138.303-.25.735-.25.96 0 .226-.202.518-.448.649-.288.154-.41.38-.343.637.079.3-.046.43-.514.533-.662.145-.857.845-.37 1.33.187.188.185.323-.01.557-.149.18-.198.542-.117.867.077.306.036.683-.092.837-.162.195-.169.507-.023 1.012.167.581.144.78-.111.969-.435.32-.407 1.14.052 1.524.33.276.31.276-.16.005-.835-.48-1.923-.809-1.923-.58 0 .343-.537.224-1.019-.225-.252-.235-.745-.427-1.096-.427-.35 0-.696-.097-.769-.214-.072-.117-.478-.214-.902-.214-.789 0-2.393-.855-3.504-1.868-.373-.34-.957-.565-1.739-.671-.647-.088-1.339-.321-1.536-.52-.198-.197-.498-.358-.667-.358-.17 0-.763-.318-1.32-.706a52.168 52.168 0 0 0-2.348-1.51c-.734-.443-1.335-.897-1.335-1.01 0-.111-.258-.301-.574-.42a3.5 3.5 0 0 1-1.014-.654c-.983-.969-2.354-1.674-3.264-1.678-.68-.003-.956-.108-1.129-.43-.125-.236-.354-.428-.508-.428-.154 0-.454-.192-.667-.427-.588-.65-.674-.545-.829 1.014-.078.793-.331 2.403-.562 3.578-.522 2.653-.468.838.083-2.777.18-1.175.358-2.444.397-2.821.07-.674.724-1.638 1.226-1.805.569-.19.77-3.253.26-3.968-1.475-2.07-2.326-5.033-2.464-8.57-.08-2.074-.214-3.213-.415-3.524-.57-.883-1.196-3.843-1.25-5.907-.028-1.138-.175-2.284-.334-2.61-.349-.72-.28-2.514.097-2.515.189 0 .267-.456.267-1.56 0-.858.1-1.66.222-1.782.152-.153.154-.518.005-1.165-.358-1.553-.32-1.697.413-1.55.659.131.922-.388.455-.898-.528-.575-.48-1.392.074-1.253.441.111.54.058.54-.289 0-.233.144-.544.32-.69.176-.146.32-.387.32-.536 0-.672.59-1.44.807-1.052.128.228.343.32.555.24.466-.18.438-.619-.08-1.215-.235-.271-.427-.571-.427-.667 0-.23.689.015.961.342.363.434 1.22.81 1.362.598.074-.109.302-.26.507-.336.246-.09.374-.364.374-.798 0-.388-.089-.605-.215-.527-.118.073-.253.007-.3-.148-.133-.44-.332-.88-.646-1.425-.358-.622.108-1.312.888-1.312.534 0 .62-.208.242-.586-.183-.183-.13-.214.217-.123.254.066.514.205.578.308.316.512.521.098.41-.827-.156-1.297.588-2.048 1.439-1.453.909.637 1.317-.108.578-1.058-.285-.368-.829-2.112-.696-2.233.07-.064.174.018.232.182.059.163.43.656.825 1.094.396.438.72.889.72 1.002 0 .113.318.534.706.935.388.402.88 1.018 1.095 1.37.404.666.47.744 2.222 2.65 1.56 1.696 2.572 1.064 1.05-.658a17.689 17.689 0 0 1-1.014-1.248 14.06 14.06 0 0 0-.694-.903c-.367-.43-.463-.708-.386-1.108.098-.508-.286-1.31-.903-1.887-.616-.574-.675-.742-.648-1.83.024-.964-.06-1.286-.432-1.663-1.666-1.687-1.02-1.48.823.262.821.776 1.757 1.506 2.08 1.623.323.117.587.344.587.506 0 .162.313.455.694.652.382.197.836.56 1.01.807.417.595 2.187 2.264 2.4 2.264.341 0 .153-.727-.437-1.686-.332-.541-.666-1.225-.742-1.518-.157-.616-1.476-2.103-2.337-2.637-.323-.2-.588-.472-.588-.605 0-.285-1.497-1.713-2.56-2.443-.408-.28-.67-.51-.578-.51.09 0-.02-.198-.245-.44-.53-.568-1.347-2.932-1.049-3.031.613-.205-.298-1.042-.972-.894-.626.137-.653.12-.364-.227.325-.392-1.393-2.228-2.096-2.24-.476-.007-1.108.422-1.108.751 0 .297-.383.415-1.044.322-.164-.023-.683-.285-1.155-.583-.717-.452-1.045-.526-2.003-.446-.791.065-1.218.007-1.38-.19a.875.875 0 0 0-.587-.285c-.193 0-.46-.176-.594-.39-.288-.462-2.09-1.196-2.526-1.029-.167.064-.516.53-.775 1.035-.259.505-.512.796-.562.647-.051-.15-.369-.415-.706-.59-.43-.222-.684-.576-.846-1.178-.128-.474-.516-1.343-.863-1.93-.346-.588-.63-1.143-.63-1.234 0-.09-.196-.374-.436-.631l-.435-.468h.435c.285 0 .436-.14.436-.402 0-.478-1.41-1.004-3.282-1.224-.662-.078-1.204-.224-1.204-.326 0-.315-1.428-.2-1.709.137-.153.184-.62.32-1.101.32-.46 0-1.074.155-1.364.346-.43.282-.588.295-.853.075-.452-.374-1.381.058-1.381.642 0 .328.142.434.587.44.323.003.77.143.99.311.438.33 1.141.113 1.477-.456.094-.16.438-.29.764-.29.356 0 .793-.213 1.095-.534.632-.672 1.644-.767 1.237-.115-.205.329-.205.572-.001 1.136.142.395.26.868.26 1.051 0 .183.475.766 1.057 1.295 1.075.979 1.145 1.225.348 1.226-.244 0-.769.199-1.165.44-.931.568-1.328.414-1.257-.488.05-.63-.002-.7-.514-.7-.313 0-.828-.225-1.144-.5-.317-.274-1.214-.685-1.995-.915l-1.953-.572c-.38-.112-.554-.332-.604-.764-.063-.553-.128-.595-.72-.477-.359.072-.731.13-.829.13-.097 0-.336.337-.532.748-.347.732-.778.916-1.328.568-.157-.1-.213-.333-.13-.548.12-.311.04-.362-.474-.304-.888.102-.948.87-.123 1.564 1.239 1.043 1.074 1.444-.523 1.273-1.293-.139-1.393-.118-1.503.303-.184.704-1.697.25-2.556-.768-.411-.486-.558-.526-1.442-.393-1.146.171-1.29.584-.344.976.773.32.783.42.093.923-.372.27-.724.348-1.156.253-.658-.145-1.438.16-1.855.725-.223.302-.293.295-.696-.07-.363-.329-.54-.362-.927-.173-.264.128-.844.293-1.29.367-.585.096-.863.273-1 .636-.336.88-.646.846-1.688-.18-1.243-1.224-1.433-1.226-1.95-.02-.347.81-.476.935-.794.768-.208-.11-.787-.308-1.287-.441-.836-.223-.908-.298-.908-.947 0-.952-.527-2.644-.979-3.143-.779-.86.534-.443 1.407.447.91.928.987.956 1.801.646.837-.318.656-.742-.441-1.036-.544-.145-1.23-.454-1.524-.685-.294-.231-.663-.42-.819-.42-.156 0-.387-.192-.513-.427-.26-.489-.676-.543-1.276-.168-.348.217-.521.182-1.056-.213-.742-.549-1.413-.613-1.59-.153-.07.183-.389.32-.744.32-.8 0-1.266.505-.888.961.147.176.368.32.494.32.54 0 3.633 3.52 3.82 4.347.446 1.988-1.234 2.752-2.326 1.057-.211-.328-1.084-1.3-1.94-2.161-.854-.861-1.706-1.798-1.893-2.083-.436-.665-.877-.66-1.184.016-.279.611-.944.701-1.576.213-.39-.302-.393-.334-.04-.545.679-.407.485-1.562-.375-2.217-.41-.314-.747-.688-.747-.832 0-.145-.265-.506-.588-.804a11.046 11.046 0 0 1-.959-1.008c-.388-.49-1.109-.624-1.34-.25-.083.134-.366.052-.74-.215-.332-.237-.805-.43-1.049-.43-.317 0-.596-.3-.978-1.054-.744-1.469-.982-1.59-3-1.531-1.188.034-1.345-.017-2.08-.69-.5-.46-1.106-.778-1.638-.863-.604-.097-.973-.317-1.3-.776-.277-.389-.646-.64-.94-.64-.712 0-.81-.219-.288-.641.499-.405.143-1.744-.634-2.39-.742-.615-.952-1.418-.491-1.879.9-.9.286-1.98-1.474-2.593-.353-.122-.697-.399-.765-.613-.238-.75-3.286-2.837-3.95-2.705-.814.163-2.095-.223-2.409-.726-.143-.229-.428-.416-.635-.416-.207 0-.376-.096-.376-.214 0-.751-.97.108-1.234 1.093-.159.595-.284.713-.704.664-1.337-.157-1.684-3.564-.389-3.823.91-.181 1.425-1.351.595-1.351-.105 0-.19-.177-.19-.391 0-.518.708-.84 2.09-.952 2.247-.181 2.183-2.29-.096-3.157-.275-.104-.5-.32-.5-.48 0-.158-.24-.417-.533-.574-.636-.34-.678-.567-.137-.738.521-.166 1.098.065 1.098.44 0 .164.173.298.384.298.212 0 .494.109.627.242.286.285 1 .072.806-.24-.073-.12-.271-.216-.44-.216-.32 0-1.414-1.043-1.967-1.878-.179-.268-.737-.676-1.24-.906-.505-.23-.979-.61-1.053-.846-.075-.236-.231-.429-.347-.429-.116 0-.564-.24-.996-.534-.432-.293-.86-.534-.95-.534-.33 0-.152.546.263.805.235.147.427.4.427.56 0 .343.901.985 1.381.985.18 0 .328.088.328.196 0 .302-1.555 1.194-1.962 1.125-.199-.034-.748.136-1.22.377-1.003.511-1.27.53-1.803.127-.776-.587.314-1.611 1.714-1.611 1.34 0 1.615-.757.616-1.695-.308-.29-.467-.62-.392-.817.107-.277-.018-.312-.762-.212-.49.066-.945.033-1.01-.074-.168-.271-.593-.24-.997.074m12.01 6.736c0 .251.181.396.535.424.405.034.534-.058.534-.38 0-.31-.144-.425-.534-.425-.37 0-.534.117-.534.38m-16.613.261a1.012 1.012 0 0 1-.769.427c-.275 0-1.14.333-1.922.74-.78.408-1.556.689-1.722.625-.409-.157-1.19.284-1.19.672 0 .172.053.313.119.313.352 0 2.159-.516 2.364-.675.13-.103.727-.331 1.325-.508.597-.178 1.21-.44 1.362-.585.153-.143.541-.398.864-.565.324-.166.588-.43.588-.587 0-.438-.719-.337-1.019.143m17.254.845c0 .37.668 1.57 1.278 2.297.12.142.217.358.217.48 0 .306.58.282.773-.031.086-.14.044-.292-.094-.339-.139-.046-.252-.262-.252-.48 0-.218-.1-.46-.222-.534-.122-.076-.46-.514-.75-.975-.575-.91-.95-1.075-.95-.418m-24.46 1.824c-.117.039-.477.129-.8.2-1.044.23-.686.611.427.454 1.351-.19 1.762-.321 1.762-.56 0-.188-.921-.25-1.388-.094m88.884 1.46c-2.462 1.323-6.59 6.356-5.832 7.112.168.17 1.646-.159 1.646-.365 0-.307 1.25-2.937 1.59-3.342 1.473-1.76 1.984-2.166 3.163-2.508 1.134-.33 1.228-.404 1.228-.982 0-.78-.203-.77-1.795.085m-92.836-.177c0 .176.096.32.213.32.118 0 .214-.144.214-.32 0-.176-.096-.32-.214-.32-.117 0-.213.144-.213.32m30.76 1.338c0 .38.244.887.641 1.332.353.395.641.797.641.893 0 .096.231.175.514.175.282 0 .901.313 1.375.694.474.382 1.191.959 1.596 1.282.416.333.788.857.859 1.212.068.343.382.8.697 1.014.315.215 1.112.933 1.771 1.596.66.663 1.802 1.558 2.539 1.989.736.43 1.739 1.164 2.228 1.629.9.857 1.927 1.478 2.44 1.478.156 0 .598.192.982.427.385.235.85.427 1.035.427.185 0 .784.43 1.331.954.547.525 1.237 1.113 1.534 1.306.296.195.538.528.538.742 0 .213.183.446.406.517.223.07.466.365.538.655.073.29.227.526.342.526.115 0 .21.265.21.588.004 1.553 1.235 3.64 1.98 3.354.492-.19.467-.573-.058-.901-.267-.167-.427-.499-.427-.884 0-.338-.133-.666-.295-.729-.187-.071-.255-.314-.187-.668.072-.378-.073-.813-.454-1.363-.308-.444-.56-.978-.56-1.186 0-.412-1.897-2.69-2.243-2.694-.118-.001-.487-.29-.82-.643-.332-.353-.765-.658-.96-.677-.196-.02-.514-.048-.707-.06-.5-.034-2.746-1.2-2.746-1.425 0-.103-.184-.188-.41-.188-.69 0-1.085-.24-1.085-.66 0-.25-.264-.516-.695-.701-.382-.165-1.307-.887-2.055-1.606-.748-.718-1.497-1.305-1.662-1.305-.166 0-.36-.169-.431-.374-.072-.206-.55-.775-1.062-1.265-.512-.49-.931-1.043-.931-1.229 0-.214-.189-.337-.52-.337-.4 0-.583-.172-.79-.747-.15-.411-.42-.752-.602-.756-.519-.014-2.16-1.615-2.337-2.278-.25-.94-2.16-1.04-2.16-.114m130.986 7.535c-1.187 1.107.853 2.627 2.3 1.712.312-.198.397-1.48.126-1.92-.254-.409-1.915-.267-2.426.208m-85.058 5.225c0 .177.096.32.213.32.118 0 .214-.143.214-.32 0-.176-.096-.32-.214-.32-.117 0-.213.144-.213.32m-13.745 8.615c-.483.533-.45 1.26.065 1.423.937.297 2.109-.999 1.383-1.53-.536-.391-1.03-.355-1.448.107m62.24.718c-.238.492-.432.972-.432 1.068 0 .605 1.08-.565 1.373-1.486.277-.873-.48-.537-.941.418m-11.326.066c0 .177.144.32.32.32.176 0 .32-.143.32-.32a.321.321 0 0 0-.32-.32.321.321 0 0 0-.32.32m.64.714c0 .1-1.386.185-3.081.191-3.566.013-3.72.06-3.093.94.489.686.385.677 2.89.259.625-.105.662-.075.563.441-.085.447-.233.558-.775.577-.368.014-.765.047-.883.075a5.486 5.486 0 0 1-.48.082c-.407.05-.319.63.132.872.582.311 2.946-.118 3.98-.724 1.734-1.015 2.624-2.192 1.817-2.403-.236-.062-.429-.197-.429-.301 0-.104-.144-.188-.32-.188-.176 0-.32.08-.32.18M109 43.638c.001.702 3.489 2.073 4.33 1.702.98-.431.648-.901-.638-.901-.61 0-1.228-.12-1.375-.267-.147-.147-.53-.267-.852-.267-.322 0-.645-.096-.718-.214-.153-.247-.748-.29-.747-.053m-29.921.342c-.301.157-.79.347-1.085.421-.592.149-1.678 1.065-1.678 1.416 0 .282.45.286 1.176.01.423-.16 1.014-.103 2.385.235 1.32.325 1.887.384 2.057.215.356-.357-.45-.862-1.386-.87-.434-.004-.848-.103-.92-.22-.073-.118-.046-.214.06-.214.105 0 .296-.23.425-.513.365-.801-.05-.993-1.034-.48m47.97-.128c-.572.429-.754 1.617-.31 2.03.477.445 1.075.428 1.23-.034.072-.217-.029-.266-.37-.176-.443.115-.452.095-.156-.357.656-1 .376-2.04-.393-1.463m43.163 3.791c-.047.118-.094.057-.103-.134-.01-.191-.176-.48-.37-.64-.56-.466-.924-1.492-.637-1.799.254-.272 1.29 2.128 1.11 2.573M82.78 45.406c-.82.333-.575.779.51.928 1.453.198 1.786.169 1.786-.159 0-.649-1.421-1.125-2.296-.77m65.74.424c0 .237.143.427.32.427.178 0 .32-.19.32-.427 0-.238-.142-.428-.32-.428-.177 0-.32.19-.32.428m-30.76 1.908c0 .23.195.475.443.553.593.188.713.023.374-.518-.35-.562-.818-.582-.818-.035m57.132 16.446c.346.56-2.836 3.867-3.995 4.152-.418.103-.587.28-.587.614 0 .257-.25.667-.555.91-.411.328-.585.704-.669 1.45-.15 1.327.288 1.35 1.523.08 1.08-1.11 2.725-1.838 3.223-1.424.449.373.403.917-.104 1.234-.235.147-.428.363-.428.48 0 .117-.466.67-1.037 1.229-1.023 1.001-1.953 2.496-1.953 3.138 0 .181-.175.33-.39.33-.268 0-.574.4-.982 1.281-.985 2.135-1.262 1.359-.533-1.495.616-2.408.519-3.762-.321-4.5-.71-.623-1.034-1.481-.56-1.481.312 0 1.076-.883 1.387-1.603.866-2.003 5.4-5.335 5.981-4.395m-42.389 6.585c.002.088.093.302.202.474.246.39.535.146.362-.305-.128-.332-.57-.465-.564-.169m-53.834 1.549c-.184.344-.162.427.113.427.46 0 1.169-.393 1.169-.648 0-.393-1.05-.212-1.282.22m54.935-.075a.636.636 0 0 0 .467.467c.281.054.37-.034.315-.316a.636.636 0 0 0-.466-.466c-.282-.054-.37.033-.316.315M79.988 73.76c.079.684 1.087.98 1.315.385.22-.574-.087-.973-.75-.973-.564 0-.625.064-.565.588m94.037 3.892c-.076.18-.186.785-.246 1.345-.136 1.271-.245 1.338-1.131.684-.873-.645-.77-.654-1.16.103-.52 1.005-.394 1.451.742 2.635.587.613 1.068 1.222 1.068 1.354 0 .133.155.37.343.526.853.707 1.161 2.87 1.264 8.846.286 16.643.026 21.637-1.201 23.115-.175.21-.497.912-.715 1.558-.22.646-.576 1.43-.792 1.742-.217.312-.394.68-.394.817 0 .138-.288.54-.64.892-.419.417-.652.876-.67 1.318-.021.475-.057.539-.12.213-.05-.256-.227-.579-.394-.717-.212-.176-.243-.364-.103-.625.11-.206.265-1.037.345-1.847.08-.81.216-1.569.305-1.686.088-.118.23-.55.316-.962.086-.411.236-.847.334-.969.097-.122.141-1.612.097-3.311-.071-2.748.005-4.346.462-9.645.133-1.535-.786-3.359-1.865-3.701-1.11-.353-1.494-1.375-1.495-3.975-.001-4.478.259-5.753 1.69-8.305.382-.682 1.15-3.14 1.249-4.005.137-1.182-.576-1.332-1.01-.214-.316.81-1.032 2.453-1.304 2.988a1.894 1.894 0 0 0-.188.705c0 .183-.33.674-.734 1.09l-.734.756-.163-.82c-.088-.451-.148-.964-.133-1.14.198-2.243.343-2.793 1-3.79.389-.591.773-1.422.853-1.847.08-.424.232-.772.338-.772.226 0 1.041-1.756 1.216-2.617.142-.694.391-.75.707-.16.317.592 1.103.535 1.823-.132.653-.606 1.368-.225 1.04.553m-58.189 7.287c0 .52.5.447.603-.089.041-.211-.068-.356-.267-.356-.198 0-.336.182-.336.445m40.635 32.613c-.367.123-.327.836.055.982.53.203.12.779-.553.779-.668 0-.789.364-.436 1.321.517 1.404.504 1.69-.07 1.545-.507-.127-.54-.086-.54.694v.83l-.907-.08c-.894-.08-1.682-.465-.951-.465.2 0 .363-.143.363-.316 0-.174.24-.377.534-.45 1.023-.258.356-1.14-1.103-1.46-.403-.09-.712-.312-.777-.561-.1-.38-.073-.388.346-.095 1.013.71 2.374-.389 2.384-1.924.004-.541.08-.631.485-.574.311.043.48-.045.48-.247 0-.22.144-.277.476-.19.261.069.358.164.214.211m-5.602 1.761c0 .117-.118.19-.262.16-.144-.03-.295.163-.335.427-.04.265-.174.481-.296.481-.138 0-.17.28-.085.733.099.528.05.782-.171.908-.17.096-.342.463-.381.816-.058.513-.186.654-.643.707-.488.056-.592.195-.721.961-.242 1.441-.45 1.835-.906 1.716-.458-.12-.514-1.59-.066-1.74.319-.106.875-1.445.875-2.104 0-.283.147-.572.327-.64.307-.118 1.168-1.728 1.168-2.184 0-.213.449-.385 1.122-.43.206-.013.374.072.374.189m-126.247.948c0 .17.085.36.188.424.103.065.14.55.08 1.081-.144 1.271.394 1.326 1.018.103.446-.875.415-1.274-.1-1.274-.157 0-.34-.144-.409-.32-.157-.41-.777-.42-.777-.014m-.854 2.567c0 .786.456 1.637.837 1.564.502-.096.564-.807.07-.807-.33 0-.388-.12-.312-.64.071-.487.011-.641-.25-.641-.224 0-.345.184-.345.524m131.16 3.46c0 .613-.074.715-.515.715-.72 0-1.804-1.27-1.318-1.542.187-.104.337-.466.337-.808v-.62l.748.77c.552.57.747.957.747 1.485m15.303.074c-.082.885-.057 1.496.061 1.496.481 0 .871.719.871 1.607 0 1.196-.404 3.092-.658 3.092-.108 0-.196.197-.196.438 0 .42-.03.417-.715-.107-.393-.3-.922-.544-1.175-.544-.61 0-.588-.093.277-1.148.814-.994 1.08-1.925 1.305-4.567.082-.969.199-1.762.26-1.762.06 0 .047.673-.03 1.495m-23.725.804c-.07.071-.247.011-.39-.132-.207-.207-.195-.304.056-.461.324-.203.615.313.334.593m24.389 7.762c-.64.17-.791-.005-.644-.754l.122-.626.5.626.5.626-.478.128m13.085-.475c0 .457.318.763 1.016.977.715.219.91-.471.278-.983-.64-.518-1.294-.515-1.294.006m.22 1.724c-.52.4-.523.414-.128.85.708.782 1.575.302 1.316-.729-.16-.639-.474-.67-1.189-.121m-.21 5.021c-.368.443.057.972.78.972.443 0 .51-.089.454-.588-.08-.685-.799-.91-1.234-.384m5.972.616c0 .157.072.357.16.446.089.09.16.37.16.623 0 .657.59.577.833-.113.145-.411.124-.67-.074-.908-.338-.407-1.079-.44-1.079-.048m-.854 1.302c0 .198.182.335.445.335.52 0 .447-.499-.089-.602-.21-.042-.356.067-.356.267m-1.84 3.204c-.413 1.077.49 1.993 1.234 1.25.403-.403.434-.545.222-1.012-.277-.606-1.253-.766-1.455-.238m1.986 1.328c-.33.33-.139.93.295.93.332 0 .425-.115.374-.464-.071-.482-.415-.72-.67-.466m-2.67 3.075c-.943.878-.309 1.914 1.173 1.914.58 0 .98-.135 1.236-.419 1.083-1.196-1.205-2.617-2.408-1.495m-7.486 3.325c-.85.962-.397 2.648.713 2.648.48 0 1.606-1.067 1.606-1.523 0-1.18-1.589-1.95-2.32-1.125m9.367 2.832c-2.079 1.115-1.548 5.306.57 4.503.664-.252 1.568-1.016 1.568-1.326 0-.108.198-.356.44-.552 1.79-1.45-.473-3.754-2.578-2.625m-64.338 25.503c-.445.352-.68 1.746-.387 2.293.55 1.027 2.565.167 2.565-1.095 0-1.058-1.389-1.822-2.178-1.198m37.081 13.101c.234.61.136.82-.184.397-.172-.228-.316-.486-.32-.575-.013-.298.374-.162.504.178" fill="#ededed"/></g></svg>