<svg version="1" xmlns="http://www.w3.org/2000/svg" width="1522.667" height="1522.667" viewBox="0 0 1142.000000 1142.000000"><path d="M726 41.5c-.8.2-4.9.9-9 1.5-10.2 1.7-12.6 3.3-3.5 2.5 3.9-.4 14.1-.9 22.8-1.1L752 44v2.4c0 1.6.7 2.6 2.3 3 3.4.9 16.5.7 17.1-.3.9-1.3 6.8-2 9.4-1 3.4 1.3 2.7-.8-1-2.7-1.8-.9-7.5-2-12.8-2.5-10.3-.9-38.6-1.9-41-1.4zM694.5 47.9c-2.2.4-5 1.2-6.2 1.9-2.7 1.5-15.6 1.5-24.2.2-6.8-1.2-9-.7-4.7 1 2 .7 2.6 1.5 2.2 2.8-1 2.9 4.4 7.3 9.7 7.9 4.2.5 4.6.3 7.3-3.2 3.4-4.3 7.2-6.5 11.2-6.5 4.8 0 8.6-1 11.2-3.1l2.5-1.9-2.5.1c-1.4.1-4.3.5-6.5.8z"/><path d="M696.8 56.3c-3.1 1.8-6.8 4.1-8.3 5.1-3.3 2.4-18.8 4-25.2 2.6-6.2-1.4-11.7-4.4-14.1-7.7-1.8-2.5-2.3-2.6-4.1-1.6-1.2.7-2.9 1.3-3.9 1.3-2 0-3.6 2.6-4.7 7.5-.9 4-2.5 14-2.9 19-.2 2.2-1.5 6.5-3 9.5-1.6 3.5-2.6 7.3-2.6 10.5-.2 11.4-4.8 25.5-8.3 25.5-.6 0-1.8.6-2.6 1.4-.9.8-3.2 1.8-5.1 2.3-2.8.7-3.6 1.5-3.8 3.6-.2 1.5.1 2.7.6 2.7s1.2 1.9 1.6 4.1c.6 4 3.7 7.8 6.3 7.9.6 0 2 1 3 2.3 1 1.3 2.6 2.6 3.5 3 1 .3 2 1.8 2.4 3.3 1.3 5.1-.5 7.3-10.5 12.5-5.2 2.7-12.9 7.1-17 9.8-9.6 6.3-14.7 8.6-15.4 6.8-.3-.9-2.4-1.2-6.8-1.1-11.4.4-14.9 1.6-14.9 5 0 3.8 5.3 13.4 10.3 18.6 2.5 2.5 4.8 5.6 5.2 6.7.7 2.2 13.1 11.1 18.9 13.5 2.5 1 3.6 2.1 3.6 3.5 0 2.5 3.5 3.6 9 2.8 2.6-.3 5 .1 7.2 1.2 3.1 1.7 19.1 4.2 23.3 3.8 1.6-.2 2.9 1.5 6 7.8 3.5 6.9 4 7.6 4.3 5.2.2-1.5-.6-4.7-1.8-7-1.2-2.4-2-5.5-1.8-7l.3-2.7 5.2 2.8c2.9 1.5 7.4 4 10 5.6 4.2 2.6 5.6 3 11.6 2.8 5.1-.2 6.9.1 7.3 1.2.7 1.9-1.3 5.6-3 5.6-.8 0-1.7.8-2 1.7-.7 1.7.8 3.2 3.4 3.4 9.4.8 15.9 2 16.5 2.9.3.5 2.5-.9 4.7-3.1 4.9-4.7 11-8.1 13.2-7.3.9.4 3.6-1.1 6.8-3.8 7.7-6.3 7.8-6.4 7.8-9.3 0-2.3.2-2.4 2-1.5 1.1.6 2 2 2 3 0 1.5.7 2 2.5 2s2.3.4 1.9 1.5c-.4.8-.1 1.5.5 1.5s1.1-.8 1.1-1.8c.1-1.5.3-1.5 1.8.4l1.8 2.1 1.7-2.3c.9-1.3 1.7-2.7 1.7-3.2s.8-1.6 1.8-2.5c2.1-2 7.3-2.3 7-.5-.3 1.2.2 1.4 5.5 1.6 1.7.1 2.7.8 2.7 1.7 0 .8.9 2.4 2 3.5s2 3.1 2 4.4c0 1.3.7 2.9 1.5 3.6.8.7 1.3 1.6 1 2-1 1.6 4.1-.4 6.8-2.7 3.8-3.1 5.6-2.9 6.8.7 1.4 3.8 3.1 3.8 10 .1 5.3-2.8 5.3-2.8 5.1-7.2-.2-2.4-1-7.3-1.8-10.9-.8-3.6-1.7-9.7-2-13.6l-.4-7.1 13.7-6.2c7.6-3.5 14.5-7.2 15.2-8.3 2-2.7 7.9-6.4 11.6-7.2 1.7-.4 6.2-2.9 10-5.6 3.9-2.8 8.4-5.6 10-6.4 4.8-2.3 18.3-15.9 20.4-20.7 2.1-4.6 2-6.2-.4-5.2-.8.3-1.5 1.8-1.5 3.3 0 2.2-1.5 4.1-7.7 9.4-4.3 3.6-8.7 7.3-9.8 8.3-2.6 2.3-11 5.2-15.7 5.2-2 .1-4 .6-4.4 1.2-.4.8-.9.7-1.5-.2-.8-1.4-9.7-2.2-13-1.3-.9.3-2.2 1.7-2.9 3.2-1.5 3.4-9.6 9.7-18 13.9-6.2 3.1-13.4 4.9-23 5.8-5.3.5-11-1.2-10.3-3.1.4-1.1-1.1-1.3-7.3-.9-4.4.2-8.8.5-9.9.7-1.2.2-2.1-.4-2.3-1.6-.7-3.3 11.2-12.5 28.8-22.5 11.6-6.5 18.8-11.8 19.6-14.3.3-1.3 2-4 3.6-6l2.9-3.8-2.8-2.5c-1.7-1.5-4.1-2.4-6-2.5-3.3 0-5.3-2.1-5.3-5.7 0-4.1-1.4-4.7-6.3-2.8-2.6 1-5.4 1.4-6.4 1-1.4-.5-.9-1 2.3-2.1 3-1 7.5-4.6 15.8-12.9l11.6-11.4v-11.9c0-9.4-.3-12.2-1.5-13.2-.8-.7-1.5-2.7-1.5-4.4 0-1.7-.4-3.8-1-4.6-.9-1.5-1.1-1.4-2.2 2.9-.4 1.4-9.8-16.4-9.8-18.5 0-1.3-3.9-5-6-5.6-.8-.3-2.5-.2-3.6.3-1.4.5-2.9.3-4.2-.6-1.1-.8-4.6-1.7-7.8-2.1-3.3-.3-7.4-1-9.2-1.6-3.2-1-9.1-1-37.2-.3-6.8.2-13.4-.1-14.5-.5-1.6-.6-3.6 0-7.7 2.3zM180.3 82.8c-2.9 1.9-6.7 15-5.8 19.9.8 4.3-4.5 12.3-8.1 12.3-1.5 0-2.4.6-2.4 1.5s.9 1.5 2.5 1.5h2.6l-2.3 3c-1.2 1.7-3.1 3-4.4 3-2.8 0-4.1 1.7-5.9 7.7-1.7 5.7-3.7 7.9-8 8.5-1.6.3-5 1-7.5 1.6-15.3 3.8-19.7 4.5-31 4.9-12 .5-12.6.7-15.8 3.4-3.6 3.2-5.8 3.5-8.5 1.4-1.3-.9-1.7-2-1.2-3.4.9-2.9-.4-2.6-4.2.9-5.4 4.9-4.2 11.9 2.3 14.6 3.1 1.3 4.6 1.3 13.2-.3 5.3-1 11.5-1.7 13.7-1.6 8.8.3 17.1 1.6 18.6 2.9 2.1 1.8 2.9.8 2.3-2.6-.5-2.4-.2-2.9 2.7-3.9 1.7-.6 4.6-1.1 6.3-1.1 1.8 0 3.7-.5 4.3-1.1 1.6-1.6 3.3-.2 3.3 2.7 0 1.5-1.4 3.9-3.4 6-3.1 3.2-3.3 3.8-2.8 8.2.7 6.1 2.3 8.5 6.9 10.1 2.1.8 5 2.7 6.6 4.2 1.6 1.6 3.5 2.9 4.3 2.9 2.3 0 1.7-.8-2.6-3.5-2.2-1.4-4-3.2-4-4.1 0-1.1 1-.7 3.7 1.5 2.1 1.7 4.9 3.1 6.3 3.1 4.1 0 5.7 1.6 4.3 3.9-1.1 1.8-1 2.3 1.1 3.6 1.3.9 3 1.3 3.8 1 .8-.3 2.3.3 3.3 1.5 1.7 1.8 3 2 17 2 13.5 0 16.1.3 23.3 2.6 7.5 2.3 8.2 2.8 9.4 6 1.5 4.3 9.1 10.4 12.9 10.4 2.3 0 3.5 1.2 7.5 7.2 2.6 4 6.7 9.5 9.1 12.3 2.4 2.7 4.3 5.9 4.3 7.1 0 1.2.6 2.7 1.4 3.3.8.7 1.8 2.6 2.1 4.2.7 2.9 2.8 5.7 12.5 15.9 6.2 6.5 10.8 11.9 14.4 16.9 2.9 3.9 6 6.3 7 5.3.4-.3.4.1.1 1-.5 1.2.3 2.7 2.2 4.5 1.7 1.5 4 4.5 5.2 6.5 1.3 2.1 2.7 3.8 3.1 3.8.5 0 4.2 3.1 8.2 7 5.4 5.1 8 7 10.1 7 2.2 0 5.2 2.4 14 11.1 6.1 6.1 12.4 11.7 13.8 12.4 1.5.8 2.9 2.1 3.2 3 .4.8 1.2 1.5 1.9 1.5 1.9.1 5.8 3.6 5.8 5.3 0 .8-.7 2.1-1.6 2.8-3.1 2.6-.8 15 4.5 23.9.5.8 1.6 3.2 2.4 5.2 1 2.3 3.4 4.9 6.5 7 7.5 5.1 11.8 9.2 13.7 13.2.9 1.9 3.5 5.2 5.7 7.2 3.6 3.2 4.4 3.5 7.7 2.9 7-1.3 9.8-3 10.5-6.5 1-5.1.7-7-.9-7-2.7 0-1.6-2.4 3.3-7 2.6-2.5 6-6.5 7.6-8.9 2.3-3.4 3.3-4.2 5.5-3.9 1.8.2 2.7 1 2.9 2.6.2 1.2 1.2 2.7 2.3 3.3 1.6.8 1.8 1.7 1.3 4.5-.4 2.2-.2 3.4.5 3.4 2.1 0 1.1 3.8-1.5 5.5-2.1 1.4-2.5 2.2-2 4.6.3 1.5.1 3.1-.4 3.4-.6.3-1 1.2-1 2 0 2.6 6.7 3.6 25.4 3.6 11.5 0 18.6.4 18.6 1 0 .5 2.7 2.1 6 3.5 3.3 1.5 6.2 3.4 6.5 4.3.3.9-.1 4.1-.9 7.1-1.2 4.3-1.2 6.3-.4 9.3.9 3.1.8 4.8-.6 9.3-2.3 7.2-9.1 22-10.6 22.9-2.5 1.6-2.4.7 2-11.8 2.1-6 2.6-9.7 1.3-9.7-2.1.2-9.4 8.2-10.6 11.6-.7 2.3-5.2 8.5-10.1 14.2-7.3 8.5-9.3 10.2-11.7 10.2-1.5 0-3.1.4-3.4 1-.3.5-1.9 1-3.6 1-2.4 0-2.9.4-2.9 2.5 0 5-4.6 5.5-20.1 2.4-20.6-4-24.6-6-33.7-16.2-4.8-5.5-10.1-7.9-14.6-6.6-1.9.5-4.4 2.1-5.3 3.5-3.5 4.9-9.8 12.9-11.4 14.4-.8.8-3.4 4-5.7 7-2.2 3-15.4 16.5-29.2 30-13.9 13.4-34.2 33.3-45.2 44.2l-20 19.7-.9 9.3c-1.3 13.1-1.5 13.8-4.4 13.8-1.5 0-2.9.8-3.6 2.2-1.6 3.2-5 5.8-7.6 5.8-2.2 0-2.3.4-2.3 7.4v7.4l-5 4.2c-2.8 2.4-6.4 6.2-8.1 8.6-1.6 2.4-3.6 4.4-4.3 4.4-.8 0-3-1.8-4.9-3.9-4.3-4.8-5.6-3.9-6.2 4.1-.5 6-2.1 7.8-7.2 7.8-3.2 0-4.3 1.2-2.3 2.5.6.3 1 1.5 1 2.6 0 1.4-.7 1.9-3 1.9-1.6 0-3 .4-3 .8 0 .5-2 1.7-4.5 2.8-4 1.6-4.5 2.1-4.5 5.1 0 4.1 3 6.1 6.7 4.4 2.8-1.3 7.3-1.5 7.3-.2 0 .4-2.4 3.8-5.2 7.5-10.1 12.9-12 15.6-11.6 16.7.3 1 18.4-10.6 32.8-21 3-2.2 6.1-4 6.8-4.1.6 0 2.1-.9 3.1-1.9 4.5-4.5 13-10.6 17.7-12.7 3.4-1.5 5.9-3.4 7.3-5.8 1.2-1.9 3.5-4.3 5-5.3 1.6-1 6.2-4.4 10.3-7.6 5.5-4.2 8.3-5.7 10.7-5.7 1.7 0 3.9-.4 4.9-.9 8.8-4.5 8.8-4.5 12.3-2.9 1.9.8 5 2.1 6.9 2.8 1.9.7 4 1.7 4.6 2.2 2.5 1.8-.8 17.2-5.7 27-3 5.8-2.6 7.2 1.7 6.4 2.5-.5 4.3-.2 6 .9 3.1 2 3 2.4-.6 7-1.7 2.1-3.3 5-3.7 6.4-.3 1.4-1.4 3.7-2.3 5.1-.9 1.4-2.8 4.2-4.1 6.2-1.3 2.1-2.9 3.8-3.6 3.8-1.6 0-2.9 2.6-3.6 7.4-.4 2.3-3.9 9.2-9 17.5-8.2 13.3-8.5 13.9-11.7 27.6-1.8 7.7-3.9 15.5-4.7 17.4-.7 1.9-1.6 6.7-2 10.7l-.6 7.2 6.8.7c3.7.4 11.3.5 16.9.1 9.6-.7 10.3-.9 16-4.8 8.8-6 15.5-9.8 17.2-9.8.9 0 1.8.9 2.1 2 .7 2.7 1.7 2.5 5.2-.9 2.7-2.7 3.6-2.9 13.6-3.6 9.2-.6 11-.5 12.3.9 1.5 1.5 1.5 1.8-.1 4.5-.9 1.6-1.7 3.6-1.7 4.4 0 .8-1.1 2.5-2.5 3.8-3.6 3.5-3.2 4.9 1.5 4.9 2.2 0 4 .5 4 1.1 0 .6-1.4 3.1-3.1 5.5-3.5 5.1-3.3 6.3.8 4.1 1.5-.8 8-4.1 14.3-7.4 6.3-3.3 13.1-7.1 15-8.4 2-1.3 7.4-4.3 12-6.6 4.7-2.3 14.1-7 21-10.4 6.9-3.4 13.6-7.3 15-8.8 1.4-1.5 5.4-3.7 9-5 3.6-1.2 7.3-2.7 8.2-3.2 23.5-12.4 33.9-17.2 45.3-20.8 7.2-2.2 21.3-6.7 31.5-10 10.2-3.2 20.5-6.2 23-6.5 6-.9 25.7-4.4 34.5-6.2 12.2-2.5 14.1-2 15.1 4.2.6 4.2.8 4.4 4.6 5.1 2.3.3 5.5 1.8 7.3 3.4 1.8 1.6 3.8 2.9 4.4 2.9 2.1 0 12.5 8.4 20.3 16.4 3.3 3.3 5.4 2.9 6.4-1.1.4-1.5 1.5-4.4 2.6-6.3 1-1.9 1.8-4 1.8-4.6 0-.6.9-1.9 2-2.9 1.9-1.7 2.1-1.7 3.8-.2 2 1.8 10.2 2.4 10.2.8 0-.5-.5-1.1-1.2-1.3-.8-.3.5-3 3.4-7.4 10.6-15.9 11-17.5 15.9-61.2l2.3-20.2 4.2-4.3c4-4 4.2-4.5 4.9-12.3l.7-8-4.6-8.8c-7.8-14.8-9.3-20.8-10-38.6-.4-13-.9-16.7-3-22.7-1.4-3.9-2.8-8.9-3.1-11-.4-2.1-1.1-5.4-1.7-7.3-.6-1.9-1.2-5.3-1.4-7.5-.7-10.5-1.4-15.6-2.3-17.4-.6-1-1-4.9-.9-8.5.2-5.4.5-6.6 1.9-6.6 2.1 0 3.2-5.1 1.9-8.6-1.6-4.1-1.2-7.1 1-7.7 1.6-.4 1.9-1.1 1.4-3.9-.3-1.8-1.2-4.9-1.9-7-1.2-3.1-1.2-3.8 0-4.8 1-.8 1.8-.8 3.4.2 2.6 1.6 3.9.3 2.2-2.5-.8-1.1-1.6-3.7-1.8-5.5-.5-3.3-.4-3.4 2.1-3 2.2.4 2.6.2 2.6-1.7 0-1.2.7-2.8 1.5-3.5.8-.7 1.5-2 1.5-3s.7-2.3 1.5-3c.8-.7 1.5-1.9 1.5-2.6 0-1.7 2.2-1.8 3.7-.3.6.6 1.6.8 2.2.5.7-.5.2-2-1.4-4.4-1.4-2-2.5-4.1-2.5-4.6 0-1.6 6.3.4 7.7 2.4.8 1.1 2 2 2.8 2 .7 0 1.6.6 1.9 1.2.4.7.4.3.2-1-.3-1.8 0-2.2 2-2.2 1.9 0 2.4-.5 2.4-2.4 0-1.3-.7-2.6-1.5-3-.8-.3-1.5-1.4-1.5-2.5s-.4-2.2-.9-2.6c-.9-.5-4.1-6.2-4.1-7.2 0-.1.6-.3 1.3-.3.7 0 1.8-.9 2.5-2.1.9-1.4 2-1.9 3.3-1.6 1.5.4 1.9.2 1.5-.9-.3-.8-.9-2.1-1.2-2.9-.8-1.9 1.3-1.9 5 0s4.2 1.9 2.4-.3c-2.3-2.7-1.5-6.7 1.9-9.6 3.7-3.1 3.8-3.1 7-.6 2.8 2.2 5.5 2.8 3.5.8-.7-.7-1.2-2.1-1.2-3.2s-.6-2.7-1.4-3.5c-.8-.9-2.1-3.6-2.9-6.1-1.5-4.3-1.4-4.5.5-4.8 2.2-.4 3.8 1.2 11.8 12.3 14.5 20.2 23.2 30.5 25.7 30.5 1.8 0 1.6-2-.5-5.1-3.4-5.3-5.7-8.4-6.2-8.9-2.2-1.9-6.9-10.1-6.4-11.3.6-1.6-1.8-7-4.6-10.2-2.9-3.4-4.3-8.1-3.1-10.3 1.8-3.3 1.3-5.1-1.9-6.7-1.6-.9-3-2.2-3-3 0-.8-.4-1.5-.9-1.5s-1.1-1.3-1.3-2.9c-.3-2-.1-2.8.6-2.3 1.6 1.1 9.5 8.2 13.5 12.3 2 1.9 5.4 4.6 7.6 5.9 2.2 1.3 8.6 6.9 14.3 12.4l10.2 9.9-3.6-7.9c-4.5-9.7-8.3-16.4-9.4-16.4-.5 0-5.3-4.4-10.7-9.8-5.5-5.3-12.2-11.8-15.1-14.4-3.8-3.5-5.2-5.5-5.2-7.5-.1-1.6-.9-4.6-2-6.8-2.2-4.6-2.5-6.5-.9-6.5.8 0 .7-.5-.1-1.6-1-1.1-2.3-1.4-5.2-.9-4.1.7-4.7.1-2.3-2.5 1.4-1.6 1.1-2.1-3-5.9-5.2-4.8-9.3-5.3-11-1.4-.8 1.9-1.5 2.2-5.3 1.8-2.5-.3-6.5-1.6-8.9-3-4.9-2.7-8.6-3.1-13-1.4-2.4.9-3 .7-4.4-1-1-1.2-2.7-2.1-3.8-2.1-1.3 0-2.6-1-3.3-2.4-1.1-2.6-10.1-7.2-11.8-6.1-.5.3-1.8 2.5-2.9 4.9-1 2.4-2.3 4.6-2.9 5-1.1.6-8.1-3.6-9.4-5.7-.4-.7-1.7-4-2.9-7.4-2.3-7.1-10.3-19.9-14-22.6l-2.4-1.8 2.5.6c6.7 1.7 7.3 1.8 6.6.6-.4-.6-1.7-1.1-2.9-1.1-1.3 0-3.2-.7-4.4-1.5-1.2-.8-4.8-1.8-8-2.1-5.4-.5-5.9-.3-7.6 2.1-1.8 2.4-1.8 2.8-.1 7.8 1.2 3.9 3.1 6.5 7.1 10.4 3.4 3.1 5.3 5.8 5 6.6-.3.8-2.7 1.7-5.7 2.1-2.9.4-6.3 1.4-7.6 2.2-3.2 2.2-4.6.9-4.2-4 .3-3.9.2-4.1-2.3-3.8-1.7.1-5-1.1-8.6-3.3-3.8-2.3-8.6-4-13.1-4.9-8.3-1.6-10.5-3-9.9-6.3.6-3.1-.2-3.4-4.7-2.2-2.4.7-3.6 1.5-3.3 2.3.3.7-.8 2.7-2.4 4.4-2.8 3-3.1 3.1-6.2 1.8-2.6-1.1-3.1-1.8-2.9-4 .3-2.5.1-2.6-1.8-1.4-2.9 1.8-2.5 3.9 1.5 7.1 2.6 2 3.5 3.6 3.5 5.7 0 3.9-1 4.3-6.5 2.4-5.3-1.8-7.5-1.3-7.5 1.5 0 3-1.6 3.4-7.1 2.1-4.1-1-5.5-1.9-7.7-5.2-2.5-3.9-2.7-4-7.1-3.4-5.4.7-6 1.2-3.5 3 6.3 4.6 6.2 4.4 3.4 6.6-2 1.7-3.4 2-7.4 1.6-4.6-.5-5.1-.3-8.1 2.9-3.6 4-4.1 4.1-7.5 1.5-1.8-1.3-2.8-1.6-3.7-.8-.7.5-3.2 1.1-5.7 1.3-5.5.3-6.2.8-6.9 4.5-1 4.7-4.5 4-10.5-2.2l-4.9-5.1-2.8 5.4c-3.3 6.6-2.9 6.3-5.2 5-1-.5-4.2-1.7-7-2.6-6.2-1.9-6.7-2.6-6.4-8 .1-2.9-.7-5.8-2.9-10-1.6-3.3-3-6.6-3-7.3 0-3 7-.4 11.4 4.3 3.5 3.7 4.9 3.8 9.1.7 1.5-1 1.5-1.3.3-.9-1.8.6-9.4-1.9-11.8-3.9-.8-.7-2.7-1.7-4.3-2.3-1.5-.6-3.2-2.2-3.7-3.6-1.1-2.8-4.7-3.4-5.6-1-.9 2.3-4.8 1.8-7.4-1-2.3-2.4-7-3.5-7-1.5 0 .5-2.1 1.9-4.7 3l-4.8 2.2 2.4 1.6c3.4 2.4 19.1 17.4 20.1 19.2.4.8 1.1 4 1.4 7.1.6 5.1.5 5.9-1.9 8.7-2.4 2.9-2.9 3.1-5 1.9-2.5-1.3-24.5-24.2-27.1-28.3-2.2-3.2-4-3-5.9.6-1.7 3.4-3.3 3.7-7.5 1.5-3.5-1.8-3.9-4.5-1-6.3 3.1-1.9 2.4-4.2-2.8-9.1-2.6-2.5-6-6.5-7.5-8.7-1.5-2.3-3.9-5.2-5.3-6.5-2.4-2.3-2.6-2.3-3.8-.7-1.6 2.2-3.4 2.3-5.8.1-1-.9-3.5-1.9-5.5-2.2-3.3-.5-3.9-1.2-5.3-4.8-3-8.1-7.8-10.9-16.6-9.5-5.2.9-10.4-.6-10.4-2.8 0-1.6-7.2-5.6-11.3-6.4-2.1-.4-4.8-1.8-5.9-3.2-1.2-1.3-2.6-2.4-3.2-2.4-.6-.1-2.2-1-3.6-2.1l-2.4-2.1 2.2-1.6c1.9-1.4 2.1-2.2 1.3-4.8-.5-1.7-2.5-5.3-4.5-8.1-4.1-5.8-4.3-7.1-1.6-10.6 1.1-1.4 2-3.2 2-4.1 0-.9-3.1-3.6-6.9-6.1-3.8-2.5-7.6-5.7-8.5-7-.9-1.4-3.3-3.6-5.4-5-2-1.3-5.6-3.9-7.9-5.6-3.5-2.7-4.5-3-5.8-1.9-1.1.9-2.2 1-4.2.2-1.6-.6-4.1-1.3-5.7-1.7-1.6-.3-4.6-2.2-6.5-4.1-2-1.9-3.9-3.4-4.2-3.4-.6 0-3.2 6.1-4.5 10.7-.6 2.2-4 1.4-7.1-1.5-2.2-2-3.3-4.3-4.2-8.9-1.4-7.5-.5-9.8 4.1-10.8 1.8-.4 4-1.2 4.9-1.8 1.6-1 1.6-1.3-.7-4-3-3.6-3-3.9.6-6.5 2.1-1.6 4.3-2.2 7.8-2.2 5.4 0 10.2-2.8 10.2-5.9 0-2.3-6.7-10.1-8.7-10.1-1.6 0-10.3-8.5-10.3-10.1 0-.5.6-.9 1.3-.9.6 0 2.1-.3 3.3-.6 1.4-.4 3.1.4 5.3 2.2 1.7 1.4 3.5 2.4 3.8 2 .8-.8-14.4-15.6-16.1-15.6-.7 0-2.3-1.2-3.7-2.6-2.7-2.9-9.9-6.9-9.9-5.5 0 1.6 7.9 8.1 9.9 8.1 1.7 0 4.9 2.7 4 3.4-3.5 2.7-10.7 5.6-12.9 5.1-1.8-.4-3.5.2-6 2-3.4 2.5-8.4 3.3-9.5 1.5-.3-.6-1.7-1-3.1-1-3.3 0-3-1.6 1-5.6 2.4-2.4 4.4-3.4 6.7-3.5 9-.3 11-3.1 5.9-8.4-2-2-2.9-3.8-2.5-4.6.6-.9-.1-1-2.7-.5-2 .3-4.7.2-6-.3-1.4-.5-2.9-.6-3.5-.3z"/><path d="M806.4 98.5c-1 2.6 1.5 42.1 2.8 44.1 1.7 2.7 10.6 4.4 19.3 3.9 8.3-.5 9.7-.1 7.3 2.3-.9.9-.9 1.5-.1 2.3.8.8 2.8.5 7.4-1.1 4.4-1.6 6.7-2 7.8-1.3 1.4.9 6.8.6 17.4-1 4.9-.7 5.3-2 2.6-8.8-2.7-6.7-14.7-20.7-20.3-23.6-1.7-.8-5.7-3.3-9-5.5-6.7-4.6-13.8-7.8-17-7.8-1.2 0-2.7-.5-3.3-1.1-.6-.6-2.9-1.5-5-2-2.1-.4-5-1.1-6.5-1.5-2.1-.5-2.9-.2-3.4 1.1zM594 141.9c-8.9 4.3-15.5 10.2-26.1 23.6-2.6 3.3-6.9 11.5-6.9 13.1 0 .2 1.4.4 3 .4 2.1 0 3-.5 3-1.7 0-.9.8-2.6 1.8-3.7 1-1.2 2.5-3.7 3.2-5.6.7-1.9 3.7-6.7 6.6-10.6 3.8-5.2 6.4-7.7 9.8-9.2 2.5-1.2 5.2-2.2 5.9-2.2 2 0 5.7-3 5.7-4.6 0-1.8-1.6-1.7-6 .5zM260.7 146.6c-1.6 1.7-.4 4.6 3.6 8.9 2.4 2.5 4.6 4.5 4.9 4.5.3 0 3.5 1.7 7 3.7 7.1 4.2 13.8 11 13.8 14 0 1.1 1.8 3.5 4 5.4 2.2 1.9 7.1 6.3 10.8 9.9 3.9 3.8 9.6 7.9 13.3 9.8 3.5 1.7 8.4 5.1 10.9 7.4 5.9 5.6 9.4 7.8 12.3 7.8 1.2 0 2.7.4 3.2.9.6.4 3 1.6 5.5 2.5 2.5.9 7 4 10 6.8s7 6.2 8.8 7.6c1.7 1.3 3.2 3.3 3.2 4.3 0 1.1.4 1.9 1 1.9 1.3 0 3.8 4.9 6.2 12.4 2.2 6.7 6.5 14.6 7.9 14.6 1.4 0 1-2.6-.6-4-.8-.7-1.5-2.5-1.5-4 0-1.6-.7-3-1.6-3.4-1.2-.5-1.4-1.4-.9-4.5.5-3.1.2-4.3-1.8-6.7-1.3-1.6-3-4.5-3.7-6.4-1.7-4.2-15.6-18.1-20.4-20.4-1.9-.9-4.3-1.6-5.4-1.6-2.8 0-12.6-4.6-14.7-7-1-1.1-2.6-2-3.5-2-1 0-2.5-1.1-3.4-2.5-.9-1.4-2.1-2.5-2.7-2.5-.6 0-5.1-3.8-10.1-8.4-4.9-4.7-9.9-8.6-11.1-8.8-1.4-.2-2.3-1.1-2.5-2.5-.2-1.2-2.4-4.1-5-6.5-2.6-2.3-4.9-5.2-5.2-6.3-.4-1.2-1.6-2.1-3.1-2.3-1.8-.2-3.3-1.5-4.8-4.3-1.2-2.1-2.6-3.9-3.1-3.9s-2.5-1.4-4.4-3c-1.9-1.7-4-2.8-4.8-2.5-1.1.4-1.9-.8-3-4.2-1.4-4.4-1.8-4.8-4.9-5.1-1.9-.2-3.8 0-4.2.4zM808.7 211.1l-11.8 5.9 3.8 4.5c2 2.5 4.5 4.7 5.4 5 1.9.6 18.3-10.3 19.1-12.7.8-2-1.7-8.3-3.3-8.5-.8-.1-6.7 2.5-13.2 5.8zM920 213c-1.9.5-7.1 1.1-11.5 1.4-4.4.3-9.8 1-12 1.5-2.2.6-5.7.8-7.7.4-2.1-.3-7.3 0-11.6.7-7 1.2-8.1 1.1-10.4-.4-1.9-1.2-4.5-1.7-9-1.6-3.4.1-9.4-.1-13.3-.4-6.3-.5-5.9-.3 4 1.5 6.1 1.1 12.4 2.2 14 2.5 3.7.5 6.2 2 5.1 3.1-.4.4-11.3.9-24.2 1.1l-23.4.2-5.6 3.7-5.5 3.7 3.3 2c6.2 3.8 8.8 6.4 10.4 10.1 1.1 2.8 2 3.6 3.4 3.2 1.9-.5 8 2.6 8 4.1 0 .5 1.2 2.2 2.6 3.7 2.7 2.9 10.4 18.3 10.4 20.7 0 .8 1.3 3.5 2.9 6.1 4.7 7.2 8.2 15.3 7.5 17-.8 2.3 4 15.7 5.7 15.7.4 0 1-1.4 1.4-3 1-4.6 4.4-4.9 10.3-1.1 5.7 3.6 6.9 3.7 14.5 1.1 4.1-1.4 8.2-2 14.9-2 10.2 0 11.8.7 21.7 9 10.9 9.1 15.5 14.5 19.2 22.7l2.8 6.3h4.4c4.9 0 5.8-.6 13.2-8.7 5.7-6.3 5.6-8.8-.8-13.2-2.3-1.6-7.6-5.9-11.7-9.5-4.1-3.6-7.9-6.6-8.5-6.6-2.2 0-8.6-5.2-11.6-9.6-1.7-2.5-2.9-4.8-2.6-5 .6-.6 10.1 5 15 8.8 3.2 2.5 3.7 2.7 3.7 1.1 0-3-2.6-10.4-5.9-16.8-3.5-6.8-3.8-8.3-1.4-6.4 1.4 1.2 1.4.9-.2-1.8-1.9-3.2-1.9-3.3.4-6.4 2.2-3 2.3-3.3.7-4.5-1-.7-3.6-1.6-5.8-1.9-3.2-.6-4.3-.4-5 .8-1 1.9-3.2 1.3-7.3-2.1-3.5-2.9-14.2-8.2-16.6-8.2-.9 0-2.1-.6-2.7-1.3-.8-.9 1.6-1.2 11.6-1.1 7 0 13.4.4 14.3.8 2.4 1.1 4.5-1.9 2.8-4-1.1-1.4-1-1.8.5-3 2-1.4 2.2-1.1-4.9-11.1-.7-1-.5-1.8.8-2.7 2.7-2 2.3-9.4-.7-13.1-2.2-2.7-2.3-3.2-.9-4.7 3.1-3.4-.8-4.7-8.7-2.8z"/><path d="M937.3 215.7c-.9.3-1.3 3.2-1.3 9.2 0 7.3.3 9.1 1.8 10.5 1.8 1.5 2 1.5 4.2-.4 1.3-1.1 3.3-2 4.5-2 3.5 0 8.5-5.2 8.5-8.8 0-4.4-.9-6.1-4.1-7.7-2.7-1.4-11-1.9-13.6-.8zM944.5 238.6c-1.6.9-3.1 1.8-3.3 1.9-.1.1.4 1.5 1.3 3.1.8 1.6 1.5 4.6 1.5 6.7 0 4.5 2.8 14.9 4.2 15.8.6.4 1.1 2.8 1.3 5.3.3 4.5.2 4.6-1.2 2.5-1.4-1.9-1.7-2-2.5-.5-.6 1-.3 3.8.8 7.9.9 3.4 2 8 2.5 10.2 2.5 11.6 4.5 15.9 8.5 18.8 10.6 7.5 21.9 15.3 31.4 21.8 5.8 3.9 11.8 8.4 13.4 10 1.5 1.6 4.7 3.4 7 4 10 2.7 14.3 6.5 17.3 15.2 1.3 3.9 1.8 4.6 2.1 2.9.2-1.3 1-2.2 2.1-2.2 2.2 0 4.5-2.5 3.7-3.9-.3-.5-.8-5.1-1-10.3-.3-9.9-1.7-14.4-4.8-15.4-1-.3-2.6-2-3.5-3.7-1.9-3.8-13-16.1-17.7-19.7-1.9-1.4-5.8-4.7-8.7-7.3-5.2-4.6-7.2-6-20.1-14.5-3.2-2-5.8-4.1-5.8-4.6s6.4-.6 15.4-.2c16.8.7 20.2.1 21.3-4.1.6-2.7.5-3-6.1-16.4-2.6-5.3-5.5-10.2-6.4-11-4.2-3.6-6.9-4.9-10-4.9-1.9 0-4.6-.7-6-1.5-5-2.7-18.9-6.4-26.3-7-5.8-.4-8-.2-10.4 1.1zM790 258c-3.6 1.7-8.4 5-10.6 7.3-7.1 7.2-14.4 12.9-15.8 12.4-2-.8-7.9 3.1-7.2 4.8.3 1-.3 1.7-1.9 2.1-1.6.4-2.5 1.3-2.5 2.5 0 2.5-6 4.3-7.7 2.2-.7-.9-1.3-1.1-1.8-.4-.3.6-1.4 1.1-2.5 1.1-1 0-2 .7-2.4 1.5-.3.9-1.9 1.5-4.1 1.5-2.2 0-3.8.6-4.1 1.5-.7 1.8-2.5 2-2.2.3.2-.7-1.3-1.3-3.7-1.5-2.2-.2-4.4-.8-4.9-1.3-1.8-1.8-2.6-1-2 1.9.5 2.2.1 3.2-1.8 4.7-1.2 1.1-3.1 2.9-4.1 4.1-1.7 1.9-1.7 2.4-.3 5.1.8 1.6 2.2 3.2 2.9 3.5 2.2.8 13-5.6 14.5-8.6 1.2-2.5 3.2-3.7 3.2-1.9 0 .4 1.5 1.2 3.3 1.7 2.4.8 3.1 1.5 3 3.1-.2 1.8.8 2.3 7.7 3.8 8.6 2 12.9 1.8 24-.9 3.6-.9 9-1.9 12-2.1 3-.2 7-.9 8.8-1.3 1.8-.5 5.6-.7 8.6-.4l5.3.5.6-5.3c1.1-8.7.8-15.9-.8-23.4-.9-3.9-2-9.5-2.6-12.5-1.1-5.7-2.5-9-3.7-9-.4 0-3.6 1.4-7.2 3zM707.4 271.3c-.6 1.6-1.3 1.7-4.3 1.1-4.9-.9-29.3-.6-30.3.4-.5.5.2 2 1.5 3.4 2.1 2.3 3 2.5 7.3 2.1 2.7-.3 6.4-.9 8.2-1.3 3.9-1 4.6 0 3.4 4.5-.8 2.8-1.1 2.9-6 3-6.1.1-8.6 1.7-5.2 3.5 1.5.8 3 .8 5 .2 1.6-.6 3.1-.8 3.4-.5 1.8 1.8 22.6-9.7 22.6-12.4 0-2-.4-2.8-1.4-2.5-.4.1-1.4-.5-2.1-1.5-1.3-1.7-1.4-1.7-2.1 0z"/><path d="M809 289.9c-.5 1.1-1 5.1-1 8.9 0 4.4-.5 7.3-1.2 7.9-.7.6-5.9 1.3-11.6 1.6-11.9.6-13.9 1.5-11.8 5.6.8 1.4 2.3 3.5 3.3 4.6 4.9 5.3 7.9 11.5 5.6 11.5-.5 0-1.4.4-2.2.9-2.1 1.4 1.1 5.4 18.6 23.3 9.9 10.1 15.3 16.4 15.3 17.7 0 2.3-1.5 2.8-2.7.8-.9-1.5-13.8-10.7-15-10.7-.4 0-2.8-1.4-5.3-3-4.3-2.9-9-4-9-2.1 0 .5 1.5 1.8 3.3 3 8.3 5.3 10.6 7.2 12.4 10.3 1.1 1.8 3.7 4.2 5.9 5.3 5.4 2.7 11.4 7.6 11.4 9.1 0 .7 2.5 3.9 5.5 7 3.1 3.1 5.4 5.9 5.1 6.1-.2.2-2.2-.5-4.5-1.6-5-2.6-5.4-2.6-4.6-.1.3 1.1.2 2-.2 2-2.6 0-12.1-5.7-19.9-12.1-4.9-3.9-9.5-7.4-10.1-7.6-.7-.3-1.3-1.4-1.3-2.4 0-1.1-1.7-2.9-4.2-4.5-2.4-1.5-7.4-4.8-11.1-7.3-7.6-5.1-16.1-10.5-19.2-12.2-2.4-1.3 21.3 22.1 34.5 34 10.3 9.4 14.6 13.8 26.7 27.8 4.4 5.1 9.1 10.2 10.6 11.3 2.5 2 3.6 5.8 2.1 7.3-1.4 1.4-9.3-4.1-17.2-12-9.9-9.9-15.7-14-17.7-12.3-.9.8-2 .7-3.9-.1-1.4-.7-2.6-1.5-2.6-1.8 0-1.3-7-4.3-8.6-3.7-1 .4-2.8-.4-4.9-2.3-1.8-1.6-3.7-3-4.2-3.2-.4-.2-2.3-2.1-4-4.2-1.8-2.1-3.3-3.5-3.3-3.1 0 .4 1.9 4.3 4.1 8.8 4.8 9.3 10.9 16.5 39.1 45.8 18.5 19.2 19.9 21 20.7 25.5.5 2.6 1.2 5.5 1.4 6.3.3.8.8 2.7 1.1 4.1.6 2.6.5 2.6-3.4 1.9-2.2-.4-4.5-1.2-5.2-1.7-.7-.5-3.1-1.5-5.3-2.1-2.2-.7-6.2-2.9-8.9-5-7.7-5.8-15.7-11.2-16.6-11.2-.5 0-1.5-.9-2.3-2-.8-1.2-5.7-5.7-10.8-10.1-5.2-4.4-10.1-8.8-10.9-9.8-1.8-1.9-9.1-6.4-9.6-5.8-.6.6 19.3 19.9 32.1 31.2 22.6 20.1 31.3 29 34.6 35.3.8 1.5 2.2 3.6 3.1 4.6 1.2 1.4 1.5 2.4.8 3.7-.7 1.2-.6 2.2.5 3.3 1.9 1.9 1.9 3 0 2.2-.9-.3-1.5 0-1.5.9 0 .8.4 1.5.8 1.5.8 0 5.2 7.1 5.2 8.4 0 .3-.7.6-1.6.6-1.3 0-1.5.9-1 5 .3 2.8.8 5.5 1.1 6 .3.5.1 1.7-.6 2.7-.9 1.5-.8 2.9.4 6.3.9 2.7 1.2 4.9.6 5.6-.4.6-1.1 3.6-1.5 6.7-.4 3.2-1.1 6-1.5 6.3-.5.3-.6 3.2-.2 6.5.5 5.4 0 9.1-2.5 15.9-.3.8-.4 4.3-.3 7.8.2 3.4-.1 6.8-.7 7.5-1.6 2-2.1 8.1-.8 9.7.7.8 1.7 2.7 2.4 4.2.9 2.3.9 2.9-.5 3.6-.9.5-2.4.7-3.4.5-1.4-.4-1.9 0-1.9 1.3 0 1.6.2 1.7 1 .4.5-.8 1-1.1 1.1-.5.2 3.1.9 4.9 2 5.6 1 .5.9 1.7-.1 5.2-.6 2.5-.9 5-.6 5.6.8 1.2-1.1 5.2-2.2 4.8-.7-.2-1.2.6-1.2 2.2 0 .5 1.4 1.4 3 2 1.7.5 3.3 1.8 3.6 2.8.3 1 1 2.6 1.5 3.5 1.3 2.5 1.2 2.8-.9 2.8-1.1 0-2.7-.9-3.7-2-2.2-2.5-4.6-1-2.5 1.5.8 1 1 2.8.6 5.3-.4 2-.8 4.8-1 6.2-.2 1.3-1.3 3.1-2.5 3.8-1.2.8-2.1 2.5-2.1 3.9 0 1.8-.8 2.7-3 3.4-3.4 1.2-3.6 1.7-1.5 4.5 1.9 2.5 1.9 4.4-.1 5.8-1.3 1-1.4 1.6-.3 4 1.1 2.4 1.1 2.9-.3 3.7-1.7.9-1.4 5.3.5 7.7 1 1.3.3 2.3-2.4 3.4-.4.2-.9 1.2-1.3 2.3-.4 1.6.3 2.5 3.4 4.2 4.5 2.6 5 2.2 5.4-4.4.2-3.4.7-4.9 1.8-5.1 1.5-.3 5-7.9 5.3-11.6.1-1 .9-2.4 1.9-3.1.9-.7 2.7-3.9 4-7.1 1.6-3.9 3-5.9 4-5.8 1.4.2 2-.8 1.7-2.8 0-.4 2.1.5 4.7 2 2.6 1.6 6.9 3.9 9.6 5.2 4.5 2.1 4.9 2.2 5.8.6.6-1 2.1-2.7 3.4-3.9 1.6-1.4 2.1-2.4 1.4-3.2-.5-.6-.6-2.4-.1-4.1.6-2.5 1.2-2.9 3.7-2.6 2.3.3 2.7.1 1.7-.9-1.6-1.6-1.7-5.5-.1-6.5.7-.4.8-.3.4.4-.7 1.2 2.1 4.6 4.5 5.4 1.1.4 1.2.9.2 2.6-.9 1.4-.9 2.2-.1 2.4 1.4.5 1.9 5.9.7 7.4-.5.6-2 .9-3.4.6-2-.3-2.5 0-2.5 1.5 0 1 .4 2.3.9 2.8.6.6 1.3 3.4 1.7 6.2.5 4.4.4 5.3-.9 5.3-.9 0-1.9-.5-2.2-1-1.4-2.3-2.5-.7-2.5 4 0 5.4-.4 5.8-3.1 3.4-1-.9-2.6-1.4-3.6-1.2-1.5.4-1.2 1 1.9 3.9 4.3 4.1 5.7 7.2 5.1 11.6-.5 2.9-.9 3.3-3.7 3.3-5.3 0-10.4-7.2-7.1-10 1.9-1.6 1.9-6 0-8.6-1.9-2.5-1.9-4.4 0-4.4.9 0 1.2-.6.9-1.5-.5-1.2.2-1.5 3-1.5 6.3 0 4.5-2.3-4.6-5.9-3.3-1.3-5.8-3-6.1-4-.2-1-1.8-2.3-3.6-2.9-2.8-1-3.1-.9-3.1.9 0 1.1-.7 1.9-1.6 1.9-1.2 0-1.4.8-.8 4.5.5 3.6.3 4.6-1 5.1-1 .4-1.6 1.8-1.6 3.5 0 2.5-.5 3-2.9 3.5-2.5.5-3 1.2-3.6 5-.3 2.4-1 4.4-1.6 4.4-.5 0-.9 1-.9 2.3 0 2.8-1.7 4.7-4.2 4.7-2 0-2.5 1.6-.6 2.2.7.3.9 1.2.4 2.3-.5 1.4-.9 1.6-1.8.7-.7-.7-2-1.2-2.9-1.2-1 0-1.9-.4-2.1-.8-.4-.9-8.7-5.8-12.2-7.1-2.1-.9-2.4-.8-1.9.6.5 1.3.1 1.5-2.1.9-1.6-.4-3.9-1.4-5.3-2.3-3.8-2.5-12.3-5.2-16.3-5.3-2.7 0-5.2-1.2-10.3-5-7.3-5.6-12.3-8-16.2-8-2.8 0-11.4-4-19.5-9.1-3-1.9-6.8-4.1-8.3-4.9-1.5-.8-5.6-3.8-8.9-6.7-3.4-2.9-6.5-5.3-7-5.3s-3.8-2.3-7.3-5.1c-4.9-3.8-7.6-5.2-10.8-5.6-7.5-.8-8.7-1.3-12.6-5.2l-3.8-3.8-3.1 21.1c-5 32.8-4.9 29.8-1.7 35.9 2.7 5.1 2.7 5.4 1.2 8.2-1.6 2.9-1.7 2.9-2.3.7-.8-2.9-2.4-2.9-2.4 0-.1 2.2-.1 2.2-1.5.4-.8-1.1-1.6-1.8-1.8-1.5-2.8 3.5-4.2 8-3.9 12.8.3 4.9.4 5.2 2 3.8.9-.8 2.8-1.7 4.2-1.9 2.1-.2 2.5.1 2.2 2.1-.1 1.4-.9 3.2-1.8 4.2-1.2 1.3-1.3 2.1-.3 4.2 1.6 3.6-2.2 10.4-7.7 13.4-3.5 1.9-4.5 3.3-6.8 9.1-1.6 4.3-2.4 7.6-1.9 8.8 1.2 3.2 8 11.8 11.3 14.3 2.7 1.9 3.1 2.8 2.6 5.2-.3 1.6-.9 4.2-1.2 5.9-1 4.6.2 7.2 5.5 13.1 2.7 3 5.2 6.6 5.5 8.1.3 1.5 2 4.4 3.9 6.5 1.8 2.1 4.1 5 5 6.5 1.7 2.7 1.7 2.8-.1 2.8-1.9 0-4.6-1.8-14.5-9.6-4.7-3.7-9.3-6.9-16.7-11.7-3.2-2-5.2-1.5-6.9 1.6-.6 1.2-2.2 4-3.6 6.2s-4.8 8.5-7.6 14c-4.9 9.7-5 10.3-5.2 19.2-.2 10-2.2 14.5-6.5 15.1-2.7.4-4.1 6.5-5.3 24.2-.5 7.4-1.4 16.1-2 19.2-1.8 9 1.1 30.1 4.4 32.2 1.5.9 2 .7 3-.9 2.4-4.1 5.8-18.3 6.4-27.3.6-8.7.5-9.4-1.7-11.7-1.2-1.3-2-3-1.8-3.7.3-.7-.1-2.7-.8-4.5-.9-2.1-1.1-5.2-.7-9.7.8-9 1.9-9.4 6.2-2.4 2.3 3.8 11.5 11.6 18.6 15.8 7.5 4.4 13 7.2 16.5 8.6 1.9.7 6.2 2.4 9.4 3.8l6 2.4-.3 5.8c-.1 3.1-1.2 8-2.3 10.8-1.3 3.5-1.8 6.3-1.4 8.8.5 2.7.1 4.8-1.3 7.4-1.5 2.7-1.7 4.2-1.1 6 1.9 5 4.1 8.4 5.3 8.4 4.1 0 11.1-13.1 13.1-24.5.7-3.8 1.8-8 2.4-9.2.7-1.2 1.2-3.7 1.2-5.7 0-1.9.3-3.7.8-4 .4-.2 2.7 0 5.2.6 2.5.5 5.6 1 7 1.1 1.7.1 2.6 1 3 2.7.4 1.9 1.4 2.6 4 3.1 1.9.3 4.9 1.3 6.7 2.2 1.8.9 3.9 1.7 4.8 1.7 1.4 0 2.1 3.3 1.6 8.3-.5 4.5 14.7-1.2 18-6.8 3-5 3.9-5.8 5.5-4.4 1 .8 1.1 1.6.4 2.9-1.5 2.7-1.3 3.5 1.6 6.9l2.6 3.1-1.3 15.2c-.6 8.4-1.5 15.7-1.9 16.1-.4.5-3-.3-5.6-1.7-2.7-1.4-5.3-2.6-5.8-2.6-.6 0-2.1-1.1-3.6-2.5-1.7-1.7-3.9-2.5-7-2.7l-4.5-.3-.3 5.2c-.2 2.9-.9 5.6-1.7 6.3-1.9 1.6-1.9 3.9-.1 4.6.8.3 2 1.9 2.7 3.6 1 2.4 1 3.1-.1 3.8-.7.4-2 .6-2.8.3-2.2-.9-.5 3.7 2.3 6.2 3.1 2.7 5.8 7.2 5.1 8.4-.3.5.9 2.9 2.8 5.3 3.2 3.9 12.6 21.5 12.6 23.3 0 .5.7 1.6 1.6 2.6.8.9 2.2 5.4 3 10 1.4 7.9 3.6 12.5 5.6 11.3.5-.3 1.9-2.5 3.1-4.8 6.4-12.3 6-11.8 8.8-11.2 2.7.5 5.9-1.8 5.9-4.2 0-.7 1.1-2.2 2.5-3.3 1.9-1.8 2.4-3.1 2.3-6.8-.1-5.5 2.1-15.1 5.6-24.4 3.4-8.9 3.3-11.3-.4-14.5-2.8-2.4-3-3.2-3-9.2 0-3.6.5-10.6 1.1-15.5.6-5 1.2-10.8 1.4-13 .3-2.2 1.1-7.8 1.9-12.5.8-4.7 2-11.7 2.7-15.5 1.1-6.3 1.6-7.4 5.5-11.1 2.6-2.4 4.4-5 4.4-6.3 0-1.8.4-2 2.8-1.5 1.5.3 3.9 1 5.5 1.6 1.5.6 4.3.8 6.2.5 2.4-.4 4-.1 5 .9s2.5 1.3 4.9.9c2-.4 3.6-.2 4 .4.4.6 2 1.1 3.7 1.1 2.1 0 2.9.5 2.9 1.7 0 1 .3 3.4.6 5.4.5 3.1.3 3.7-1.5 4.2-2.9.7-7.5-1.7-8.9-4.8-1.4-3-3.7-3.2-7.5-.6-4.1 2.7-9.7 8.9-9.7 10.7 0 1.4-1.3 3.3-6.1 9.2-.6.7-2 1-3.4.6-2.9-.7-5.8 3.1-5.9 8.1-.1 1.8-.7 4-1.5 4.8-1 1.3-1 3-.1 8.4.6 3.7 1.5 10 1.9 13.8.4 3.9 1.3 8 2 9.3 1.7 3.2 4.7 4.5 7.1 3.2 1.7-.9 2-2.1 2-8.3 0-12.4 1.7-12.5 9.6-.5 2.6 3.8 5.6 7.3 6.8 7.8 1.7.6 2.6 2.3 3.6 6.5 1 4 2 6 3.6 6.8 3.3 1.7 7.4 7.6 7.4 10.5 0 2.8 3.4 8.7 5.4 9.5.8.3 1.7 1.9 2.1 3.5.3 1.6 1.7 4 3.1 5.2 1.3 1.3 2.4 2.8 2.4 3.4 0 .6 2 3.8 4.4 7.1 2.5 3.2 5.7 8.4 7.2 11.4 1.5 3.1 3.9 7 5.4 8.8 1.5 1.7 3.6 4.5 4.6 6.2 1.4 2.3 2.6 3.1 4.6 3.1 2.1 0 2.8.5 2.8 1.9 0 1.1-.4 2.3-1 2.6-1.2.8 2.9 7.3 5.1 8 .9.3 3.2-.4 5.1-1.5 3.3-1.9 3.6-1.9 5.1-.2 2.1 2.3 1 3.9-2.8 4.4-4.2.4-4.4 3.6-.6 9.2 1.7 2.5 3.1 4.8 3.1 5.1 0 .4 2.1 3.5 4.6 6.9 2.6 3.3 4.9 6.7 5.1 7.4.3.6 1.2 1.2 1.9 1.2 2.6 0 2.7-3 .1-6.8-2.8-4-5.8-11.8-4.9-12.7 1.6-1.5 3.2 0 3.9 3.7.6 2.8 1.5 4.4 2.6 4.6 1.2.2 1.7-.3 1.7-1.8 0-1.1.9-3.8 2-5.9 1.7-3.5 1.8-4 .4-5.2-1.2-1-2-.9-4 .2-2.2 1.1-2.7 1.1-3.4-.1-1.3-2-1.2-3.7 0-4.5.6-.3 1-2.1 1-3.9 0-2.6.7-3.9 3.4-6 1.9-1.4 3.8-2.6 4.1-2.6.4 0 .4 1.8 0 4-.6 3.3-.4 4 .9 4 .9 0 1.6-.5 1.6-1 0-2.2 1.9-.7 5.3 4.2 6.4 9.2 17.1 19.8 19.8 19.8 3.3 0 4.9-1.7 4.9-5.1 0-1.5.5-3.1 1.1-3.5.6-.3.9-1.5.6-2.5-.3-1 .2-2.4 1-3.1 1.2-1 2.2-.8 5.4 1 5.9 3.4 10.4 3 14.5-1.5 1.9-2 3.4-4.4 3.4-5.2 0-.9 1.8-4.3 4-7.6s4-6.5 4-7.2c0-.7.4-2.1.9-3.1 2.6-5.1 4.1-9.4 3.5-10.3-.3-.5.1-2.1 1-3.4.9-1.3 1.6-4.2 1.6-6.3 0-3-.7-4.5-3.4-7.1-3.1-3-3.3-3.5-2.3-6.4 1.7-5.4 2.3-6.2 5.1-6.5 1.7-.2 3-1.2 3.5-2.6.5-1.2 1.6-2.8 2.5-3.5.9-.7 1.6-2.8 1.6-4.6 0-4.9.9-6.4 4.5-7.9 4.8-2 7.8-9.1 5.9-13.9-.3-.8-6.6-7-14-13.8-12.5-11.4-13.4-12.5-13.4-15.9 0-2-.6-4.5-1.4-5.5-1.8-2.5-4.6-1.3-4.6 2.1 0 2.4-.3 2.5-2.7 1.9-4.4-1-5.3-2.6-5.9-10.1-.8-10-1.2-11.4-3.3-11.4-2.2 0-3.1 1.9-3.1 6.6 0 1.9-.4 3.4-1 3.4-.5 0-1-1.7-1-3.8 0-2.2-.6-5.9-1.4-8.4-.8-2.7-1.1-6.1-.7-8.4.7-4.2 1.5-3.8 2.5 1.3.9 3.9 3.2 6.1 4.8 4.5.8-.8.8-2.3-.1-5.6-1.1-4.6-.6-9.6 1-9.6 2.3 0 15.1-12.5 17.4-17 2.3-4.5 2.5-6.1 2.6-19.1.1-14 .2-14.1 3-17.4 1.6-1.7 2.6-3.4 2.4-3.7-.3-.2-.7-2.2-1-4.4-.2-2.1-1-5.1-1.6-6.6-.9-2.1-.8-3.1.5-5 2-2.9 2-4.7-.1-7-1.6-1.8-1.6-1.9.5-2.5 2.6-.6 2.8-1.6.7-3.3-1-.8-1.2-1.7-.6-2.4.7-.8.6-2.7-.1-5.5-1.3-5.2-1.1-5.5 9.8-11.1 12.8-6.5 13.8-7.9 10.9-15.9-.8-2.3-1.6-7.5-1.8-11.6-.2-4.1-.5-7.6-.8-7.8-.2-.2-2.1-1.4-4.1-2.6-3.3-2-4.2-2.1-7.3-1.1-2 .7-4.3.9-5.2.6-.9-.4-4 .1-7 .9-3.9 1.1-5.3 2-5.1 3.2.6 3-1.7 2.3-8.7-2.7-4.6-3.3-7.6-4.8-8.8-4.4-2.7.8-4.9-1.4-3.7-3.6 1.5-2.8 1.3-3.6-2.2-7.5-2.5-2.6-4.1-3.5-6.5-3.5-1.8 0-3.3-.4-3.3-.9 0-.6 1.8-3.1 4.1-5.7 2.2-2.6 4.4-5.7 4.9-6.8.4-1.2 1.5-10.1 2.5-19.8 1.6-16.7 1.6-17.7 0-20.2-1.5-2.2-1.6-3.1-.6-5.2.6-1.4 1.1-4 1.1-5.9 0-1.9.4-3.6.9-3.9.4-.3 1.1-3.4 1.4-6.9.3-3.4 1.3-8.3 2.1-10.7 1.2-3.5 1.4-8.1 1.1-21-.3-12.4 0-20.6 1.5-33 2.8-23 2.7-24-1.4-28.9-1.9-2.2-3.6-4.4-3.8-4.8-.1-.5-2.7-2.6-5.5-4.8-2.9-2.1-5.6-4.8-5.9-5.9-.8-2.4-.8-23.8 0-33.1.5-5.7 1.7-9.2 6.1-18.5 3-6.4 5.5-12.3 5.5-13.3s1.2-4.5 2.6-7.9c2.2-5.1 2.4-6.5 1.4-8.7-1.3-3-2.4-1.9-4.1 4.3-1.3 4.9-10.3 23.2-12.5 25.7-2.5 2.7-2.9 2.4-4.7-3-1.2-3.9-1.4-6.3-.6-12.2.8-6.3 2.1-9.9 9.4-24.4 8.6-17.2 10.2-22.5 6.7-22.5-1.3 0-2.9 2.2-5.2 7-1.9 3.9-3.9 6.9-4.5 6.7-1.4-.5-1.1-16.5.5-20.8.7-1.8 1.4-6.1 1.6-9.4.3-5.8.2-6-3.7-9.3-2.3-2-3.9-4.3-3.9-5.5 0-3.1-11.7-20.7-13.7-20.7-.9 0-4.2-2.4-7.3-5.3-14.1-13-18.3-15.4-23.3-13.2-3.5 1.5-17.7-4.2-23.7-9.5-1.6-1.4-4.6-5.9-6.8-10-2.1-4.1-5.5-10.1-7.5-13.2-2.1-3.1-3.7-6.1-3.7-6.6s-.7-1.5-1.4-2.2c-.8-.6-2.3-3.3-3.2-5.8-6.6-18.4-7.5-20.1-13.4-25.2-3.2-2.7-7.7-7.9-10-11.5-4.4-6.8-7.1-8.1-9-4.6z"/><path d="M969.1 362.6c-1.9.8-4.1 2-4.9 2.7-.8.7-4 1.2-7.1 1.2-3.1.1-7.1.7-8.8 1.4-2.9 1.2-3.5 1.1-6.3-.9-1.7-1.2-3.7-1.9-4.5-1.6-2.1.8-3 5.4-1.6 9.1.6 1.7 1.1 3.6 1.1 4.2 0 .6-2.9 5-6.6 9.8l-6.5 8.6 4.9 7.7c2.7 4.2 5.4 7.7 5.8 7.6.5 0 3.4-3.7 6.5-8.2 3.6-5.3 8.3-10.4 13-14.3 8.1-6.7 12.3-8.9 16.8-8.9 6.3 0 6.3.7.1 8.8-7.6 10-11.2 13.3-16.2 15.2-3 1.1-4.4 2.3-5.1 4.4-.5 1.6-2.1 3.9-3.4 5-2.8 2.5-4.4 9.6-2.1 9.6.8 0 3.2-1.9 5.3-4.1 4.1-4.3 12.4-8.9 16.1-8.9 3 0 5.8 3.4 5.1 6.2-.4 1.3-4.7 6.7-9.6 12-5.9 6.4-9.3 10.9-10 13.4-.9 3.3-.7 4 2.1 7.5 3.8 4.7 5.5 4.9 9 .9 4.9-5.6 8.9-2.4 6.9 5.5-.6 2.4-1.1 5.9-1.1 7.8 0 1.9-.7 4-1.5 4.7-1.1 1-2.1.5-5.1-2.4-2-2-3.9-3.6-4.1-3.6-.2 0-1.1 1.6-1.9 3.6-1.9 4.6-1.2 7.8 2.4 9.9 2.5 1.6 4.6 4.2 11.4 14.8 4.9 7.6 5.8 20.5 5.9 89.2 0 35.1-.4 62.3-.9 65.5-.6 3.1-3.4 10.2-6.6 16.4-3.1 6-5.6 11.8-5.6 13 0 2.3-1 4.1-7 12.1-3.7 4.9-3.8 5.2-5 18.8l-1.3 13.7 2.3 2.5c1.5 1.6 2.6 4.3 3 7.5.7 5.8-1.1 16.4-3.3 18.8-1.4 1.5-1.2 2.1 1.1 5.4 1.5 2 4.5 5.1 6.6 6.8l4 3.1 2.9-3.3c1.6-1.7 3.7-5 4.7-7.2 1.8-4.3 4-5.8 10.5-7.2 3.9-.9 4.2-1.2 9.8-12.3 6-11.7 9.7-23.3 9.7-30.5 0-2.3.7-5.1 1.5-6.3.8-1.2 1.8-6.4 2.4-12.3.9-9.6.8-10.4-1.1-13-1.9-2.7-1.9-2.9-.2-8.3s1.7-5.7-.1-7.7c-1.5-1.7-1.6-2.3-.5-5 .7-1.7 2.2-3.7 3.2-4.5 2.3-1.5 5-12.4 4.1-16.5-.3-1.8.2-3.1 1.6-4.4 2.8-2.6 2.6-5-.5-7.4-2.8-2-3.9-6.9-5.1-24.2-.2-4.1-1-8.1-1.6-8.9-.6-.7-1.2-2.7-1.3-4.5-.2-5.4-2.4-34.6-3.5-46.1-.7-7.2-1.8-13-3.4-17-4-9.9-6.6-17.7-7.5-22.5-.5-2.5-1.4-6-2-7.8-1.2-3.1-1-3.5 3.6-9 7.4-8.8 15.5-16.2 17.7-16.2 2.9 0 9.7-7.2 9.7-10.4 0-2.2.9-3.1 6.2-5.6 3.4-1.7 7.4-4.1 8.8-5.3 3.5-3.2 9.4-5.1 11.9-3.8 1.6.9 2.6.4 6-2.9 2.3-2.2 4.1-4.7 4.1-5.5 0-.8 1.6-3.2 3.5-5.2 6.1-6.4 5.7-10.6-1.1-11.9-1.9-.3-3.4-.8-3.4-1.1 0-1.2 2.5-5.1 5-7.8 3.3-3.6 4.4-8.5 2.5-11.1-1.4-1.9-4-2.4-17.1-2.7-8.1-.3-9.8-1.7-9-7.5.5-3.8.2-4.9-2.1-7.6-1.4-1.7-3.1-3.1-3.7-3.2-.6-.1-2.8-.9-4.9-1.8-5.6-2.4-19.3-4.3-21.5-2.9-1 .6-4.1 1.4-6.9 1.8-4.6.6-6 .3-13.1-2.9-9-4.1-8.6-4-13.1-2zM996 802c-3.9.9-6.8 3.9-7.5 7.9-.3 1.4-1.1 4.1-1.6 6-.9 2.8-.8 3.7.8 6 1.1 1.4 2.2 3.4 2.6 4.3.3.9 2.5 2.7 4.8 3.8 3.8 2 4.6 2.1 11.1.9 6-1.1 7.3-1.7 9.8-4.8 1.6-1.9 3.5-4.7 4.3-6.3 1.8-3.7 1.1-8.8-1.2-8.8-1 0-2.7-1.1-3.9-2.5-1.2-1.3-3.4-2.8-4.9-3.1-1.5-.4-4.1-1.6-5.8-2.6-3.3-2-3.4-2-8.5-.8zM1047.8 878c-4.2 2.3-6.8 5.5-6.8 8.5 0 1.2-.5 2.6-1.1 3.2-1.6 1.6-.4 5.3 2.9 9 2.3 2.4 3.5 3 5.2 2.6 4.4-1.2 15-13.8 15-17.8 0-.9-1-2-2.2-2.5-1.3-.5-3.6-1.8-5.3-2.9-3.6-2.5-3.1-2.5-7.7-.1z"/></svg>