<svg xmlns="http://www.w3.org/2000/svg" viewBox="0 0 64 64" width="64" height="64"><defs><linearGradient id="a" x1="160.008" y1="40.008" x2="100.008" y2="180" gradientUnits="userSpaceOnUse" gradientTransform="translate(3.813 4.272) scale(.23492)"><stop stop-color="#37aee2" offset="0"/><stop stop-color="#1e96c8" offset="1"/></linearGradient><linearGradient id="b" x1="123.641" y1="131.028" x2="146.527" y2="174.708" gradientTransform="matrix(.25652 0 0 .21515 3.813 4.272)" gradientUnits="userSpaceOnUse"><stop stop-color="#eff7fc" offset="0"/><stop stop-color="#fff" offset="1"/></linearGradient></defs><circle cx="32.004" cy="32.462" r="28.19" fill="url(#a)"/><path d="M26.836 45.382c-.913 0-.759-.344-1.073-1.214l-2.686-8.839L43.75 23.065" fill="#c8daea"/><path d="M26.836 45.382c.705 0 1.017-.322 1.41-.704l3.758-3.655-4.688-2.827" fill="#a9c9dd"/><path d="M27.315 38.197l11.36 8.393c1.297.715 2.233.344 2.556-1.204l4.625-21.792c.473-1.898-.724-2.759-1.964-2.196l-27.155 10.47c-1.853.744-1.843 1.778-.337 2.24l6.968 2.174L39.5 26.104c.762-.462 1.461-.213.887.295" fill="url(#b)"/></svg>