<svg xmlns="http://www.w3.org/2000/svg" width="120" height="120" viewBox="0 0 120 120"><g transform="translate(4.063 3.778) scale(.87952)"><path d="M88.46 6.33C84.22 4.43 71.85 3.22 64 3.22c-7.84 0-20.23 1.21-24.46 3.11-4.15 1.86-5.82 5.54-5.82 8.99v97.35c0 3.46 1.67 7.13 5.82 8.99 4.23 1.9 16.62 3.11 24.46 3.11 7.85 0 20.22-1.21 24.46-3.11 4.15-1.86 5.82-5.54 5.82-8.99V15.33c0-3.46-1.67-7.13-5.82-9z" fill="#006ca2"/><path d="M69.57 10.75H58.44a1.04 1.04 0 1 1 0-2.08h11.13c.58 0 1.04.46 1.04 1.04 0 .57-.46 1.04-1.04 1.04zM85.88 10.49a1.989 1.989 0 1 1-3.98 0 1.989 1.989 0 1 1 3.98 0z" fill="#fff"/><linearGradient id="a" gradientUnits="userSpaceOnUse" x1="63.999" y1="104.767" x2="63.999" y2="22.714"><stop offset="0" stop-color="#fff"/><stop offset="1" stop-color="#00a0d6"/></linearGradient><path fill="url(#a)" d="M39.21 22.71h49.57v82.05H39.21z"/></g><g fill="#fff"><path d="M46.605 99.584v.616l-1.345-.976 1.345-.986v.616h.774c1.513 0 2.49.449 2.49 1.75 0 1.31-.977 1.76-2.49 1.76h-1.741v-.73h1.741c1.284 0 1.76-.282 1.76-1.03 0-.738-.467-1.02-1.76-1.02h-.774zM62.912 102.117h-5.04v-2.542l2.524-1.064 2.524 1.064v2.542zm-4.31-.739h3.58v-1.328l-1.786-.756-1.794.756v1.328zM74.908 102.117h-4.221v-2.674h4.221v2.674zm-3.483-.739h2.762v-1.205h-2.762v1.205z"/><path d="M75.374 99.03h-3.122v-.73h3.852v2.313h-.73z"/></g></svg>