<svg xmlns="http://www.w3.org/2000/svg" version="1" width="64" height="64"><g fill-rule="evenodd"><path d="M13.658 6.298h36.335a8.093 8.093 0 0 1 8.093 8.092v36.335a8.094 8.094 0 0 1-8.093 8.094H13.658a8.094 8.094 0 0 1-8.093-8.094V14.39a8.093 8.093 0 0 1 8.093-8.092" fill="#4c75a3"/><path d="M31.385 43.064h2.148s.65-.071.98-.429c.305-.327.296-.943.296-.943s-.042-2.883 1.296-3.307c1.318-.418 3.012 2.786 4.807 4.018 1.358.932 2.39.728 2.39.728l4.8-.067s2.511-.154 1.32-2.129c-.098-.16-.694-1.46-3.57-4.13-3.01-2.793-2.606-2.341 1.02-7.174 2.207-2.942 3.09-4.739 2.815-5.508-.264-.733-1.888-.54-1.888-.54l-5.404.034s-.401-.055-.697.123c-.292.173-.478.58-.478.58s-.856 2.277-1.996 4.214c-2.407 4.086-3.37 4.303-3.763 4.049-.915-.593-.686-2.377-.686-3.644 0-3.96.6-5.612-1.17-6.04-.587-.141-1.02-.235-2.523-.25-1.928-.02-3.56.006-4.484.458-.615.301-1.09.973-.8 1.01.358.049 1.166.22 1.595.803.554.753.534 2.446.534 2.446s.318 4.662-.743 5.24c-.728.398-1.727-.413-3.874-4.12-1.099-1.9-1.928-3.999-1.928-3.999s-.16-.393-.446-.602c-.346-.255-.83-.335-.83-.335l-5.136.033s-.77.022-1.055.357c-.251.299-.02.915-.02.915s4.021 9.407 8.574 14.148c4.175 4.346 8.916 4.061 8.916 4.061" fill="#fff"/></g></svg>